%TF.GenerationSoftware,KiCad,Pcbnew,(5.1.4-0-10_14)*%
%TF.CreationDate,2019-11-24T22:14:00+02:00*%
%TF.ProjectId,READY,52454144-592e-46b6-9963-61645f706362,3.0*%
%TF.SameCoordinates,Original*%
%TF.FileFunction,Plated,1,2,PTH,Drill*%
%TF.FilePolarity,Positive*%
%FSLAX46Y46*%
G04 Gerber Fmt 4.6, Leading zero omitted, Abs format (unit mm)*
G04 Created by KiCad (PCBNEW (5.1.4-0-10_14)) date 2019-11-24 22:14:00*
%MOMM*%
%LPD*%
G04 APERTURE LIST*
%TA.AperFunction,ViaDrill*%
%ADD10C,0.400000*%
%TD*%
%TA.AperFunction,ViaDrill*%
%ADD11C,0.600000*%
%TD*%
%TA.AperFunction,ComponentDrill*%
%ADD12C,0.800000*%
%TD*%
%TA.AperFunction,ComponentDrill*%
%ADD13C,1.000000*%
%TD*%
%TA.AperFunction,ComponentDrill*%
%ADD14C,1.300000*%
%TD*%
%TA.AperFunction,ComponentDrill*%
%ADD15C,1.400000*%
%TD*%
%TA.AperFunction,ComponentDrill*%
%ADD16C,3.000000*%
%TD*%
G04 APERTURE END LIST*
D10*
X83820000Y-104648000D03*
X83820000Y-105664000D03*
X103619400Y-108994700D03*
X108712000Y-120396000D03*
X109728000Y-120396000D03*
X113792000Y-115316000D03*
X113792000Y-117856000D03*
X114808000Y-115316000D03*
X114808000Y-117856000D03*
X133408100Y-104690100D03*
X137378900Y-107502400D03*
X137405600Y-104058200D03*
X137632700Y-105430900D03*
X138519600Y-106349700D03*
X138556500Y-95422600D03*
X140586800Y-105917300D03*
X144263600Y-108960600D03*
X146038800Y-102953100D03*
X151616200Y-105343400D03*
X172910000Y-81089500D03*
X172923000Y-80086200D03*
X172923000Y-82054700D03*
X172936000Y-78193900D03*
X172936000Y-79121000D03*
X172949000Y-83032600D03*
X173876000Y-81089500D03*
X173888000Y-80086200D03*
X173888000Y-82054700D03*
X173901000Y-78193900D03*
X173901000Y-79121000D03*
X173914000Y-83032600D03*
X174866000Y-81076800D03*
X174879000Y-80073500D03*
X174879000Y-82042000D03*
X174892000Y-78181200D03*
X174892000Y-79108300D03*
X174904000Y-83019900D03*
X175844000Y-81076800D03*
X175857000Y-80073500D03*
X175857000Y-82042000D03*
X175870000Y-78181200D03*
X175870000Y-79108300D03*
X175882000Y-83019900D03*
X176848000Y-81076800D03*
X176860000Y-80073500D03*
X176860000Y-82042000D03*
X176873000Y-78181200D03*
X176873000Y-79108300D03*
X176886000Y-83019900D03*
X177851000Y-81076800D03*
X177864000Y-80073500D03*
X177864000Y-82042000D03*
X177876000Y-78181200D03*
X177876000Y-79108300D03*
X177889000Y-83019900D03*
D11*
X139863200Y-72187200D03*
X152590000Y-113538000D03*
X153035000Y-114427000D03*
X153098000Y-112712000D03*
X153606000Y-113538000D03*
X154051000Y-112712000D03*
X154178000Y-114427000D03*
X154622000Y-113538000D03*
X181470000Y-75692000D03*
X182499000Y-75692000D03*
X183578000Y-75692000D03*
X185509000Y-87604600D03*
X186271000Y-87223600D03*
X186271000Y-88112600D03*
X187033000Y-87604600D03*
X187439000Y-64490600D03*
X188011000Y-82842100D03*
X188773000Y-82461100D03*
X188773000Y-83350100D03*
X188925000Y-61683900D03*
X188925000Y-63068200D03*
X188951000Y-60388500D03*
X189535000Y-82842100D03*
X190500000Y-64465200D03*
X191516000Y-113030000D03*
X191960000Y-113919000D03*
X192024000Y-112204000D03*
X192532000Y-113030000D03*
X192976000Y-112204000D03*
X193104000Y-113919000D03*
X193396000Y-101829000D03*
X193396000Y-102845000D03*
X193396000Y-103861000D03*
X193396000Y-104877000D03*
X193548000Y-113030000D03*
X194412000Y-101829000D03*
X194412000Y-102845000D03*
X194412000Y-103861000D03*
X194412000Y-104877000D03*
X195453000Y-101854000D03*
X195453000Y-102870000D03*
X195453000Y-103886000D03*
X195453000Y-104902000D03*
X196469000Y-101854000D03*
X196469000Y-102870000D03*
X196469000Y-103886000D03*
X196469000Y-104902000D03*
D12*
%TO.C,C19*%
X185224000Y-94117200D03*
X190224000Y-94117200D03*
%TO.C,C20*%
X174260000Y-94071400D03*
X179260000Y-94071400D03*
%TO.C,U4*%
X155113000Y-77013000D03*
X155113000Y-79553000D03*
X162733000Y-77013000D03*
X162733000Y-79553000D03*
%TO.C,C1*%
X192434000Y-70319900D03*
X197434000Y-70319900D03*
%TO.C,C12*%
X163388000Y-94549000D03*
X165888000Y-94549000D03*
%TO.C,U6*%
X91440000Y-107188000D03*
X91440000Y-114808000D03*
X93980000Y-107188000D03*
X93980000Y-114808000D03*
%TO.C,BAT1*%
X160835000Y-62405300D03*
X163375000Y-62405300D03*
%TO.C,U5*%
X84074000Y-87884000D03*
X84074000Y-95504000D03*
X86614000Y-87884000D03*
X86614000Y-95504000D03*
%TO.C,C10*%
X176911000Y-70243700D03*
X181911000Y-70243700D03*
%TO.C,BAT1*%
X158295000Y-62405300D03*
D13*
%TO.C,J6*%
X86106000Y-70612000D03*
X86106000Y-73152000D03*
%TO.C,J5*%
X159258000Y-119380000D03*
X161798000Y-119380000D03*
X164338000Y-119380000D03*
X166878000Y-119380000D03*
X169418000Y-119380000D03*
%TO.C,J8*%
X144907000Y-60642500D03*
X147447000Y-60642500D03*
X149987000Y-60642500D03*
%TO.C,K4*%
X113982000Y-92202000D03*
X113982000Y-94742000D03*
X113982000Y-104902000D03*
X121602000Y-92202000D03*
X121602000Y-94742000D03*
X121602000Y-104902000D03*
%TO.C,J3*%
X206769000Y-72504300D03*
X206769000Y-75044300D03*
%TO.C,J2*%
X110934000Y-60642500D03*
X113474000Y-60642500D03*
X116014000Y-60642500D03*
X118554000Y-60642500D03*
%TO.C,J8*%
X142367000Y-60642500D03*
%TO.C,J2*%
X121094000Y-60642500D03*
X123634000Y-60642500D03*
X126174000Y-60642500D03*
X128714000Y-60642500D03*
%TO.C,J4*%
X146774000Y-119304000D03*
X149314000Y-119304000D03*
%TO.C,J2*%
X131254000Y-60642500D03*
X133794000Y-60642500D03*
%TO.C,J4*%
X141694000Y-119304000D03*
X144234000Y-119304000D03*
%TO.C,K3*%
X127889000Y-69088000D03*
X127889000Y-71628000D03*
X127889000Y-81788000D03*
X135509000Y-69088000D03*
X135509000Y-71628000D03*
X135509000Y-81788000D03*
%TO.C,K5*%
X100012000Y-92202000D03*
X100012000Y-94742000D03*
X100012000Y-104902000D03*
X107632000Y-92202000D03*
X107632000Y-94742000D03*
X107632000Y-104902000D03*
%TO.C,K1*%
X100140000Y-68897500D03*
X100140000Y-71437500D03*
X100140000Y-81597500D03*
%TO.C,J1*%
X172439000Y-61440100D03*
%TO.C,K1*%
X107760000Y-81597500D03*
%TO.C,K2*%
X113792000Y-68961000D03*
X113792000Y-71501000D03*
X113792000Y-81661000D03*
X121412000Y-68961000D03*
X121412000Y-71501000D03*
X121412000Y-81661000D03*
%TO.C,K1*%
X107760000Y-68897500D03*
X107760000Y-71437500D03*
%TO.C,J7*%
X93472000Y-60452000D03*
X96012000Y-60452000D03*
D14*
%TO.C,L1*%
X202601000Y-87411600D03*
X202601000Y-92411600D03*
D15*
%TO.C,J1*%
X174979000Y-61440100D03*
X177519000Y-61440100D03*
D16*
%TO.C,H1*%
X205707000Y-61247000D03*
%TO.C,H3*%
X83855000Y-119039000D03*
%TO.C,H2*%
X205707000Y-119039000D03*
%TO.C,H4*%
X83855000Y-61247000D03*
M02*
