%TF.GenerationSoftware,KiCad,Pcbnew,(5.1.4-0-10_14)*%
%TF.CreationDate,2019-11-24T22:14:09+02:00*%
%TF.ProjectId,READY,52454144-592e-46b6-9963-61645f706362,3.0*%
%TF.SameCoordinates,Original*%
%TF.FileFunction,Legend,Top*%
%TF.FilePolarity,Positive*%
%FSLAX46Y46*%
G04 Gerber Fmt 4.6, Leading zero omitted, Abs format (unit mm)*
G04 Created by KiCad (PCBNEW (5.1.4-0-10_14)) date 2019-11-24 22:14:09*
%MOMM*%
%LPD*%
G04 APERTURE LIST*
%ADD10C,0.200000*%
%ADD11C,0.250000*%
%ADD12C,0.400000*%
%ADD13C,0.120000*%
%ADD14C,0.150000*%
G04 APERTURE END LIST*
D10*
X110293071Y-63825380D02*
X109721642Y-63825380D01*
X110007357Y-63825380D02*
X110007357Y-62825380D01*
X109912119Y-62968238D01*
X109816880Y-63063476D01*
X109721642Y-63111095D01*
X110674023Y-63539666D02*
X111150214Y-63539666D01*
X110578785Y-63825380D02*
X110912119Y-62825380D01*
X111245452Y-63825380D01*
X112864499Y-63825380D02*
X112293071Y-63825380D01*
X112578785Y-63825380D02*
X112578785Y-62825380D01*
X112483547Y-62968238D01*
X112388309Y-63063476D01*
X112293071Y-63111095D01*
X113626404Y-63301571D02*
X113769261Y-63349190D01*
X113816880Y-63396809D01*
X113864499Y-63492047D01*
X113864499Y-63634904D01*
X113816880Y-63730142D01*
X113769261Y-63777761D01*
X113674023Y-63825380D01*
X113293071Y-63825380D01*
X113293071Y-62825380D01*
X113626404Y-62825380D01*
X113721642Y-62873000D01*
X113769261Y-62920619D01*
X113816880Y-63015857D01*
X113816880Y-63111095D01*
X113769261Y-63206333D01*
X113721642Y-63253952D01*
X113626404Y-63301571D01*
X113293071Y-63301571D01*
X115007357Y-62920619D02*
X115054976Y-62873000D01*
X115150214Y-62825380D01*
X115388309Y-62825380D01*
X115483547Y-62873000D01*
X115531166Y-62920619D01*
X115578785Y-63015857D01*
X115578785Y-63111095D01*
X115531166Y-63253952D01*
X114959738Y-63825380D01*
X115578785Y-63825380D01*
X115959738Y-63539666D02*
X116435928Y-63539666D01*
X115864499Y-63825380D02*
X116197833Y-62825380D01*
X116531166Y-63825380D01*
X117578785Y-62920619D02*
X117626404Y-62873000D01*
X117721642Y-62825380D01*
X117959738Y-62825380D01*
X118054976Y-62873000D01*
X118102595Y-62920619D01*
X118150214Y-63015857D01*
X118150214Y-63111095D01*
X118102595Y-63253952D01*
X117531166Y-63825380D01*
X118150214Y-63825380D01*
X118912119Y-63301571D02*
X119054976Y-63349190D01*
X119102595Y-63396809D01*
X119150214Y-63492047D01*
X119150214Y-63634904D01*
X119102595Y-63730142D01*
X119054976Y-63777761D01*
X118959738Y-63825380D01*
X118578785Y-63825380D01*
X118578785Y-62825380D01*
X118912119Y-62825380D01*
X119007357Y-62873000D01*
X119054976Y-62920619D01*
X119102595Y-63015857D01*
X119102595Y-63111095D01*
X119054976Y-63206333D01*
X119007357Y-63253952D01*
X118912119Y-63301571D01*
X118578785Y-63301571D01*
X120245452Y-62825380D02*
X120864499Y-62825380D01*
X120531166Y-63206333D01*
X120674023Y-63206333D01*
X120769261Y-63253952D01*
X120816880Y-63301571D01*
X120864499Y-63396809D01*
X120864499Y-63634904D01*
X120816880Y-63730142D01*
X120769261Y-63777761D01*
X120674023Y-63825380D01*
X120388309Y-63825380D01*
X120293071Y-63777761D01*
X120245452Y-63730142D01*
X121245452Y-63539666D02*
X121721642Y-63539666D01*
X121150214Y-63825380D02*
X121483547Y-62825380D01*
X121816880Y-63825380D01*
X122816880Y-62825380D02*
X123435928Y-62825380D01*
X123102595Y-63206333D01*
X123245452Y-63206333D01*
X123340690Y-63253952D01*
X123388309Y-63301571D01*
X123435928Y-63396809D01*
X123435928Y-63634904D01*
X123388309Y-63730142D01*
X123340690Y-63777761D01*
X123245452Y-63825380D01*
X122959738Y-63825380D01*
X122864499Y-63777761D01*
X122816880Y-63730142D01*
X124197833Y-63301571D02*
X124340690Y-63349190D01*
X124388309Y-63396809D01*
X124435928Y-63492047D01*
X124435928Y-63634904D01*
X124388309Y-63730142D01*
X124340690Y-63777761D01*
X124245452Y-63825380D01*
X123864499Y-63825380D01*
X123864499Y-62825380D01*
X124197833Y-62825380D01*
X124293071Y-62873000D01*
X124340690Y-62920619D01*
X124388309Y-63015857D01*
X124388309Y-63111095D01*
X124340690Y-63206333D01*
X124293071Y-63253952D01*
X124197833Y-63301571D01*
X123864499Y-63301571D01*
X126054976Y-63158714D02*
X126054976Y-63825380D01*
X125816880Y-62777761D02*
X125578785Y-63492047D01*
X126197833Y-63492047D01*
X126531166Y-63539666D02*
X127007357Y-63539666D01*
X126435928Y-63825380D02*
X126769261Y-62825380D01*
X127102595Y-63825380D01*
X128626404Y-63158714D02*
X128626404Y-63825380D01*
X128388309Y-62777761D02*
X128150214Y-63492047D01*
X128769261Y-63492047D01*
X129483547Y-63301571D02*
X129626404Y-63349190D01*
X129674023Y-63396809D01*
X129721642Y-63492047D01*
X129721642Y-63634904D01*
X129674023Y-63730142D01*
X129626404Y-63777761D01*
X129531166Y-63825380D01*
X129150214Y-63825380D01*
X129150214Y-62825380D01*
X129483547Y-62825380D01*
X129578785Y-62873000D01*
X129626404Y-62920619D01*
X129674023Y-63015857D01*
X129674023Y-63111095D01*
X129626404Y-63206333D01*
X129578785Y-63253952D01*
X129483547Y-63301571D01*
X129150214Y-63301571D01*
X131388309Y-62825380D02*
X130912119Y-62825380D01*
X130864499Y-63301571D01*
X130912119Y-63253952D01*
X131007357Y-63206333D01*
X131245452Y-63206333D01*
X131340690Y-63253952D01*
X131388309Y-63301571D01*
X131435928Y-63396809D01*
X131435928Y-63634904D01*
X131388309Y-63730142D01*
X131340690Y-63777761D01*
X131245452Y-63825380D01*
X131007357Y-63825380D01*
X130912119Y-63777761D01*
X130864499Y-63730142D01*
X131816880Y-63539666D02*
X132293071Y-63539666D01*
X131721642Y-63825380D02*
X132054976Y-62825380D01*
X132388309Y-63825380D01*
X133959738Y-62825380D02*
X133483547Y-62825380D01*
X133435928Y-63301571D01*
X133483547Y-63253952D01*
X133578785Y-63206333D01*
X133816880Y-63206333D01*
X133912119Y-63253952D01*
X133959738Y-63301571D01*
X134007357Y-63396809D01*
X134007357Y-63634904D01*
X133959738Y-63730142D01*
X133912119Y-63777761D01*
X133816880Y-63825380D01*
X133578785Y-63825380D01*
X133483547Y-63777761D01*
X133435928Y-63730142D01*
X134769261Y-63301571D02*
X134912119Y-63349190D01*
X134959738Y-63396809D01*
X135007357Y-63492047D01*
X135007357Y-63634904D01*
X134959738Y-63730142D01*
X134912119Y-63777761D01*
X134816880Y-63825380D01*
X134435928Y-63825380D01*
X134435928Y-62825380D01*
X134769261Y-62825380D01*
X134864500Y-62873000D01*
X134912119Y-62920619D01*
X134959738Y-63015857D01*
X134959738Y-63111095D01*
X134912119Y-63206333D01*
X134864500Y-63253952D01*
X134769261Y-63301571D01*
X134435928Y-63301571D01*
D11*
X158163000Y-58778785D02*
X158334428Y-58835928D01*
X158391571Y-58893071D01*
X158448714Y-59007357D01*
X158448714Y-59178785D01*
X158391571Y-59293071D01*
X158334428Y-59350214D01*
X158220142Y-59407357D01*
X157763000Y-59407357D01*
X157763000Y-58207357D01*
X158163000Y-58207357D01*
X158277285Y-58264500D01*
X158334428Y-58321642D01*
X158391571Y-58435928D01*
X158391571Y-58550214D01*
X158334428Y-58664500D01*
X158277285Y-58721642D01*
X158163000Y-58778785D01*
X157763000Y-58778785D01*
X158905857Y-59064500D02*
X159477285Y-59064500D01*
X158791571Y-59407357D02*
X159191571Y-58207357D01*
X159591571Y-59407357D01*
X159820142Y-58207357D02*
X160505857Y-58207357D01*
X160163000Y-59407357D02*
X160163000Y-58207357D01*
X160734428Y-58207357D02*
X161420142Y-58207357D01*
X161077285Y-59407357D02*
X161077285Y-58207357D01*
X161820142Y-58778785D02*
X162220142Y-58778785D01*
X162391571Y-59407357D02*
X161820142Y-59407357D01*
X161820142Y-58207357D01*
X162391571Y-58207357D01*
X163591571Y-59407357D02*
X163191571Y-58835928D01*
X162905857Y-59407357D02*
X162905857Y-58207357D01*
X163363000Y-58207357D01*
X163477285Y-58264500D01*
X163534428Y-58321642D01*
X163591571Y-58435928D01*
X163591571Y-58607357D01*
X163534428Y-58721642D01*
X163477285Y-58778785D01*
X163363000Y-58835928D01*
X162905857Y-58835928D01*
X164334428Y-58835928D02*
X164334428Y-59407357D01*
X163934428Y-58207357D02*
X164334428Y-58835928D01*
X164734428Y-58207357D01*
X141129357Y-63788857D02*
X140729357Y-63217428D01*
X140443642Y-63788857D02*
X140443642Y-62588857D01*
X140900785Y-62588857D01*
X141015071Y-62646000D01*
X141072214Y-62703142D01*
X141129357Y-62817428D01*
X141129357Y-62988857D01*
X141072214Y-63103142D01*
X141015071Y-63160285D01*
X140900785Y-63217428D01*
X140443642Y-63217428D01*
X142615071Y-63788857D02*
X142843642Y-63788857D01*
X142957928Y-63731714D01*
X143015071Y-63674571D01*
X143129357Y-63503142D01*
X143186500Y-63274571D01*
X143186500Y-62817428D01*
X143129357Y-62703142D01*
X143072214Y-62646000D01*
X142957928Y-62588857D01*
X142729357Y-62588857D01*
X142615071Y-62646000D01*
X142557928Y-62703142D01*
X142500785Y-62817428D01*
X142500785Y-63103142D01*
X142557928Y-63217428D01*
X142615071Y-63274571D01*
X142729357Y-63331714D01*
X142957928Y-63331714D01*
X143072214Y-63274571D01*
X143129357Y-63217428D01*
X143186500Y-63103142D01*
X143529357Y-62588857D02*
X143929357Y-63788857D01*
X144329357Y-62588857D01*
X146272214Y-62646000D02*
X146157928Y-62588857D01*
X145986500Y-62588857D01*
X145815071Y-62646000D01*
X145700785Y-62760285D01*
X145643642Y-62874571D01*
X145586500Y-63103142D01*
X145586500Y-63274571D01*
X145643642Y-63503142D01*
X145700785Y-63617428D01*
X145815071Y-63731714D01*
X145986500Y-63788857D01*
X146100785Y-63788857D01*
X146272214Y-63731714D01*
X146329357Y-63674571D01*
X146329357Y-63274571D01*
X146100785Y-63274571D01*
X147757928Y-63160285D02*
X148157928Y-63160285D01*
X148329357Y-63788857D02*
X147757928Y-63788857D01*
X147757928Y-62588857D01*
X148329357Y-62588857D01*
X148729357Y-62588857D02*
X149529357Y-63788857D01*
X149529357Y-62588857D02*
X148729357Y-63788857D01*
X149700785Y-63903142D02*
X150615071Y-63903142D01*
X151529357Y-62646000D02*
X151415071Y-62588857D01*
X151243642Y-62588857D01*
X151072214Y-62646000D01*
X150957928Y-62760285D01*
X150900785Y-62874571D01*
X150843642Y-63103142D01*
X150843642Y-63274571D01*
X150900785Y-63503142D01*
X150957928Y-63617428D01*
X151072214Y-63731714D01*
X151243642Y-63788857D01*
X151357928Y-63788857D01*
X151529357Y-63731714D01*
X151586500Y-63674571D01*
X151586500Y-63274571D01*
X151357928Y-63274571D01*
X132249871Y-120089300D02*
X132297490Y-119946442D01*
X132345109Y-119898823D01*
X132440347Y-119851204D01*
X132583204Y-119851204D01*
X132678442Y-119898823D01*
X132726061Y-119946442D01*
X132773680Y-120041680D01*
X132773680Y-120422633D01*
X131773680Y-120422633D01*
X131773680Y-120089300D01*
X131821300Y-119994061D01*
X131868919Y-119946442D01*
X131964157Y-119898823D01*
X132059395Y-119898823D01*
X132154633Y-119946442D01*
X132202252Y-119994061D01*
X132249871Y-120089300D01*
X132249871Y-120422633D01*
X132487966Y-119470252D02*
X132487966Y-118994061D01*
X132773680Y-119565490D02*
X131773680Y-119232157D01*
X132773680Y-118898823D01*
X131773680Y-118708347D02*
X131773680Y-118136919D01*
X132773680Y-118422633D02*
X131773680Y-118422633D01*
X131773680Y-117946442D02*
X131773680Y-117375014D01*
X132773680Y-117660728D02*
X131773680Y-117660728D01*
X132249871Y-117041680D02*
X132249871Y-116708347D01*
X132773680Y-116565490D02*
X132773680Y-117041680D01*
X131773680Y-117041680D01*
X131773680Y-116565490D01*
X132773680Y-115565490D02*
X132297490Y-115898823D01*
X132773680Y-116136919D02*
X131773680Y-116136919D01*
X131773680Y-115755966D01*
X131821300Y-115660728D01*
X131868919Y-115613109D01*
X131964157Y-115565490D01*
X132107014Y-115565490D01*
X132202252Y-115613109D01*
X132249871Y-115660728D01*
X132297490Y-115755966D01*
X132297490Y-116136919D01*
X132297490Y-114946442D02*
X132773680Y-114946442D01*
X131773680Y-115279776D02*
X132297490Y-114946442D01*
X131773680Y-114613109D01*
X124375871Y-119344842D02*
X124423490Y-119201985D01*
X124471109Y-119154366D01*
X124566347Y-119106747D01*
X124709204Y-119106747D01*
X124804442Y-119154366D01*
X124852061Y-119201985D01*
X124899680Y-119297223D01*
X124899680Y-119678176D01*
X123899680Y-119678176D01*
X123899680Y-119344842D01*
X123947300Y-119249604D01*
X123994919Y-119201985D01*
X124090157Y-119154366D01*
X124185395Y-119154366D01*
X124280633Y-119201985D01*
X124328252Y-119249604D01*
X124375871Y-119344842D01*
X124375871Y-119678176D01*
X124899680Y-118201985D02*
X124899680Y-118678176D01*
X123899680Y-118678176D01*
X123899680Y-117678176D02*
X123899680Y-117487700D01*
X123947300Y-117392461D01*
X124042538Y-117297223D01*
X124233014Y-117249604D01*
X124566347Y-117249604D01*
X124756823Y-117297223D01*
X124852061Y-117392461D01*
X124899680Y-117487700D01*
X124899680Y-117678176D01*
X124852061Y-117773414D01*
X124756823Y-117868652D01*
X124566347Y-117916271D01*
X124233014Y-117916271D01*
X124042538Y-117868652D01*
X123947300Y-117773414D01*
X123899680Y-117678176D01*
X124804442Y-116249604D02*
X124852061Y-116297223D01*
X124899680Y-116440080D01*
X124899680Y-116535319D01*
X124852061Y-116678176D01*
X124756823Y-116773414D01*
X124661585Y-116821033D01*
X124471109Y-116868652D01*
X124328252Y-116868652D01*
X124137776Y-116821033D01*
X124042538Y-116773414D01*
X123947300Y-116678176D01*
X123899680Y-116535319D01*
X123899680Y-116440080D01*
X123947300Y-116297223D01*
X123994919Y-116249604D01*
X124899680Y-115821033D02*
X123899680Y-115821033D01*
X124899680Y-115249604D02*
X124328252Y-115678176D01*
X123899680Y-115249604D02*
X124471109Y-115821033D01*
D12*
X123240800Y-112966500D02*
X123240800Y-121869200D01*
X125526800Y-112915700D02*
X125526800Y-121869200D01*
X138925300Y-121932700D02*
X138925300Y-113017300D01*
X133337300Y-121932700D02*
X133388100Y-113017300D01*
X131559300Y-113017300D02*
X131559300Y-121932700D01*
X138925300Y-113017300D02*
X123240800Y-112966500D01*
X123240800Y-121869200D02*
X138925300Y-121932700D01*
D13*
%TO.C,J1*%
X171109000Y-60000100D02*
X178849000Y-60000100D01*
X178849000Y-60000100D02*
X178849000Y-57340100D01*
X178849000Y-57340100D02*
X171109000Y-57340100D01*
X171109000Y-57340100D02*
X171109000Y-60000100D01*
X172059000Y-57340100D02*
X172059000Y-51340100D01*
X172059000Y-51340100D02*
X172819000Y-51340100D01*
X172819000Y-51340100D02*
X172819000Y-57340100D01*
X172119000Y-57340100D02*
X172119000Y-51340100D01*
X172239000Y-57340100D02*
X172239000Y-51340100D01*
X172359000Y-57340100D02*
X172359000Y-51340100D01*
X172479000Y-57340100D02*
X172479000Y-51340100D01*
X172599000Y-57340100D02*
X172599000Y-51340100D01*
X172719000Y-57340100D02*
X172719000Y-51340100D01*
X172059000Y-60330100D02*
X172059000Y-60000100D01*
X172819000Y-60330100D02*
X172819000Y-60000100D01*
X173709000Y-60000100D02*
X173709000Y-57340100D01*
X174599000Y-57340100D02*
X174599000Y-51340100D01*
X174599000Y-51340100D02*
X175359000Y-51340100D01*
X175359000Y-51340100D02*
X175359000Y-57340100D01*
X174599000Y-60397171D02*
X174599000Y-60000100D01*
X175359000Y-60397171D02*
X175359000Y-60000100D01*
X176249000Y-60000100D02*
X176249000Y-57340100D01*
X177139000Y-57340100D02*
X177139000Y-51340100D01*
X177139000Y-51340100D02*
X177899000Y-51340100D01*
X177899000Y-51340100D02*
X177899000Y-57340100D01*
X177139000Y-60397171D02*
X177139000Y-60000100D01*
X177899000Y-60397171D02*
X177899000Y-60000100D01*
X172439000Y-62710100D02*
X171169000Y-62710100D01*
X171169000Y-62710100D02*
X171169000Y-61440100D01*
%TO.C,BAT1*%
X155950000Y-59875300D02*
X165720000Y-59875300D01*
X155950000Y-64945300D02*
X165720000Y-64945300D01*
X155950000Y-59875300D02*
X155950000Y-64945300D01*
X165720000Y-59875300D02*
X165720000Y-64945300D01*
%TO.C,C3*%
X158352000Y-68004936D02*
X158352000Y-69209064D01*
X156532000Y-68004936D02*
X156532000Y-69209064D01*
%TO.C,C5*%
X164372000Y-109849064D02*
X164372000Y-108644936D01*
X162552000Y-109849064D02*
X162552000Y-108644936D01*
%TO.C,C7*%
X205694936Y-100106000D02*
X206899064Y-100106000D01*
X205694936Y-101926000D02*
X206899064Y-101926000D01*
%TO.C,C8*%
X206888064Y-103852000D02*
X205683936Y-103852000D01*
X206888064Y-105672000D02*
X205683936Y-105672000D01*
%TO.C,C9*%
X190026000Y-101656936D02*
X190026000Y-102861064D01*
X188206000Y-101656936D02*
X188206000Y-102861064D01*
%TO.C,D5*%
X165984000Y-107695000D02*
X165984000Y-111755000D01*
X165984000Y-111755000D02*
X168254000Y-111755000D01*
X168254000Y-111755000D02*
X168254000Y-107695000D01*
%TO.C,D9*%
X180571000Y-59622800D02*
X180571000Y-63922800D01*
X180571000Y-63922800D02*
X186271000Y-63922800D01*
X180571000Y-59622800D02*
X186271000Y-59622800D01*
%TO.C,D10*%
X162235000Y-70167300D02*
X162235000Y-66107300D01*
X162235000Y-66107300D02*
X159965000Y-66107300D01*
X159965000Y-66107300D02*
X159965000Y-70167300D01*
%TO.C,D11*%
X183658000Y-107914000D02*
X183658000Y-112214000D01*
X183658000Y-112214000D02*
X185658000Y-112214000D01*
X185658000Y-112214000D02*
X185658000Y-107914000D01*
%TO.C,D17*%
X138690000Y-117803000D02*
X134630000Y-117803000D01*
X138690000Y-120073000D02*
X138690000Y-117803000D01*
X134630000Y-120073000D02*
X138690000Y-120073000D01*
%TO.C,Q9*%
X174217000Y-115691000D02*
X174217000Y-114491000D01*
X174217000Y-114491000D02*
X176917000Y-114491000D01*
X178217000Y-119291000D02*
X174217000Y-119291000D01*
X174217000Y-119291000D02*
X174217000Y-118091000D01*
%TO.C,R4*%
X169289252Y-63704400D02*
X168766748Y-63704400D01*
X169289252Y-65124400D02*
X168766748Y-65124400D01*
%TO.C,U1*%
X198002000Y-106797000D02*
X199502000Y-106797000D01*
X199502000Y-106797000D02*
X199502000Y-106527000D01*
X199502000Y-106527000D02*
X202332000Y-106527000D01*
X198002000Y-99897000D02*
X199502000Y-99897000D01*
X199502000Y-99897000D02*
X199502000Y-100167000D01*
X199502000Y-100167000D02*
X200602000Y-100167000D01*
D14*
%TO.C,U2*%
X141214000Y-103586000D02*
X136764000Y-103586000D01*
X142739000Y-110486000D02*
X136764000Y-110486000D01*
D13*
%TO.C,C4*%
X136314000Y-97922936D02*
X136314000Y-99127064D01*
X138134000Y-97922936D02*
X138134000Y-99127064D01*
%TO.C,C11*%
X130950064Y-109003000D02*
X129745936Y-109003000D01*
X130950064Y-110823000D02*
X129745936Y-110823000D01*
%TO.C,C13*%
X167449000Y-97359800D02*
X167449000Y-95659800D01*
X167449000Y-91839800D02*
X167449000Y-93539800D01*
X162993437Y-91839800D02*
X167449000Y-91839800D01*
X162993437Y-97359800D02*
X167449000Y-97359800D01*
X161929000Y-96295363D02*
X161929000Y-95659800D01*
X161929000Y-92904237D02*
X161929000Y-93539800D01*
X161929000Y-92904237D02*
X162993437Y-91839800D01*
X161929000Y-96295363D02*
X162993437Y-97359800D01*
%TO.C,C14*%
X139870000Y-99154064D02*
X139870000Y-97949936D01*
X141690000Y-99154064D02*
X141690000Y-97949936D01*
%TO.C,C15*%
X129757936Y-107204000D02*
X130962064Y-107204000D01*
X129757936Y-105384000D02*
X130962064Y-105384000D01*
%TO.C,D20*%
X190261000Y-59673600D02*
X190261000Y-63973600D01*
X190261000Y-63973600D02*
X195961000Y-63973600D01*
X190261000Y-59673600D02*
X195961000Y-59673600D01*
%TO.C,C2*%
X184548000Y-102861064D02*
X184548000Y-101656936D01*
X186368000Y-102861064D02*
X186368000Y-101656936D01*
%TO.C,R25*%
X200986936Y-108716000D02*
X202191064Y-108716000D01*
X200986936Y-110536000D02*
X202191064Y-110536000D01*
%TO.C,R29*%
X193402936Y-110536000D02*
X194607064Y-110536000D01*
X193402936Y-108716000D02*
X194607064Y-108716000D01*
%TO.C,R57*%
X200148000Y-117825064D02*
X200148000Y-116620936D01*
X198328000Y-117825064D02*
X198328000Y-116620936D01*
%TO.C,R58*%
X196503000Y-116594936D02*
X196503000Y-117799064D01*
X194683000Y-116594936D02*
X194683000Y-117799064D01*
%TO.C,R59*%
X185949000Y-117532064D02*
X185949000Y-116327936D01*
X184129000Y-117532064D02*
X184129000Y-116327936D01*
%TO.C,R60*%
X182088000Y-116273936D02*
X182088000Y-117478064D01*
X180268000Y-116273936D02*
X180268000Y-117478064D01*
%TO.C,R9*%
X157285000Y-108615936D02*
X157285000Y-109820064D01*
X155465000Y-108615936D02*
X155465000Y-109820064D01*
%TO.C,R12*%
X158996000Y-108615936D02*
X158996000Y-109820064D01*
X160816000Y-108615936D02*
X160816000Y-109820064D01*
%TO.C,R44*%
X135593936Y-113885000D02*
X136798064Y-113885000D01*
X135593936Y-115705000D02*
X136798064Y-115705000D01*
%TO.C,R8*%
X163872000Y-69028064D02*
X163872000Y-67823936D01*
X165692000Y-69028064D02*
X165692000Y-67823936D01*
%TO.C,R14*%
X152798000Y-68052536D02*
X152798000Y-69256664D01*
X154618000Y-68052536D02*
X154618000Y-69256664D01*
%TO.C,R21*%
X179890064Y-102446000D02*
X178685936Y-102446000D01*
X179890064Y-100626000D02*
X178685936Y-100626000D01*
%TO.C,R22*%
X175027000Y-106610064D02*
X175027000Y-105405936D01*
X173207000Y-106610064D02*
X173207000Y-105405936D01*
%TO.C,R23*%
X187304000Y-109976064D02*
X187304000Y-108771936D01*
X189124000Y-109976064D02*
X189124000Y-108771936D01*
%TO.C,R24*%
X180026064Y-108818000D02*
X178821936Y-108818000D01*
X180026064Y-110638000D02*
X178821936Y-110638000D01*
%TO.C,C16*%
X179862936Y-85919900D02*
X181067064Y-85919900D01*
X179862936Y-87739900D02*
X181067064Y-87739900D01*
%TO.C,C17*%
X189730000Y-78898336D02*
X189730000Y-80102464D01*
X191550000Y-78898336D02*
X191550000Y-80102464D01*
%TO.C,C18*%
X191546064Y-88489200D02*
X190341936Y-88489200D01*
X191546064Y-86669200D02*
X190341936Y-86669200D01*
%TO.C,D6*%
X178757000Y-84120400D02*
X180257000Y-84120400D01*
X180257000Y-84120400D02*
X180257000Y-83650400D01*
X180257000Y-83650400D02*
X183087000Y-83650400D01*
X178757000Y-77220400D02*
X180257000Y-77220400D01*
X180257000Y-77220400D02*
X180257000Y-77690400D01*
X180257000Y-77690400D02*
X181357000Y-77690400D01*
%TO.C,D12*%
X200358000Y-77352000D02*
X200358000Y-81652000D01*
X200358000Y-81652000D02*
X206058000Y-81652000D01*
X200358000Y-77352000D02*
X206058000Y-77352000D01*
%TO.C,L2*%
X199235000Y-96307400D02*
X196235000Y-96307400D01*
X196235000Y-96307400D02*
X196235000Y-83707400D01*
X196235000Y-83707400D02*
X199235000Y-83707400D01*
X205835000Y-83707400D02*
X208835000Y-83707400D01*
X208835000Y-83707400D02*
X208835000Y-96307400D01*
X208835000Y-96307400D02*
X205835000Y-96307400D01*
%TO.C,R17*%
X204680936Y-67339800D02*
X205885064Y-67339800D01*
X204680936Y-69159800D02*
X205885064Y-69159800D01*
%TO.C,R27*%
X185869000Y-78949136D02*
X185869000Y-80153264D01*
X187689000Y-78949136D02*
X187689000Y-80153264D01*
%TO.C,R28*%
X193273000Y-80089764D02*
X193273000Y-78885636D01*
X195093000Y-80089764D02*
X195093000Y-78885636D01*
%TO.C,R32*%
X196867000Y-78888836D02*
X196867000Y-80092964D01*
X198687000Y-78888836D02*
X198687000Y-80092964D01*
%TO.C,J3*%
X208209000Y-71174300D02*
X208209000Y-76374300D01*
X208209000Y-76374300D02*
X210869000Y-76374300D01*
X210869000Y-76374300D02*
X210869000Y-71174300D01*
X210869000Y-71174300D02*
X208209000Y-71174300D01*
X210869000Y-72124300D02*
X216869000Y-72124300D01*
X216869000Y-72124300D02*
X216869000Y-72884300D01*
X216869000Y-72884300D02*
X210869000Y-72884300D01*
X210869000Y-72184300D02*
X216869000Y-72184300D01*
X210869000Y-72304300D02*
X216869000Y-72304300D01*
X210869000Y-72424300D02*
X216869000Y-72424300D01*
X210869000Y-72544300D02*
X216869000Y-72544300D01*
X210869000Y-72664300D02*
X216869000Y-72664300D01*
X210869000Y-72784300D02*
X216869000Y-72784300D01*
X207879000Y-72124300D02*
X208209000Y-72124300D01*
X207879000Y-72884300D02*
X208209000Y-72884300D01*
X208209000Y-73774300D02*
X210869000Y-73774300D01*
X210869000Y-74664300D02*
X216869000Y-74664300D01*
X216869000Y-74664300D02*
X216869000Y-75424300D01*
X216869000Y-75424300D02*
X210869000Y-75424300D01*
X207811929Y-74664300D02*
X208209000Y-74664300D01*
X207811929Y-75424300D02*
X208209000Y-75424300D01*
X205499000Y-72504300D02*
X205499000Y-71234300D01*
X205499000Y-71234300D02*
X206769000Y-71234300D01*
%TO.C,C23*%
X189545000Y-65072600D02*
X189545000Y-69022600D01*
X189545000Y-75592600D02*
X189545000Y-71642600D01*
X199000563Y-75592600D02*
X189545000Y-75592600D01*
X199000563Y-65072600D02*
X189545000Y-65072600D01*
X200065000Y-66137037D02*
X200065000Y-69022600D01*
X200065000Y-74528163D02*
X200065000Y-71642600D01*
X200065000Y-74528163D02*
X199000563Y-75592600D01*
X200065000Y-66137037D02*
X199000563Y-65072600D01*
%TO.C,C24*%
X170810000Y-90075600D02*
X170810000Y-93025600D01*
X170810000Y-98595600D02*
X170810000Y-95645600D01*
X178265563Y-98595600D02*
X170810000Y-98595600D01*
X178265563Y-90075600D02*
X170810000Y-90075600D01*
X179330000Y-91140037D02*
X179330000Y-93025600D01*
X179330000Y-97531163D02*
X179330000Y-95645600D01*
X179330000Y-97531163D02*
X178265563Y-98595600D01*
X179330000Y-91140037D02*
X178265563Y-90075600D01*
%TO.C,C25*%
X185110000Y-97505763D02*
X186174437Y-98570200D01*
X185110000Y-91114637D02*
X186174437Y-90050200D01*
X185110000Y-91114637D02*
X185110000Y-93000200D01*
X185110000Y-97505763D02*
X185110000Y-95620200D01*
X186174437Y-98570200D02*
X193630000Y-98570200D01*
X186174437Y-90050200D02*
X193630000Y-90050200D01*
X193630000Y-90050200D02*
X193630000Y-93000200D01*
X193630000Y-98570200D02*
X193630000Y-95620200D01*
%TO.C,C26*%
X148241936Y-102000000D02*
X149446064Y-102000000D01*
X148241936Y-103820000D02*
X149446064Y-103820000D01*
%TO.C,J4*%
X140364000Y-117974000D02*
X140364000Y-120634000D01*
X148044000Y-117974000D02*
X140364000Y-117974000D01*
X148044000Y-120634000D02*
X140364000Y-120634000D01*
X148044000Y-117974000D02*
X148044000Y-120634000D01*
X149314000Y-117974000D02*
X150644000Y-117974000D01*
X150644000Y-117974000D02*
X150644000Y-119304000D01*
%TO.C,R61*%
X142804064Y-117064000D02*
X141599936Y-117064000D01*
X142804064Y-115244000D02*
X141599936Y-115244000D01*
%TO.C,R66*%
X149371064Y-115244000D02*
X148166936Y-115244000D01*
X149371064Y-117064000D02*
X148166936Y-117064000D01*
%TO.C,R67*%
X148192936Y-107247000D02*
X149397064Y-107247000D01*
X148192936Y-105427000D02*
X149397064Y-105427000D01*
%TO.C,R68*%
X149433064Y-110803000D02*
X148228936Y-110803000D01*
X149433064Y-108983000D02*
X148228936Y-108983000D01*
%TO.C,C30*%
X184654000Y-75579900D02*
X184654000Y-71629900D01*
X184654000Y-65059900D02*
X184654000Y-69009900D01*
X175198437Y-65059900D02*
X184654000Y-65059900D01*
X175198437Y-75579900D02*
X184654000Y-75579900D01*
X174134000Y-74515463D02*
X174134000Y-71629900D01*
X174134000Y-66124337D02*
X174134000Y-69009900D01*
X174134000Y-66124337D02*
X175198437Y-65059900D01*
X174134000Y-74515463D02*
X175198437Y-75579900D01*
%TO.C,L3*%
X131143252Y-103707000D02*
X130620748Y-103707000D01*
X131143252Y-102287000D02*
X130620748Y-102287000D01*
%TO.C,D15*%
X126621000Y-119766000D02*
X130681000Y-119766000D01*
X130681000Y-119766000D02*
X130681000Y-117496000D01*
X130681000Y-117496000D02*
X126621000Y-117496000D01*
%TO.C,R71*%
X127564936Y-113885000D02*
X128769064Y-113885000D01*
X127564936Y-115705000D02*
X128769064Y-115705000D01*
%TO.C,R3*%
X152824000Y-119310064D02*
X152824000Y-118105936D01*
X154644000Y-119310064D02*
X154644000Y-118105936D01*
%TO.C,Q8*%
X189434000Y-115753000D02*
X190894000Y-115753000D01*
X189434000Y-118913000D02*
X192594000Y-118913000D01*
X189434000Y-118913000D02*
X189434000Y-117983000D01*
X189434000Y-115753000D02*
X189434000Y-116683000D01*
%TO.C,Q2*%
X180084000Y-107117000D02*
X180084000Y-106187000D01*
X180084000Y-103957000D02*
X180084000Y-104887000D01*
X180084000Y-103957000D02*
X176924000Y-103957000D01*
X180084000Y-107117000D02*
X178624000Y-107117000D01*
%TO.C,J5*%
X170748000Y-120820000D02*
X157928000Y-120820000D01*
X157928000Y-120820000D02*
X157928000Y-123480000D01*
X157928000Y-123480000D02*
X170748000Y-123480000D01*
X170748000Y-123480000D02*
X170748000Y-120820000D01*
X169798000Y-123480000D02*
X169798000Y-129480000D01*
X169798000Y-129480000D02*
X169038000Y-129480000D01*
X169038000Y-129480000D02*
X169038000Y-123480000D01*
X169738000Y-123480000D02*
X169738000Y-129480000D01*
X169618000Y-123480000D02*
X169618000Y-129480000D01*
X169498000Y-123480000D02*
X169498000Y-129480000D01*
X169378000Y-123480000D02*
X169378000Y-129480000D01*
X169258000Y-123480000D02*
X169258000Y-129480000D01*
X169138000Y-123480000D02*
X169138000Y-129480000D01*
X169798000Y-120490000D02*
X169798000Y-120820000D01*
X169038000Y-120490000D02*
X169038000Y-120820000D01*
X168148000Y-120820000D02*
X168148000Y-123480000D01*
X167258000Y-123480000D02*
X167258000Y-129480000D01*
X167258000Y-129480000D02*
X166498000Y-129480000D01*
X166498000Y-129480000D02*
X166498000Y-123480000D01*
X167258000Y-120422929D02*
X167258000Y-120820000D01*
X166498000Y-120422929D02*
X166498000Y-120820000D01*
X165608000Y-120820000D02*
X165608000Y-123480000D01*
X164718000Y-123480000D02*
X164718000Y-129480000D01*
X164718000Y-129480000D02*
X163958000Y-129480000D01*
X163958000Y-129480000D02*
X163958000Y-123480000D01*
X164718000Y-120422929D02*
X164718000Y-120820000D01*
X163958000Y-120422929D02*
X163958000Y-120820000D01*
X163068000Y-120820000D02*
X163068000Y-123480000D01*
X162178000Y-123480000D02*
X162178000Y-129480000D01*
X162178000Y-129480000D02*
X161418000Y-129480000D01*
X161418000Y-129480000D02*
X161418000Y-123480000D01*
X162178000Y-120422929D02*
X162178000Y-120820000D01*
X161418000Y-120422929D02*
X161418000Y-120820000D01*
X160528000Y-120820000D02*
X160528000Y-123480000D01*
X159638000Y-123480000D02*
X159638000Y-129480000D01*
X159638000Y-129480000D02*
X158878000Y-129480000D01*
X158878000Y-129480000D02*
X158878000Y-123480000D01*
X159638000Y-120422929D02*
X159638000Y-120820000D01*
X158878000Y-120422929D02*
X158878000Y-120820000D01*
X169418000Y-118110000D02*
X170688000Y-118110000D01*
X170688000Y-118110000D02*
X170688000Y-119380000D01*
%TO.C,C6*%
X142007000Y-91128436D02*
X142007000Y-92332564D01*
X140187000Y-91128436D02*
X140187000Y-92332564D01*
%TO.C,C21*%
X143680000Y-92296064D02*
X143680000Y-91091936D01*
X145500000Y-92296064D02*
X145500000Y-91091936D01*
%TO.C,C22*%
X159342000Y-92904064D02*
X159342000Y-91699936D01*
X157522000Y-92904064D02*
X157522000Y-91699936D01*
%TO.C,U3*%
X153401000Y-95935000D02*
X153401000Y-94675000D01*
X153401000Y-89115000D02*
X153401000Y-90375000D01*
X149641000Y-95935000D02*
X153401000Y-95935000D01*
X147391000Y-89115000D02*
X153401000Y-89115000D01*
%TO.C,J8*%
X141037000Y-59202500D02*
X151317000Y-59202500D01*
X151317000Y-59202500D02*
X151317000Y-56542500D01*
X151317000Y-56542500D02*
X141037000Y-56542500D01*
X141037000Y-56542500D02*
X141037000Y-59202500D01*
X141987000Y-56542500D02*
X141987000Y-50542500D01*
X141987000Y-50542500D02*
X142747000Y-50542500D01*
X142747000Y-50542500D02*
X142747000Y-56542500D01*
X142047000Y-56542500D02*
X142047000Y-50542500D01*
X142167000Y-56542500D02*
X142167000Y-50542500D01*
X142287000Y-56542500D02*
X142287000Y-50542500D01*
X142407000Y-56542500D02*
X142407000Y-50542500D01*
X142527000Y-56542500D02*
X142527000Y-50542500D01*
X142647000Y-56542500D02*
X142647000Y-50542500D01*
X141987000Y-59532500D02*
X141987000Y-59202500D01*
X142747000Y-59532500D02*
X142747000Y-59202500D01*
X143637000Y-59202500D02*
X143637000Y-56542500D01*
X144527000Y-56542500D02*
X144527000Y-50542500D01*
X144527000Y-50542500D02*
X145287000Y-50542500D01*
X145287000Y-50542500D02*
X145287000Y-56542500D01*
X144527000Y-59599571D02*
X144527000Y-59202500D01*
X145287000Y-59599571D02*
X145287000Y-59202500D01*
X146177000Y-59202500D02*
X146177000Y-56542500D01*
X147067000Y-56542500D02*
X147067000Y-50542500D01*
X147067000Y-50542500D02*
X147827000Y-50542500D01*
X147827000Y-50542500D02*
X147827000Y-56542500D01*
X147067000Y-59599571D02*
X147067000Y-59202500D01*
X147827000Y-59599571D02*
X147827000Y-59202500D01*
X148717000Y-59202500D02*
X148717000Y-56542500D01*
X149607000Y-56542500D02*
X149607000Y-50542500D01*
X149607000Y-50542500D02*
X150367000Y-50542500D01*
X150367000Y-50542500D02*
X150367000Y-56542500D01*
X149607000Y-59599571D02*
X149607000Y-59202500D01*
X150367000Y-59599571D02*
X150367000Y-59202500D01*
X142367000Y-61912500D02*
X141097000Y-61912500D01*
X141097000Y-61912500D02*
X141097000Y-60642500D01*
%TO.C,R1*%
X145817000Y-65918936D02*
X145817000Y-67123064D01*
X143997000Y-65918936D02*
X143997000Y-67123064D01*
%TO.C,R2*%
X147108000Y-77602936D02*
X147108000Y-78807064D01*
X148928000Y-77602936D02*
X148928000Y-78807064D01*
%TO.C,R5*%
X150792000Y-78861064D02*
X150792000Y-77656936D01*
X152612000Y-78861064D02*
X152612000Y-77656936D01*
%TO.C,R6*%
X159579064Y-84412500D02*
X158374936Y-84412500D01*
X159579064Y-82592500D02*
X158374936Y-82592500D01*
%TO.C,R7*%
X165460000Y-77910936D02*
X165460000Y-79115064D01*
X167280000Y-77910936D02*
X167280000Y-79115064D01*
%TO.C,U4*%
X159923000Y-75683000D02*
G75*
G02X157923000Y-75683000I-1000000J0D01*
G01*
X157923000Y-75683000D02*
X156273000Y-75683000D01*
X156273000Y-75683000D02*
X156273000Y-80883000D01*
X156273000Y-80883000D02*
X161573000Y-80883000D01*
X161573000Y-80883000D02*
X161573000Y-75683000D01*
X161573000Y-75683000D02*
X159923000Y-75683000D01*
%TO.C,K1*%
X98870000Y-82613500D02*
X98870000Y-67881500D01*
X98870000Y-67881500D02*
X109030000Y-67881500D01*
X109030000Y-67881500D02*
X109030000Y-82613500D01*
X109030000Y-82613500D02*
X98870000Y-82613500D01*
X103544000Y-71437500D02*
X104179000Y-70421500D01*
X105728000Y-71564500D02*
X105728000Y-70929500D01*
X105728000Y-70929500D02*
X105068000Y-70929500D01*
X102528000Y-71564500D02*
X102528000Y-70929500D01*
X102528000Y-70929500D02*
X103163000Y-70929500D01*
X103163000Y-71437500D02*
X105068000Y-71437500D01*
X105068000Y-71437500D02*
X105068000Y-70421500D01*
X105068000Y-70421500D02*
X103163000Y-70421500D01*
X103163000Y-71437500D02*
X103163000Y-70421500D01*
%TO.C,J2*%
X109604000Y-59202500D02*
X135124000Y-59202500D01*
X135124000Y-59202500D02*
X135124000Y-56542500D01*
X135124000Y-56542500D02*
X109604000Y-56542500D01*
X109604000Y-56542500D02*
X109604000Y-59202500D01*
X110554000Y-56542500D02*
X110554000Y-50542500D01*
X110554000Y-50542500D02*
X111314000Y-50542500D01*
X111314000Y-50542500D02*
X111314000Y-56542500D01*
X110614000Y-56542500D02*
X110614000Y-50542500D01*
X110734000Y-56542500D02*
X110734000Y-50542500D01*
X110854000Y-56542500D02*
X110854000Y-50542500D01*
X110974000Y-56542500D02*
X110974000Y-50542500D01*
X111094000Y-56542500D02*
X111094000Y-50542500D01*
X111214000Y-56542500D02*
X111214000Y-50542500D01*
X110554000Y-59532500D02*
X110554000Y-59202500D01*
X111314000Y-59532500D02*
X111314000Y-59202500D01*
X112204000Y-59202500D02*
X112204000Y-56542500D01*
X113094000Y-56542500D02*
X113094000Y-50542500D01*
X113094000Y-50542500D02*
X113854000Y-50542500D01*
X113854000Y-50542500D02*
X113854000Y-56542500D01*
X113094000Y-59599571D02*
X113094000Y-59202500D01*
X113854000Y-59599571D02*
X113854000Y-59202500D01*
X114744000Y-59202500D02*
X114744000Y-56542500D01*
X115634000Y-56542500D02*
X115634000Y-50542500D01*
X115634000Y-50542500D02*
X116394000Y-50542500D01*
X116394000Y-50542500D02*
X116394000Y-56542500D01*
X115634000Y-59599571D02*
X115634000Y-59202500D01*
X116394000Y-59599571D02*
X116394000Y-59202500D01*
X117284000Y-59202500D02*
X117284000Y-56542500D01*
X118174000Y-56542500D02*
X118174000Y-50542500D01*
X118174000Y-50542500D02*
X118934000Y-50542500D01*
X118934000Y-50542500D02*
X118934000Y-56542500D01*
X118174000Y-59599571D02*
X118174000Y-59202500D01*
X118934000Y-59599571D02*
X118934000Y-59202500D01*
X119824000Y-59202500D02*
X119824000Y-56542500D01*
X120714000Y-56542500D02*
X120714000Y-50542500D01*
X120714000Y-50542500D02*
X121474000Y-50542500D01*
X121474000Y-50542500D02*
X121474000Y-56542500D01*
X120714000Y-59599571D02*
X120714000Y-59202500D01*
X121474000Y-59599571D02*
X121474000Y-59202500D01*
X122364000Y-59202500D02*
X122364000Y-56542500D01*
X123254000Y-56542500D02*
X123254000Y-50542500D01*
X123254000Y-50542500D02*
X124014000Y-50542500D01*
X124014000Y-50542500D02*
X124014000Y-56542500D01*
X123254000Y-59599571D02*
X123254000Y-59202500D01*
X124014000Y-59599571D02*
X124014000Y-59202500D01*
X124904000Y-59202500D02*
X124904000Y-56542500D01*
X125794000Y-56542500D02*
X125794000Y-50542500D01*
X125794000Y-50542500D02*
X126554000Y-50542500D01*
X126554000Y-50542500D02*
X126554000Y-56542500D01*
X125794000Y-59599571D02*
X125794000Y-59202500D01*
X126554000Y-59599571D02*
X126554000Y-59202500D01*
X127444000Y-59202500D02*
X127444000Y-56542500D01*
X128334000Y-56542500D02*
X128334000Y-50542500D01*
X128334000Y-50542500D02*
X129094000Y-50542500D01*
X129094000Y-50542500D02*
X129094000Y-56542500D01*
X128334000Y-59599571D02*
X128334000Y-59202500D01*
X129094000Y-59599571D02*
X129094000Y-59202500D01*
X129984000Y-59202500D02*
X129984000Y-56542500D01*
X130874000Y-56542500D02*
X130874000Y-50542500D01*
X130874000Y-50542500D02*
X131634000Y-50542500D01*
X131634000Y-50542500D02*
X131634000Y-56542500D01*
X130874000Y-59599571D02*
X130874000Y-59202500D01*
X131634000Y-59599571D02*
X131634000Y-59202500D01*
X132524000Y-59202500D02*
X132524000Y-56542500D01*
X133414000Y-56542500D02*
X133414000Y-50542500D01*
X133414000Y-50542500D02*
X134174000Y-50542500D01*
X134174000Y-50542500D02*
X134174000Y-56542500D01*
X133414000Y-59599571D02*
X133414000Y-59202500D01*
X134174000Y-59599571D02*
X134174000Y-59202500D01*
X110934000Y-61912500D02*
X109664000Y-61912500D01*
X109664000Y-61912500D02*
X109664000Y-60642500D01*
%TO.C,K2*%
X112522000Y-82677000D02*
X112522000Y-67945000D01*
X112522000Y-67945000D02*
X122682000Y-67945000D01*
X122682000Y-67945000D02*
X122682000Y-82677000D01*
X122682000Y-82677000D02*
X112522000Y-82677000D01*
X117196000Y-71501000D02*
X117831000Y-70485000D01*
X119380000Y-71628000D02*
X119380000Y-70993000D01*
X119380000Y-70993000D02*
X118720000Y-70993000D01*
X116180000Y-71628000D02*
X116180000Y-70993000D01*
X116180000Y-70993000D02*
X116815000Y-70993000D01*
X116815000Y-71501000D02*
X118720000Y-71501000D01*
X118720000Y-71501000D02*
X118720000Y-70485000D01*
X118720000Y-70485000D02*
X116815000Y-70485000D01*
X116815000Y-71501000D02*
X116815000Y-70485000D01*
%TO.C,K3*%
X126619000Y-82804000D02*
X126619000Y-68072000D01*
X126619000Y-68072000D02*
X136779000Y-68072000D01*
X136779000Y-68072000D02*
X136779000Y-82804000D01*
X136779000Y-82804000D02*
X126619000Y-82804000D01*
X131293000Y-71628000D02*
X131928000Y-70612000D01*
X133477000Y-71755000D02*
X133477000Y-71120000D01*
X133477000Y-71120000D02*
X132817000Y-71120000D01*
X130277000Y-71755000D02*
X130277000Y-71120000D01*
X130277000Y-71120000D02*
X130912000Y-71120000D01*
X130912000Y-71628000D02*
X132817000Y-71628000D01*
X132817000Y-71628000D02*
X132817000Y-70612000D01*
X132817000Y-70612000D02*
X130912000Y-70612000D01*
X130912000Y-71628000D02*
X130912000Y-70612000D01*
%TO.C,K4*%
X112712000Y-105918000D02*
X112712000Y-91186000D01*
X112712000Y-91186000D02*
X122872000Y-91186000D01*
X122872000Y-91186000D02*
X122872000Y-105918000D01*
X122872000Y-105918000D02*
X112712000Y-105918000D01*
X117386000Y-94742000D02*
X118021000Y-93726000D01*
X119570000Y-94869000D02*
X119570000Y-94234000D01*
X119570000Y-94234000D02*
X118910000Y-94234000D01*
X116370000Y-94869000D02*
X116370000Y-94234000D01*
X116370000Y-94234000D02*
X117005000Y-94234000D01*
X117005000Y-94742000D02*
X118910000Y-94742000D01*
X118910000Y-94742000D02*
X118910000Y-93726000D01*
X118910000Y-93726000D02*
X117005000Y-93726000D01*
X117005000Y-94742000D02*
X117005000Y-93726000D01*
%TO.C,K5*%
X98742000Y-105918000D02*
X98742000Y-91186000D01*
X98742000Y-91186000D02*
X108902000Y-91186000D01*
X108902000Y-91186000D02*
X108902000Y-105918000D01*
X108902000Y-105918000D02*
X98742000Y-105918000D01*
X103416000Y-94742000D02*
X104051000Y-93726000D01*
X105600000Y-94869000D02*
X105600000Y-94234000D01*
X105600000Y-94234000D02*
X104940000Y-94234000D01*
X102400000Y-94869000D02*
X102400000Y-94234000D01*
X102400000Y-94234000D02*
X103035000Y-94234000D01*
X103035000Y-94742000D02*
X104940000Y-94742000D01*
X104940000Y-94742000D02*
X104940000Y-93726000D01*
X104940000Y-93726000D02*
X103035000Y-93726000D01*
X103035000Y-94742000D02*
X103035000Y-93726000D01*
%TO.C,C27*%
X85982564Y-99970000D02*
X84778436Y-99970000D01*
X85982564Y-98150000D02*
X84778436Y-98150000D01*
%TO.C,J6*%
X84666000Y-74482000D02*
X84666000Y-69282000D01*
X84666000Y-69282000D02*
X82006000Y-69282000D01*
X82006000Y-69282000D02*
X82006000Y-74482000D01*
X82006000Y-74482000D02*
X84666000Y-74482000D01*
X82006000Y-73532000D02*
X76006000Y-73532000D01*
X76006000Y-73532000D02*
X76006000Y-72772000D01*
X76006000Y-72772000D02*
X82006000Y-72772000D01*
X82006000Y-73472000D02*
X76006000Y-73472000D01*
X82006000Y-73352000D02*
X76006000Y-73352000D01*
X82006000Y-73232000D02*
X76006000Y-73232000D01*
X82006000Y-73112000D02*
X76006000Y-73112000D01*
X82006000Y-72992000D02*
X76006000Y-72992000D01*
X82006000Y-72872000D02*
X76006000Y-72872000D01*
X84996000Y-73532000D02*
X84666000Y-73532000D01*
X84996000Y-72772000D02*
X84666000Y-72772000D01*
X84666000Y-71882000D02*
X82006000Y-71882000D01*
X82006000Y-70992000D02*
X76006000Y-70992000D01*
X76006000Y-70992000D02*
X76006000Y-70232000D01*
X76006000Y-70232000D02*
X82006000Y-70232000D01*
X85063071Y-70992000D02*
X84666000Y-70992000D01*
X85063071Y-70232000D02*
X84666000Y-70232000D01*
X87376000Y-73152000D02*
X87376000Y-74422000D01*
X87376000Y-74422000D02*
X86106000Y-74422000D01*
%TO.C,R42*%
X84995936Y-76814000D02*
X86200064Y-76814000D01*
X84995936Y-78634000D02*
X86200064Y-78634000D01*
%TO.C,R45*%
X86236564Y-81894000D02*
X85032436Y-81894000D01*
X86236564Y-83714000D02*
X85032436Y-83714000D01*
%TO.C,R48*%
X85982564Y-103526000D02*
X84778436Y-103526000D01*
X85982564Y-101706000D02*
X84778436Y-101706000D01*
%TO.C,U5*%
X87944000Y-92694000D02*
G75*
G02X87944000Y-90694000I0J1000000D01*
G01*
X87944000Y-90694000D02*
X87944000Y-89044000D01*
X87944000Y-89044000D02*
X82744000Y-89044000D01*
X82744000Y-89044000D02*
X82744000Y-94344000D01*
X82744000Y-94344000D02*
X87944000Y-94344000D01*
X87944000Y-94344000D02*
X87944000Y-92694000D01*
%TO.C,C28*%
X103018000Y-118305936D02*
X103018000Y-119510064D01*
X101198000Y-118305936D02*
X101198000Y-119510064D01*
%TO.C,J7*%
X92142000Y-59012000D02*
X97342000Y-59012000D01*
X97342000Y-59012000D02*
X97342000Y-56352000D01*
X97342000Y-56352000D02*
X92142000Y-56352000D01*
X92142000Y-56352000D02*
X92142000Y-59012000D01*
X93092000Y-56352000D02*
X93092000Y-50352000D01*
X93092000Y-50352000D02*
X93852000Y-50352000D01*
X93852000Y-50352000D02*
X93852000Y-56352000D01*
X93152000Y-56352000D02*
X93152000Y-50352000D01*
X93272000Y-56352000D02*
X93272000Y-50352000D01*
X93392000Y-56352000D02*
X93392000Y-50352000D01*
X93512000Y-56352000D02*
X93512000Y-50352000D01*
X93632000Y-56352000D02*
X93632000Y-50352000D01*
X93752000Y-56352000D02*
X93752000Y-50352000D01*
X93092000Y-59342000D02*
X93092000Y-59012000D01*
X93852000Y-59342000D02*
X93852000Y-59012000D01*
X94742000Y-59012000D02*
X94742000Y-56352000D01*
X95632000Y-56352000D02*
X95632000Y-50352000D01*
X95632000Y-50352000D02*
X96392000Y-50352000D01*
X96392000Y-50352000D02*
X96392000Y-56352000D01*
X95632000Y-59409071D02*
X95632000Y-59012000D01*
X96392000Y-59409071D02*
X96392000Y-59012000D01*
X93472000Y-61722000D02*
X92202000Y-61722000D01*
X92202000Y-61722000D02*
X92202000Y-60452000D01*
%TO.C,R49*%
X93366000Y-71214064D02*
X93366000Y-70009936D01*
X91546000Y-71214064D02*
X91546000Y-70009936D01*
%TO.C,R51*%
X91546000Y-80829564D02*
X91546000Y-79625436D01*
X93366000Y-80829564D02*
X93366000Y-79625436D01*
%TO.C,R54*%
X106574000Y-118305936D02*
X106574000Y-119510064D01*
X104754000Y-118305936D02*
X104754000Y-119510064D01*
%TO.C,U6*%
X95310000Y-111998000D02*
G75*
G02X95310000Y-109998000I0J1000000D01*
G01*
X95310000Y-109998000D02*
X95310000Y-108348000D01*
X95310000Y-108348000D02*
X90110000Y-108348000D01*
X90110000Y-108348000D02*
X90110000Y-113648000D01*
X90110000Y-113648000D02*
X95310000Y-113648000D01*
X95310000Y-113648000D02*
X95310000Y-111998000D01*
%TO.C,J1*%
D11*
X179540840Y-58891506D02*
X180017030Y-58891506D01*
X179445601Y-59177220D02*
X179778935Y-58177220D01*
X180112268Y-59177220D01*
X180445601Y-59177220D02*
X180445601Y-58177220D01*
X180683697Y-58177220D01*
X180826554Y-58224840D01*
X180921792Y-58320078D01*
X180969411Y-58415316D01*
X181017030Y-58605792D01*
X181017030Y-58748649D01*
X180969411Y-58939125D01*
X180921792Y-59034363D01*
X180826554Y-59129601D01*
X180683697Y-59177220D01*
X180445601Y-59177220D01*
X182017030Y-59081982D02*
X181969411Y-59129601D01*
X181826554Y-59177220D01*
X181731316Y-59177220D01*
X181588459Y-59129601D01*
X181493220Y-59034363D01*
X181445601Y-58939125D01*
X181397982Y-58748649D01*
X181397982Y-58605792D01*
X181445601Y-58415316D01*
X181493220Y-58320078D01*
X181588459Y-58224840D01*
X181731316Y-58177220D01*
X181826554Y-58177220D01*
X181969411Y-58224840D01*
X182017030Y-58272459D01*
X183778935Y-59177220D02*
X183445601Y-58701030D01*
X183207506Y-59177220D02*
X183207506Y-58177220D01*
X183588459Y-58177220D01*
X183683697Y-58224840D01*
X183731316Y-58272459D01*
X183778935Y-58367697D01*
X183778935Y-58510554D01*
X183731316Y-58605792D01*
X183683697Y-58653411D01*
X183588459Y-58701030D01*
X183207506Y-58701030D01*
X184159887Y-58891506D02*
X184636078Y-58891506D01*
X184064649Y-59177220D02*
X184397982Y-58177220D01*
X184731316Y-59177220D01*
X184969411Y-58177220D02*
X185207506Y-59177220D01*
X185397982Y-58462935D01*
X185588459Y-59177220D01*
X185826554Y-58177220D01*
X187493220Y-58224840D02*
X187397982Y-58177220D01*
X187255125Y-58177220D01*
X187112268Y-58224840D01*
X187017030Y-58320078D01*
X186969411Y-58415316D01*
X186921792Y-58605792D01*
X186921792Y-58748649D01*
X186969411Y-58939125D01*
X187017030Y-59034363D01*
X187112268Y-59129601D01*
X187255125Y-59177220D01*
X187350363Y-59177220D01*
X187493220Y-59129601D01*
X187540840Y-59081982D01*
X187540840Y-58748649D01*
X187350363Y-58748649D01*
%TO.C,C3*%
D14*
X155894142Y-68759366D02*
X155941761Y-68806985D01*
X155989380Y-68949842D01*
X155989380Y-69045080D01*
X155941761Y-69187938D01*
X155846523Y-69283176D01*
X155751285Y-69330795D01*
X155560809Y-69378414D01*
X155417952Y-69378414D01*
X155227476Y-69330795D01*
X155132238Y-69283176D01*
X155037000Y-69187938D01*
X154989380Y-69045080D01*
X154989380Y-68949842D01*
X155037000Y-68806985D01*
X155084619Y-68759366D01*
X154989380Y-68426033D02*
X154989380Y-67806985D01*
X155370333Y-68140319D01*
X155370333Y-67997461D01*
X155417952Y-67902223D01*
X155465571Y-67854604D01*
X155560809Y-67806985D01*
X155798904Y-67806985D01*
X155894142Y-67854604D01*
X155941761Y-67902223D01*
X155989380Y-67997461D01*
X155989380Y-68283176D01*
X155941761Y-68378414D01*
X155894142Y-68426033D01*
%TO.C,C5*%
X161999142Y-109413666D02*
X162046761Y-109461285D01*
X162094380Y-109604142D01*
X162094380Y-109699380D01*
X162046761Y-109842238D01*
X161951523Y-109937476D01*
X161856285Y-109985095D01*
X161665809Y-110032714D01*
X161522952Y-110032714D01*
X161332476Y-109985095D01*
X161237238Y-109937476D01*
X161142000Y-109842238D01*
X161094380Y-109699380D01*
X161094380Y-109604142D01*
X161142000Y-109461285D01*
X161189619Y-109413666D01*
X161094380Y-108508904D02*
X161094380Y-108985095D01*
X161570571Y-109032714D01*
X161522952Y-108985095D01*
X161475333Y-108889857D01*
X161475333Y-108651761D01*
X161522952Y-108556523D01*
X161570571Y-108508904D01*
X161665809Y-108461285D01*
X161903904Y-108461285D01*
X161999142Y-108508904D01*
X162046761Y-108556523D01*
X162094380Y-108651761D01*
X162094380Y-108889857D01*
X162046761Y-108985095D01*
X161999142Y-109032714D01*
%TO.C,C7*%
X206255733Y-103316242D02*
X206208114Y-103363861D01*
X206065257Y-103411480D01*
X205970019Y-103411480D01*
X205827161Y-103363861D01*
X205731923Y-103268623D01*
X205684304Y-103173385D01*
X205636685Y-102982909D01*
X205636685Y-102840052D01*
X205684304Y-102649576D01*
X205731923Y-102554338D01*
X205827161Y-102459100D01*
X205970019Y-102411480D01*
X206065257Y-102411480D01*
X206208114Y-102459100D01*
X206255733Y-102506719D01*
X206589066Y-102411480D02*
X207255733Y-102411480D01*
X206827161Y-103411480D01*
%TO.C,C8*%
X206043133Y-106859042D02*
X205995514Y-106906661D01*
X205852657Y-106954280D01*
X205757419Y-106954280D01*
X205614561Y-106906661D01*
X205519323Y-106811423D01*
X205471704Y-106716185D01*
X205424085Y-106525709D01*
X205424085Y-106382852D01*
X205471704Y-106192376D01*
X205519323Y-106097138D01*
X205614561Y-106001900D01*
X205757419Y-105954280D01*
X205852657Y-105954280D01*
X205995514Y-106001900D01*
X206043133Y-106049519D01*
X206614561Y-106382852D02*
X206519323Y-106335233D01*
X206471704Y-106287614D01*
X206424085Y-106192376D01*
X206424085Y-106144757D01*
X206471704Y-106049519D01*
X206519323Y-106001900D01*
X206614561Y-105954280D01*
X206805038Y-105954280D01*
X206900276Y-106001900D01*
X206947895Y-106049519D01*
X206995514Y-106144757D01*
X206995514Y-106192376D01*
X206947895Y-106287614D01*
X206900276Y-106335233D01*
X206805038Y-106382852D01*
X206614561Y-106382852D01*
X206519323Y-106430471D01*
X206471704Y-106478090D01*
X206424085Y-106573328D01*
X206424085Y-106763804D01*
X206471704Y-106859042D01*
X206519323Y-106906661D01*
X206614561Y-106954280D01*
X206805038Y-106954280D01*
X206900276Y-106906661D01*
X206947895Y-106859042D01*
X206995514Y-106763804D01*
X206995514Y-106573328D01*
X206947895Y-106478090D01*
X206900276Y-106430471D01*
X206805038Y-106382852D01*
%TO.C,C9*%
X191200342Y-102325666D02*
X191247961Y-102373285D01*
X191295580Y-102516142D01*
X191295580Y-102611380D01*
X191247961Y-102754238D01*
X191152723Y-102849476D01*
X191057485Y-102897095D01*
X190867009Y-102944714D01*
X190724152Y-102944714D01*
X190533676Y-102897095D01*
X190438438Y-102849476D01*
X190343200Y-102754238D01*
X190295580Y-102611380D01*
X190295580Y-102516142D01*
X190343200Y-102373285D01*
X190390819Y-102325666D01*
X191295580Y-101849476D02*
X191295580Y-101659000D01*
X191247961Y-101563761D01*
X191200342Y-101516142D01*
X191057485Y-101420904D01*
X190867009Y-101373285D01*
X190486057Y-101373285D01*
X190390819Y-101420904D01*
X190343200Y-101468523D01*
X190295580Y-101563761D01*
X190295580Y-101754238D01*
X190343200Y-101849476D01*
X190390819Y-101897095D01*
X190486057Y-101944714D01*
X190724152Y-101944714D01*
X190819390Y-101897095D01*
X190867009Y-101849476D01*
X190914628Y-101754238D01*
X190914628Y-101563761D01*
X190867009Y-101468523D01*
X190819390Y-101420904D01*
X190724152Y-101373285D01*
%TO.C,D5*%
X165742580Y-109996595D02*
X164742580Y-109996595D01*
X164742580Y-109758500D01*
X164790200Y-109615642D01*
X164885438Y-109520404D01*
X164980676Y-109472785D01*
X165171152Y-109425166D01*
X165314009Y-109425166D01*
X165504485Y-109472785D01*
X165599723Y-109520404D01*
X165694961Y-109615642D01*
X165742580Y-109758500D01*
X165742580Y-109996595D01*
X164742580Y-108520404D02*
X164742580Y-108996595D01*
X165218771Y-109044214D01*
X165171152Y-108996595D01*
X165123533Y-108901357D01*
X165123533Y-108663261D01*
X165171152Y-108568023D01*
X165218771Y-108520404D01*
X165314009Y-108472785D01*
X165552104Y-108472785D01*
X165647342Y-108520404D01*
X165694961Y-108568023D01*
X165742580Y-108663261D01*
X165742580Y-108901357D01*
X165694961Y-108996595D01*
X165647342Y-109044214D01*
%TO.C,D9*%
X188901540Y-62597255D02*
X187901540Y-62597255D01*
X187901540Y-62359160D01*
X187949160Y-62216302D01*
X188044398Y-62121064D01*
X188139636Y-62073445D01*
X188330112Y-62025826D01*
X188472969Y-62025826D01*
X188663445Y-62073445D01*
X188758683Y-62121064D01*
X188853921Y-62216302D01*
X188901540Y-62359160D01*
X188901540Y-62597255D01*
X188901540Y-61549636D02*
X188901540Y-61359160D01*
X188853921Y-61263921D01*
X188806302Y-61216302D01*
X188663445Y-61121064D01*
X188472969Y-61073445D01*
X188092017Y-61073445D01*
X187996779Y-61121064D01*
X187949160Y-61168683D01*
X187901540Y-61263921D01*
X187901540Y-61454398D01*
X187949160Y-61549636D01*
X187996779Y-61597255D01*
X188092017Y-61644874D01*
X188330112Y-61644874D01*
X188425350Y-61597255D01*
X188472969Y-61549636D01*
X188520588Y-61454398D01*
X188520588Y-61263921D01*
X188472969Y-61168683D01*
X188425350Y-61121064D01*
X188330112Y-61073445D01*
%TO.C,D10*%
X159575080Y-70022885D02*
X158575080Y-70022885D01*
X158575080Y-69784790D01*
X158622700Y-69641933D01*
X158717938Y-69546695D01*
X158813176Y-69499076D01*
X159003652Y-69451457D01*
X159146509Y-69451457D01*
X159336985Y-69499076D01*
X159432223Y-69546695D01*
X159527461Y-69641933D01*
X159575080Y-69784790D01*
X159575080Y-70022885D01*
X159575080Y-68499076D02*
X159575080Y-69070504D01*
X159575080Y-68784790D02*
X158575080Y-68784790D01*
X158717938Y-68880028D01*
X158813176Y-68975266D01*
X158860795Y-69070504D01*
X158575080Y-67880028D02*
X158575080Y-67784790D01*
X158622700Y-67689552D01*
X158670319Y-67641933D01*
X158765557Y-67594314D01*
X158956033Y-67546695D01*
X159194128Y-67546695D01*
X159384604Y-67594314D01*
X159479842Y-67641933D01*
X159527461Y-67689552D01*
X159575080Y-67784790D01*
X159575080Y-67880028D01*
X159527461Y-67975266D01*
X159479842Y-68022885D01*
X159384604Y-68070504D01*
X159194128Y-68118123D01*
X158956033Y-68118123D01*
X158765557Y-68070504D01*
X158670319Y-68022885D01*
X158622700Y-67975266D01*
X158575080Y-67880028D01*
%TO.C,D11*%
X186888380Y-111005285D02*
X185888380Y-111005285D01*
X185888380Y-110767190D01*
X185936000Y-110624333D01*
X186031238Y-110529095D01*
X186126476Y-110481476D01*
X186316952Y-110433857D01*
X186459809Y-110433857D01*
X186650285Y-110481476D01*
X186745523Y-110529095D01*
X186840761Y-110624333D01*
X186888380Y-110767190D01*
X186888380Y-111005285D01*
X186888380Y-109481476D02*
X186888380Y-110052904D01*
X186888380Y-109767190D02*
X185888380Y-109767190D01*
X186031238Y-109862428D01*
X186126476Y-109957666D01*
X186174095Y-110052904D01*
X186888380Y-108529095D02*
X186888380Y-109100523D01*
X186888380Y-108814809D02*
X185888380Y-108814809D01*
X186031238Y-108910047D01*
X186126476Y-109005285D01*
X186174095Y-109100523D01*
%TO.C,D17*%
X135094454Y-121064240D02*
X135094454Y-120064240D01*
X135332549Y-120064240D01*
X135475406Y-120111860D01*
X135570644Y-120207098D01*
X135618263Y-120302336D01*
X135665882Y-120492812D01*
X135665882Y-120635669D01*
X135618263Y-120826145D01*
X135570644Y-120921383D01*
X135475406Y-121016621D01*
X135332549Y-121064240D01*
X135094454Y-121064240D01*
X136618263Y-121064240D02*
X136046835Y-121064240D01*
X136332549Y-121064240D02*
X136332549Y-120064240D01*
X136237311Y-120207098D01*
X136142073Y-120302336D01*
X136046835Y-120349955D01*
X136951597Y-120064240D02*
X137618263Y-120064240D01*
X137189692Y-121064240D01*
%TO.C,Q9*%
X172480619Y-117138638D02*
X172433000Y-117233876D01*
X172337761Y-117329114D01*
X172194904Y-117471971D01*
X172147285Y-117567209D01*
X172147285Y-117662447D01*
X172385380Y-117614828D02*
X172337761Y-117710066D01*
X172242523Y-117805304D01*
X172052047Y-117852923D01*
X171718714Y-117852923D01*
X171528238Y-117805304D01*
X171433000Y-117710066D01*
X171385380Y-117614828D01*
X171385380Y-117424352D01*
X171433000Y-117329114D01*
X171528238Y-117233876D01*
X171718714Y-117186257D01*
X172052047Y-117186257D01*
X172242523Y-117233876D01*
X172337761Y-117329114D01*
X172385380Y-117424352D01*
X172385380Y-117614828D01*
X172385380Y-116710066D02*
X172385380Y-116519590D01*
X172337761Y-116424352D01*
X172290142Y-116376733D01*
X172147285Y-116281495D01*
X171956809Y-116233876D01*
X171575857Y-116233876D01*
X171480619Y-116281495D01*
X171433000Y-116329114D01*
X171385380Y-116424352D01*
X171385380Y-116614828D01*
X171433000Y-116710066D01*
X171480619Y-116757685D01*
X171575857Y-116805304D01*
X171813952Y-116805304D01*
X171909190Y-116757685D01*
X171956809Y-116710066D01*
X172004428Y-116614828D01*
X172004428Y-116424352D01*
X171956809Y-116329114D01*
X171909190Y-116281495D01*
X171813952Y-116233876D01*
%TO.C,R4*%
X168946533Y-63012580D02*
X168613200Y-62536390D01*
X168375104Y-63012580D02*
X168375104Y-62012580D01*
X168756057Y-62012580D01*
X168851295Y-62060200D01*
X168898914Y-62107819D01*
X168946533Y-62203057D01*
X168946533Y-62345914D01*
X168898914Y-62441152D01*
X168851295Y-62488771D01*
X168756057Y-62536390D01*
X168375104Y-62536390D01*
X169803676Y-62345914D02*
X169803676Y-63012580D01*
X169565580Y-61964961D02*
X169327485Y-62679247D01*
X169946533Y-62679247D01*
%TO.C,U1*%
X200408680Y-104020004D02*
X201218204Y-104020004D01*
X201313442Y-103972385D01*
X201361061Y-103924766D01*
X201408680Y-103829528D01*
X201408680Y-103639052D01*
X201361061Y-103543814D01*
X201313442Y-103496195D01*
X201218204Y-103448576D01*
X200408680Y-103448576D01*
X201408680Y-102448576D02*
X201408680Y-103020004D01*
X201408680Y-102734290D02*
X200408680Y-102734290D01*
X200551538Y-102829528D01*
X200646776Y-102924766D01*
X200694395Y-103020004D01*
%TO.C,U2*%
X138481095Y-101916380D02*
X138481095Y-102725904D01*
X138528714Y-102821142D01*
X138576333Y-102868761D01*
X138671571Y-102916380D01*
X138862047Y-102916380D01*
X138957285Y-102868761D01*
X139004904Y-102821142D01*
X139052523Y-102725904D01*
X139052523Y-101916380D01*
X139481095Y-102011619D02*
X139528714Y-101964000D01*
X139623952Y-101916380D01*
X139862047Y-101916380D01*
X139957285Y-101964000D01*
X140004904Y-102011619D01*
X140052523Y-102106857D01*
X140052523Y-102202095D01*
X140004904Y-102344952D01*
X139433476Y-102916380D01*
X140052523Y-102916380D01*
%TO.C,C4*%
X139490042Y-98691666D02*
X139537661Y-98739285D01*
X139585280Y-98882142D01*
X139585280Y-98977380D01*
X139537661Y-99120238D01*
X139442423Y-99215476D01*
X139347185Y-99263095D01*
X139156709Y-99310714D01*
X139013852Y-99310714D01*
X138823376Y-99263095D01*
X138728138Y-99215476D01*
X138632900Y-99120238D01*
X138585280Y-98977380D01*
X138585280Y-98882142D01*
X138632900Y-98739285D01*
X138680519Y-98691666D01*
X138918614Y-97834523D02*
X139585280Y-97834523D01*
X138537661Y-98072619D02*
X139251947Y-98310714D01*
X139251947Y-97691666D01*
%TO.C,C11*%
X129849922Y-112116722D02*
X129802303Y-112164341D01*
X129659446Y-112211960D01*
X129564208Y-112211960D01*
X129421351Y-112164341D01*
X129326113Y-112069103D01*
X129278494Y-111973865D01*
X129230875Y-111783389D01*
X129230875Y-111640532D01*
X129278494Y-111450056D01*
X129326113Y-111354818D01*
X129421351Y-111259580D01*
X129564208Y-111211960D01*
X129659446Y-111211960D01*
X129802303Y-111259580D01*
X129849922Y-111307199D01*
X130802303Y-112211960D02*
X130230875Y-112211960D01*
X130516589Y-112211960D02*
X130516589Y-111211960D01*
X130421351Y-111354818D01*
X130326113Y-111450056D01*
X130230875Y-111497675D01*
X131754684Y-112211960D02*
X131183256Y-112211960D01*
X131468970Y-112211960D02*
X131468970Y-111211960D01*
X131373732Y-111354818D01*
X131278494Y-111450056D01*
X131183256Y-111497675D01*
%TO.C,C13*%
X160377602Y-95257897D02*
X160425221Y-95305516D01*
X160472840Y-95448373D01*
X160472840Y-95543611D01*
X160425221Y-95686468D01*
X160329983Y-95781706D01*
X160234745Y-95829325D01*
X160044269Y-95876944D01*
X159901412Y-95876944D01*
X159710936Y-95829325D01*
X159615698Y-95781706D01*
X159520460Y-95686468D01*
X159472840Y-95543611D01*
X159472840Y-95448373D01*
X159520460Y-95305516D01*
X159568079Y-95257897D01*
X160472840Y-94305516D02*
X160472840Y-94876944D01*
X160472840Y-94591230D02*
X159472840Y-94591230D01*
X159615698Y-94686468D01*
X159710936Y-94781706D01*
X159758555Y-94876944D01*
X159472840Y-93972182D02*
X159472840Y-93353135D01*
X159853793Y-93686468D01*
X159853793Y-93543611D01*
X159901412Y-93448373D01*
X159949031Y-93400754D01*
X160044269Y-93353135D01*
X160282364Y-93353135D01*
X160377602Y-93400754D01*
X160425221Y-93448373D01*
X160472840Y-93543611D01*
X160472840Y-93829325D01*
X160425221Y-93924563D01*
X160377602Y-93972182D01*
%TO.C,C14*%
X142978642Y-99258357D02*
X143026261Y-99305976D01*
X143073880Y-99448833D01*
X143073880Y-99544071D01*
X143026261Y-99686928D01*
X142931023Y-99782166D01*
X142835785Y-99829785D01*
X142645309Y-99877404D01*
X142502452Y-99877404D01*
X142311976Y-99829785D01*
X142216738Y-99782166D01*
X142121500Y-99686928D01*
X142073880Y-99544071D01*
X142073880Y-99448833D01*
X142121500Y-99305976D01*
X142169119Y-99258357D01*
X143073880Y-98305976D02*
X143073880Y-98877404D01*
X143073880Y-98591690D02*
X142073880Y-98591690D01*
X142216738Y-98686928D01*
X142311976Y-98782166D01*
X142359595Y-98877404D01*
X142407214Y-97448833D02*
X143073880Y-97448833D01*
X142026261Y-97686928D02*
X142740547Y-97925023D01*
X142740547Y-97305976D01*
%TO.C,C15*%
X129595222Y-108370722D02*
X129547603Y-108418341D01*
X129404746Y-108465960D01*
X129309508Y-108465960D01*
X129166651Y-108418341D01*
X129071413Y-108323103D01*
X129023794Y-108227865D01*
X128976175Y-108037389D01*
X128976175Y-107894532D01*
X129023794Y-107704056D01*
X129071413Y-107608818D01*
X129166651Y-107513580D01*
X129309508Y-107465960D01*
X129404746Y-107465960D01*
X129547603Y-107513580D01*
X129595222Y-107561199D01*
X130547603Y-108465960D02*
X129976175Y-108465960D01*
X130261889Y-108465960D02*
X130261889Y-107465960D01*
X130166651Y-107608818D01*
X130071413Y-107704056D01*
X129976175Y-107751675D01*
X131452365Y-107465960D02*
X130976175Y-107465960D01*
X130928556Y-107942151D01*
X130976175Y-107894532D01*
X131071413Y-107846913D01*
X131309508Y-107846913D01*
X131404746Y-107894532D01*
X131452365Y-107942151D01*
X131499984Y-108037389D01*
X131499984Y-108275484D01*
X131452365Y-108370722D01*
X131404746Y-108418341D01*
X131309508Y-108465960D01*
X131071413Y-108465960D01*
X130976175Y-108418341D01*
X130928556Y-108370722D01*
%TO.C,D20*%
X198543280Y-62910885D02*
X197543280Y-62910885D01*
X197543280Y-62672790D01*
X197590900Y-62529933D01*
X197686138Y-62434695D01*
X197781376Y-62387076D01*
X197971852Y-62339457D01*
X198114709Y-62339457D01*
X198305185Y-62387076D01*
X198400423Y-62434695D01*
X198495661Y-62529933D01*
X198543280Y-62672790D01*
X198543280Y-62910885D01*
X197638519Y-61958504D02*
X197590900Y-61910885D01*
X197543280Y-61815647D01*
X197543280Y-61577552D01*
X197590900Y-61482314D01*
X197638519Y-61434695D01*
X197733757Y-61387076D01*
X197828995Y-61387076D01*
X197971852Y-61434695D01*
X198543280Y-62006123D01*
X198543280Y-61387076D01*
X197543280Y-60768028D02*
X197543280Y-60672790D01*
X197590900Y-60577552D01*
X197638519Y-60529933D01*
X197733757Y-60482314D01*
X197924233Y-60434695D01*
X198162328Y-60434695D01*
X198352804Y-60482314D01*
X198448042Y-60529933D01*
X198495661Y-60577552D01*
X198543280Y-60672790D01*
X198543280Y-60768028D01*
X198495661Y-60863266D01*
X198448042Y-60910885D01*
X198352804Y-60958504D01*
X198162328Y-61006123D01*
X197924233Y-61006123D01*
X197733757Y-60958504D01*
X197638519Y-60910885D01*
X197590900Y-60863266D01*
X197543280Y-60768028D01*
%TO.C,C2*%
X187580442Y-102363766D02*
X187628061Y-102411385D01*
X187675680Y-102554242D01*
X187675680Y-102649480D01*
X187628061Y-102792338D01*
X187532823Y-102887576D01*
X187437585Y-102935195D01*
X187247109Y-102982814D01*
X187104252Y-102982814D01*
X186913776Y-102935195D01*
X186818538Y-102887576D01*
X186723300Y-102792338D01*
X186675680Y-102649480D01*
X186675680Y-102554242D01*
X186723300Y-102411385D01*
X186770919Y-102363766D01*
X186770919Y-101982814D02*
X186723300Y-101935195D01*
X186675680Y-101839957D01*
X186675680Y-101601861D01*
X186723300Y-101506623D01*
X186770919Y-101459004D01*
X186866157Y-101411385D01*
X186961395Y-101411385D01*
X187104252Y-101459004D01*
X187675680Y-102030433D01*
X187675680Y-101411385D01*
%TO.C,R25*%
X200728642Y-107995580D02*
X200395309Y-107519390D01*
X200157214Y-107995580D02*
X200157214Y-106995580D01*
X200538166Y-106995580D01*
X200633404Y-107043200D01*
X200681023Y-107090819D01*
X200728642Y-107186057D01*
X200728642Y-107328914D01*
X200681023Y-107424152D01*
X200633404Y-107471771D01*
X200538166Y-107519390D01*
X200157214Y-107519390D01*
X201109595Y-107090819D02*
X201157214Y-107043200D01*
X201252452Y-106995580D01*
X201490547Y-106995580D01*
X201585785Y-107043200D01*
X201633404Y-107090819D01*
X201681023Y-107186057D01*
X201681023Y-107281295D01*
X201633404Y-107424152D01*
X201061976Y-107995580D01*
X201681023Y-107995580D01*
X202585785Y-106995580D02*
X202109595Y-106995580D01*
X202061976Y-107471771D01*
X202109595Y-107424152D01*
X202204833Y-107376533D01*
X202442928Y-107376533D01*
X202538166Y-107424152D01*
X202585785Y-107471771D01*
X202633404Y-107567009D01*
X202633404Y-107805104D01*
X202585785Y-107900342D01*
X202538166Y-107947961D01*
X202442928Y-107995580D01*
X202204833Y-107995580D01*
X202109595Y-107947961D01*
X202061976Y-107900342D01*
%TO.C,R29*%
X193412942Y-108198780D02*
X193079609Y-107722590D01*
X192841514Y-108198780D02*
X192841514Y-107198780D01*
X193222466Y-107198780D01*
X193317704Y-107246400D01*
X193365323Y-107294019D01*
X193412942Y-107389257D01*
X193412942Y-107532114D01*
X193365323Y-107627352D01*
X193317704Y-107674971D01*
X193222466Y-107722590D01*
X192841514Y-107722590D01*
X193793895Y-107294019D02*
X193841514Y-107246400D01*
X193936752Y-107198780D01*
X194174847Y-107198780D01*
X194270085Y-107246400D01*
X194317704Y-107294019D01*
X194365323Y-107389257D01*
X194365323Y-107484495D01*
X194317704Y-107627352D01*
X193746276Y-108198780D01*
X194365323Y-108198780D01*
X194841514Y-108198780D02*
X195031990Y-108198780D01*
X195127228Y-108151161D01*
X195174847Y-108103542D01*
X195270085Y-107960685D01*
X195317704Y-107770209D01*
X195317704Y-107389257D01*
X195270085Y-107294019D01*
X195222466Y-107246400D01*
X195127228Y-107198780D01*
X194936752Y-107198780D01*
X194841514Y-107246400D01*
X194793895Y-107294019D01*
X194746276Y-107389257D01*
X194746276Y-107627352D01*
X194793895Y-107722590D01*
X194841514Y-107770209D01*
X194936752Y-107817828D01*
X195127228Y-107817828D01*
X195222466Y-107770209D01*
X195270085Y-107722590D01*
X195317704Y-107627352D01*
%TO.C,R57*%
X197870380Y-117865857D02*
X197394190Y-118199190D01*
X197870380Y-118437285D02*
X196870380Y-118437285D01*
X196870380Y-118056333D01*
X196918000Y-117961095D01*
X196965619Y-117913476D01*
X197060857Y-117865857D01*
X197203714Y-117865857D01*
X197298952Y-117913476D01*
X197346571Y-117961095D01*
X197394190Y-118056333D01*
X197394190Y-118437285D01*
X196870380Y-116961095D02*
X196870380Y-117437285D01*
X197346571Y-117484904D01*
X197298952Y-117437285D01*
X197251333Y-117342047D01*
X197251333Y-117103952D01*
X197298952Y-117008714D01*
X197346571Y-116961095D01*
X197441809Y-116913476D01*
X197679904Y-116913476D01*
X197775142Y-116961095D01*
X197822761Y-117008714D01*
X197870380Y-117103952D01*
X197870380Y-117342047D01*
X197822761Y-117437285D01*
X197775142Y-117484904D01*
X196870380Y-116580142D02*
X196870380Y-115913476D01*
X197870380Y-116342047D01*
%TO.C,R58*%
X194241980Y-117876357D02*
X193765790Y-118209690D01*
X194241980Y-118447785D02*
X193241980Y-118447785D01*
X193241980Y-118066833D01*
X193289600Y-117971595D01*
X193337219Y-117923976D01*
X193432457Y-117876357D01*
X193575314Y-117876357D01*
X193670552Y-117923976D01*
X193718171Y-117971595D01*
X193765790Y-118066833D01*
X193765790Y-118447785D01*
X193241980Y-116971595D02*
X193241980Y-117447785D01*
X193718171Y-117495404D01*
X193670552Y-117447785D01*
X193622933Y-117352547D01*
X193622933Y-117114452D01*
X193670552Y-117019214D01*
X193718171Y-116971595D01*
X193813409Y-116923976D01*
X194051504Y-116923976D01*
X194146742Y-116971595D01*
X194194361Y-117019214D01*
X194241980Y-117114452D01*
X194241980Y-117352547D01*
X194194361Y-117447785D01*
X194146742Y-117495404D01*
X193670552Y-116352547D02*
X193622933Y-116447785D01*
X193575314Y-116495404D01*
X193480076Y-116543023D01*
X193432457Y-116543023D01*
X193337219Y-116495404D01*
X193289600Y-116447785D01*
X193241980Y-116352547D01*
X193241980Y-116162071D01*
X193289600Y-116066833D01*
X193337219Y-116019214D01*
X193432457Y-115971595D01*
X193480076Y-115971595D01*
X193575314Y-116019214D01*
X193622933Y-116066833D01*
X193670552Y-116162071D01*
X193670552Y-116352547D01*
X193718171Y-116447785D01*
X193765790Y-116495404D01*
X193861028Y-116543023D01*
X194051504Y-116543023D01*
X194146742Y-116495404D01*
X194194361Y-116447785D01*
X194241980Y-116352547D01*
X194241980Y-116162071D01*
X194194361Y-116066833D01*
X194146742Y-116019214D01*
X194051504Y-115971595D01*
X193861028Y-115971595D01*
X193765790Y-116019214D01*
X193718171Y-116066833D01*
X193670552Y-116162071D01*
%TO.C,R59*%
X183671380Y-117572857D02*
X183195190Y-117906190D01*
X183671380Y-118144285D02*
X182671380Y-118144285D01*
X182671380Y-117763333D01*
X182719000Y-117668095D01*
X182766619Y-117620476D01*
X182861857Y-117572857D01*
X183004714Y-117572857D01*
X183099952Y-117620476D01*
X183147571Y-117668095D01*
X183195190Y-117763333D01*
X183195190Y-118144285D01*
X182671380Y-116668095D02*
X182671380Y-117144285D01*
X183147571Y-117191904D01*
X183099952Y-117144285D01*
X183052333Y-117049047D01*
X183052333Y-116810952D01*
X183099952Y-116715714D01*
X183147571Y-116668095D01*
X183242809Y-116620476D01*
X183480904Y-116620476D01*
X183576142Y-116668095D01*
X183623761Y-116715714D01*
X183671380Y-116810952D01*
X183671380Y-117049047D01*
X183623761Y-117144285D01*
X183576142Y-117191904D01*
X183671380Y-116144285D02*
X183671380Y-115953809D01*
X183623761Y-115858571D01*
X183576142Y-115810952D01*
X183433285Y-115715714D01*
X183242809Y-115668095D01*
X182861857Y-115668095D01*
X182766619Y-115715714D01*
X182719000Y-115763333D01*
X182671380Y-115858571D01*
X182671380Y-116049047D01*
X182719000Y-116144285D01*
X182766619Y-116191904D01*
X182861857Y-116239523D01*
X183099952Y-116239523D01*
X183195190Y-116191904D01*
X183242809Y-116144285D01*
X183290428Y-116049047D01*
X183290428Y-115858571D01*
X183242809Y-115763333D01*
X183195190Y-115715714D01*
X183099952Y-115668095D01*
%TO.C,R60*%
X179750780Y-117533157D02*
X179274590Y-117866490D01*
X179750780Y-118104585D02*
X178750780Y-118104585D01*
X178750780Y-117723633D01*
X178798400Y-117628395D01*
X178846019Y-117580776D01*
X178941257Y-117533157D01*
X179084114Y-117533157D01*
X179179352Y-117580776D01*
X179226971Y-117628395D01*
X179274590Y-117723633D01*
X179274590Y-118104585D01*
X178750780Y-116676014D02*
X178750780Y-116866490D01*
X178798400Y-116961728D01*
X178846019Y-117009347D01*
X178988876Y-117104585D01*
X179179352Y-117152204D01*
X179560304Y-117152204D01*
X179655542Y-117104585D01*
X179703161Y-117056966D01*
X179750780Y-116961728D01*
X179750780Y-116771252D01*
X179703161Y-116676014D01*
X179655542Y-116628395D01*
X179560304Y-116580776D01*
X179322209Y-116580776D01*
X179226971Y-116628395D01*
X179179352Y-116676014D01*
X179131733Y-116771252D01*
X179131733Y-116961728D01*
X179179352Y-117056966D01*
X179226971Y-117104585D01*
X179322209Y-117152204D01*
X178750780Y-115961728D02*
X178750780Y-115866490D01*
X178798400Y-115771252D01*
X178846019Y-115723633D01*
X178941257Y-115676014D01*
X179131733Y-115628395D01*
X179369828Y-115628395D01*
X179560304Y-115676014D01*
X179655542Y-115723633D01*
X179703161Y-115771252D01*
X179750780Y-115866490D01*
X179750780Y-115961728D01*
X179703161Y-116056966D01*
X179655542Y-116104585D01*
X179560304Y-116152204D01*
X179369828Y-116199823D01*
X179131733Y-116199823D01*
X178941257Y-116152204D01*
X178846019Y-116104585D01*
X178798400Y-116056966D01*
X178750780Y-115961728D01*
%TO.C,R9*%
X154884280Y-109386266D02*
X154408090Y-109719600D01*
X154884280Y-109957695D02*
X153884280Y-109957695D01*
X153884280Y-109576742D01*
X153931900Y-109481504D01*
X153979519Y-109433885D01*
X154074757Y-109386266D01*
X154217614Y-109386266D01*
X154312852Y-109433885D01*
X154360471Y-109481504D01*
X154408090Y-109576742D01*
X154408090Y-109957695D01*
X154884280Y-108910076D02*
X154884280Y-108719600D01*
X154836661Y-108624361D01*
X154789042Y-108576742D01*
X154646185Y-108481504D01*
X154455709Y-108433885D01*
X154074757Y-108433885D01*
X153979519Y-108481504D01*
X153931900Y-108529123D01*
X153884280Y-108624361D01*
X153884280Y-108814838D01*
X153931900Y-108910076D01*
X153979519Y-108957695D01*
X154074757Y-109005314D01*
X154312852Y-109005314D01*
X154408090Y-108957695D01*
X154455709Y-108910076D01*
X154503328Y-108814838D01*
X154503328Y-108624361D01*
X154455709Y-108529123D01*
X154408090Y-108481504D01*
X154312852Y-108433885D01*
%TO.C,R12*%
X158631180Y-109860857D02*
X158154990Y-110194190D01*
X158631180Y-110432285D02*
X157631180Y-110432285D01*
X157631180Y-110051333D01*
X157678800Y-109956095D01*
X157726419Y-109908476D01*
X157821657Y-109860857D01*
X157964514Y-109860857D01*
X158059752Y-109908476D01*
X158107371Y-109956095D01*
X158154990Y-110051333D01*
X158154990Y-110432285D01*
X158631180Y-108908476D02*
X158631180Y-109479904D01*
X158631180Y-109194190D02*
X157631180Y-109194190D01*
X157774038Y-109289428D01*
X157869276Y-109384666D01*
X157916895Y-109479904D01*
X157726419Y-108527523D02*
X157678800Y-108479904D01*
X157631180Y-108384666D01*
X157631180Y-108146571D01*
X157678800Y-108051333D01*
X157726419Y-108003714D01*
X157821657Y-107956095D01*
X157916895Y-107956095D01*
X158059752Y-108003714D01*
X158631180Y-108575142D01*
X158631180Y-107956095D01*
%TO.C,R44*%
X135553142Y-116983380D02*
X135219809Y-116507190D01*
X134981714Y-116983380D02*
X134981714Y-115983380D01*
X135362666Y-115983380D01*
X135457904Y-116031000D01*
X135505523Y-116078619D01*
X135553142Y-116173857D01*
X135553142Y-116316714D01*
X135505523Y-116411952D01*
X135457904Y-116459571D01*
X135362666Y-116507190D01*
X134981714Y-116507190D01*
X136410285Y-116316714D02*
X136410285Y-116983380D01*
X136172190Y-115935761D02*
X135934095Y-116650047D01*
X136553142Y-116650047D01*
X137362666Y-116316714D02*
X137362666Y-116983380D01*
X137124571Y-115935761D02*
X136886476Y-116650047D01*
X137505523Y-116650047D01*
%TO.C,R8*%
X163329380Y-68454566D02*
X162853190Y-68787900D01*
X163329380Y-69025995D02*
X162329380Y-69025995D01*
X162329380Y-68645042D01*
X162377000Y-68549804D01*
X162424619Y-68502185D01*
X162519857Y-68454566D01*
X162662714Y-68454566D01*
X162757952Y-68502185D01*
X162805571Y-68549804D01*
X162853190Y-68645042D01*
X162853190Y-69025995D01*
X162757952Y-67883138D02*
X162710333Y-67978376D01*
X162662714Y-68025995D01*
X162567476Y-68073614D01*
X162519857Y-68073614D01*
X162424619Y-68025995D01*
X162377000Y-67978376D01*
X162329380Y-67883138D01*
X162329380Y-67692661D01*
X162377000Y-67597423D01*
X162424619Y-67549804D01*
X162519857Y-67502185D01*
X162567476Y-67502185D01*
X162662714Y-67549804D01*
X162710333Y-67597423D01*
X162757952Y-67692661D01*
X162757952Y-67883138D01*
X162805571Y-67978376D01*
X162853190Y-68025995D01*
X162948428Y-68073614D01*
X163138904Y-68073614D01*
X163234142Y-68025995D01*
X163281761Y-67978376D01*
X163329380Y-67883138D01*
X163329380Y-67692661D01*
X163281761Y-67597423D01*
X163234142Y-67549804D01*
X163138904Y-67502185D01*
X162948428Y-67502185D01*
X162853190Y-67549804D01*
X162805571Y-67597423D01*
X162757952Y-67692661D01*
%TO.C,R14*%
X152306180Y-69184757D02*
X151829990Y-69518090D01*
X152306180Y-69756185D02*
X151306180Y-69756185D01*
X151306180Y-69375233D01*
X151353800Y-69279995D01*
X151401419Y-69232376D01*
X151496657Y-69184757D01*
X151639514Y-69184757D01*
X151734752Y-69232376D01*
X151782371Y-69279995D01*
X151829990Y-69375233D01*
X151829990Y-69756185D01*
X152306180Y-68232376D02*
X152306180Y-68803804D01*
X152306180Y-68518090D02*
X151306180Y-68518090D01*
X151449038Y-68613328D01*
X151544276Y-68708566D01*
X151591895Y-68803804D01*
X151639514Y-67375233D02*
X152306180Y-67375233D01*
X151258561Y-67613328D02*
X151972847Y-67851423D01*
X151972847Y-67232376D01*
%TO.C,R21*%
X178681642Y-103639380D02*
X178348309Y-103163190D01*
X178110214Y-103639380D02*
X178110214Y-102639380D01*
X178491166Y-102639380D01*
X178586404Y-102687000D01*
X178634023Y-102734619D01*
X178681642Y-102829857D01*
X178681642Y-102972714D01*
X178634023Y-103067952D01*
X178586404Y-103115571D01*
X178491166Y-103163190D01*
X178110214Y-103163190D01*
X179062595Y-102734619D02*
X179110214Y-102687000D01*
X179205452Y-102639380D01*
X179443547Y-102639380D01*
X179538785Y-102687000D01*
X179586404Y-102734619D01*
X179634023Y-102829857D01*
X179634023Y-102925095D01*
X179586404Y-103067952D01*
X179014976Y-103639380D01*
X179634023Y-103639380D01*
X180586404Y-103639380D02*
X180014976Y-103639380D01*
X180300690Y-103639380D02*
X180300690Y-102639380D01*
X180205452Y-102782238D01*
X180110214Y-102877476D01*
X180014976Y-102925095D01*
%TO.C,R22*%
X176347380Y-106473057D02*
X175871190Y-106806390D01*
X176347380Y-107044485D02*
X175347380Y-107044485D01*
X175347380Y-106663533D01*
X175395000Y-106568295D01*
X175442619Y-106520676D01*
X175537857Y-106473057D01*
X175680714Y-106473057D01*
X175775952Y-106520676D01*
X175823571Y-106568295D01*
X175871190Y-106663533D01*
X175871190Y-107044485D01*
X175442619Y-106092104D02*
X175395000Y-106044485D01*
X175347380Y-105949247D01*
X175347380Y-105711152D01*
X175395000Y-105615914D01*
X175442619Y-105568295D01*
X175537857Y-105520676D01*
X175633095Y-105520676D01*
X175775952Y-105568295D01*
X176347380Y-106139723D01*
X176347380Y-105520676D01*
X175442619Y-105139723D02*
X175395000Y-105092104D01*
X175347380Y-104996866D01*
X175347380Y-104758771D01*
X175395000Y-104663533D01*
X175442619Y-104615914D01*
X175537857Y-104568295D01*
X175633095Y-104568295D01*
X175775952Y-104615914D01*
X176347380Y-105187342D01*
X176347380Y-104568295D01*
%TO.C,R23*%
X190507880Y-109953357D02*
X190031690Y-110286690D01*
X190507880Y-110524785D02*
X189507880Y-110524785D01*
X189507880Y-110143833D01*
X189555500Y-110048595D01*
X189603119Y-110000976D01*
X189698357Y-109953357D01*
X189841214Y-109953357D01*
X189936452Y-110000976D01*
X189984071Y-110048595D01*
X190031690Y-110143833D01*
X190031690Y-110524785D01*
X189603119Y-109572404D02*
X189555500Y-109524785D01*
X189507880Y-109429547D01*
X189507880Y-109191452D01*
X189555500Y-109096214D01*
X189603119Y-109048595D01*
X189698357Y-109000976D01*
X189793595Y-109000976D01*
X189936452Y-109048595D01*
X190507880Y-109620023D01*
X190507880Y-109000976D01*
X189507880Y-108667642D02*
X189507880Y-108048595D01*
X189888833Y-108381928D01*
X189888833Y-108239071D01*
X189936452Y-108143833D01*
X189984071Y-108096214D01*
X190079309Y-108048595D01*
X190317404Y-108048595D01*
X190412642Y-108096214D01*
X190460261Y-108143833D01*
X190507880Y-108239071D01*
X190507880Y-108524785D01*
X190460261Y-108620023D01*
X190412642Y-108667642D01*
%TO.C,R24*%
X179125642Y-108211880D02*
X178792309Y-107735690D01*
X178554214Y-108211880D02*
X178554214Y-107211880D01*
X178935166Y-107211880D01*
X179030404Y-107259500D01*
X179078023Y-107307119D01*
X179125642Y-107402357D01*
X179125642Y-107545214D01*
X179078023Y-107640452D01*
X179030404Y-107688071D01*
X178935166Y-107735690D01*
X178554214Y-107735690D01*
X179506595Y-107307119D02*
X179554214Y-107259500D01*
X179649452Y-107211880D01*
X179887547Y-107211880D01*
X179982785Y-107259500D01*
X180030404Y-107307119D01*
X180078023Y-107402357D01*
X180078023Y-107497595D01*
X180030404Y-107640452D01*
X179458976Y-108211880D01*
X180078023Y-108211880D01*
X180935166Y-107545214D02*
X180935166Y-108211880D01*
X180697071Y-107164261D02*
X180458976Y-107878547D01*
X181078023Y-107878547D01*
%TO.C,C16*%
X179822142Y-85367042D02*
X179774523Y-85414661D01*
X179631666Y-85462280D01*
X179536428Y-85462280D01*
X179393571Y-85414661D01*
X179298333Y-85319423D01*
X179250714Y-85224185D01*
X179203095Y-85033709D01*
X179203095Y-84890852D01*
X179250714Y-84700376D01*
X179298333Y-84605138D01*
X179393571Y-84509900D01*
X179536428Y-84462280D01*
X179631666Y-84462280D01*
X179774523Y-84509900D01*
X179822142Y-84557519D01*
X180774523Y-85462280D02*
X180203095Y-85462280D01*
X180488809Y-85462280D02*
X180488809Y-84462280D01*
X180393571Y-84605138D01*
X180298333Y-84700376D01*
X180203095Y-84747995D01*
X181631666Y-84462280D02*
X181441190Y-84462280D01*
X181345952Y-84509900D01*
X181298333Y-84557519D01*
X181203095Y-84700376D01*
X181155476Y-84890852D01*
X181155476Y-85271804D01*
X181203095Y-85367042D01*
X181250714Y-85414661D01*
X181345952Y-85462280D01*
X181536428Y-85462280D01*
X181631666Y-85414661D01*
X181679285Y-85367042D01*
X181726904Y-85271804D01*
X181726904Y-85033709D01*
X181679285Y-84938471D01*
X181631666Y-84890852D01*
X181536428Y-84843233D01*
X181345952Y-84843233D01*
X181250714Y-84890852D01*
X181203095Y-84938471D01*
X181155476Y-85033709D01*
%TO.C,C17*%
X192817142Y-80143257D02*
X192864761Y-80190876D01*
X192912380Y-80333733D01*
X192912380Y-80428971D01*
X192864761Y-80571828D01*
X192769523Y-80667066D01*
X192674285Y-80714685D01*
X192483809Y-80762304D01*
X192340952Y-80762304D01*
X192150476Y-80714685D01*
X192055238Y-80667066D01*
X191960000Y-80571828D01*
X191912380Y-80428971D01*
X191912380Y-80333733D01*
X191960000Y-80190876D01*
X192007619Y-80143257D01*
X192912380Y-79190876D02*
X192912380Y-79762304D01*
X192912380Y-79476590D02*
X191912380Y-79476590D01*
X192055238Y-79571828D01*
X192150476Y-79667066D01*
X192198095Y-79762304D01*
X191912380Y-78857542D02*
X191912380Y-78190876D01*
X192912380Y-78619447D01*
%TO.C,C18*%
X190364642Y-85904342D02*
X190317023Y-85951961D01*
X190174166Y-85999580D01*
X190078928Y-85999580D01*
X189936071Y-85951961D01*
X189840833Y-85856723D01*
X189793214Y-85761485D01*
X189745595Y-85571009D01*
X189745595Y-85428152D01*
X189793214Y-85237676D01*
X189840833Y-85142438D01*
X189936071Y-85047200D01*
X190078928Y-84999580D01*
X190174166Y-84999580D01*
X190317023Y-85047200D01*
X190364642Y-85094819D01*
X191317023Y-85999580D02*
X190745595Y-85999580D01*
X191031309Y-85999580D02*
X191031309Y-84999580D01*
X190936071Y-85142438D01*
X190840833Y-85237676D01*
X190745595Y-85285295D01*
X191888452Y-85428152D02*
X191793214Y-85380533D01*
X191745595Y-85332914D01*
X191697976Y-85237676D01*
X191697976Y-85190057D01*
X191745595Y-85094819D01*
X191793214Y-85047200D01*
X191888452Y-84999580D01*
X192078928Y-84999580D01*
X192174166Y-85047200D01*
X192221785Y-85094819D01*
X192269404Y-85190057D01*
X192269404Y-85237676D01*
X192221785Y-85332914D01*
X192174166Y-85380533D01*
X192078928Y-85428152D01*
X191888452Y-85428152D01*
X191793214Y-85475771D01*
X191745595Y-85523390D01*
X191697976Y-85618628D01*
X191697976Y-85809104D01*
X191745595Y-85904342D01*
X191793214Y-85951961D01*
X191888452Y-85999580D01*
X192078928Y-85999580D01*
X192174166Y-85951961D01*
X192221785Y-85904342D01*
X192269404Y-85809104D01*
X192269404Y-85618628D01*
X192221785Y-85523390D01*
X192174166Y-85475771D01*
X192078928Y-85428152D01*
%TO.C,D6*%
X172794404Y-76804780D02*
X172794404Y-75804780D01*
X173032500Y-75804780D01*
X173175357Y-75852400D01*
X173270595Y-75947638D01*
X173318214Y-76042876D01*
X173365833Y-76233352D01*
X173365833Y-76376209D01*
X173318214Y-76566685D01*
X173270595Y-76661923D01*
X173175357Y-76757161D01*
X173032500Y-76804780D01*
X172794404Y-76804780D01*
X174222976Y-75804780D02*
X174032500Y-75804780D01*
X173937261Y-75852400D01*
X173889642Y-75900019D01*
X173794404Y-76042876D01*
X173746785Y-76233352D01*
X173746785Y-76614304D01*
X173794404Y-76709542D01*
X173842023Y-76757161D01*
X173937261Y-76804780D01*
X174127738Y-76804780D01*
X174222976Y-76757161D01*
X174270595Y-76709542D01*
X174318214Y-76614304D01*
X174318214Y-76376209D01*
X174270595Y-76280971D01*
X174222976Y-76233352D01*
X174127738Y-76185733D01*
X173937261Y-76185733D01*
X173842023Y-76233352D01*
X173794404Y-76280971D01*
X173746785Y-76376209D01*
%TO.C,D12*%
X209042980Y-80652785D02*
X208042980Y-80652785D01*
X208042980Y-80414690D01*
X208090600Y-80271833D01*
X208185838Y-80176595D01*
X208281076Y-80128976D01*
X208471552Y-80081357D01*
X208614409Y-80081357D01*
X208804885Y-80128976D01*
X208900123Y-80176595D01*
X208995361Y-80271833D01*
X209042980Y-80414690D01*
X209042980Y-80652785D01*
X209042980Y-79128976D02*
X209042980Y-79700404D01*
X209042980Y-79414690D02*
X208042980Y-79414690D01*
X208185838Y-79509928D01*
X208281076Y-79605166D01*
X208328695Y-79700404D01*
X208138219Y-78748023D02*
X208090600Y-78700404D01*
X208042980Y-78605166D01*
X208042980Y-78367071D01*
X208090600Y-78271833D01*
X208138219Y-78224214D01*
X208233457Y-78176595D01*
X208328695Y-78176595D01*
X208471552Y-78224214D01*
X209042980Y-78795642D01*
X209042980Y-78176595D01*
%TO.C,L2*%
X208199460Y-85472526D02*
X208199460Y-85948717D01*
X207199460Y-85948717D01*
X207294699Y-85186812D02*
X207247080Y-85139193D01*
X207199460Y-85043955D01*
X207199460Y-84805860D01*
X207247080Y-84710621D01*
X207294699Y-84663002D01*
X207389937Y-84615383D01*
X207485175Y-84615383D01*
X207628032Y-84663002D01*
X208199460Y-85234431D01*
X208199460Y-84615383D01*
%TO.C,R17*%
X204640142Y-66882180D02*
X204306809Y-66405990D01*
X204068714Y-66882180D02*
X204068714Y-65882180D01*
X204449666Y-65882180D01*
X204544904Y-65929800D01*
X204592523Y-65977419D01*
X204640142Y-66072657D01*
X204640142Y-66215514D01*
X204592523Y-66310752D01*
X204544904Y-66358371D01*
X204449666Y-66405990D01*
X204068714Y-66405990D01*
X205592523Y-66882180D02*
X205021095Y-66882180D01*
X205306809Y-66882180D02*
X205306809Y-65882180D01*
X205211571Y-66025038D01*
X205116333Y-66120276D01*
X205021095Y-66167895D01*
X205925857Y-65882180D02*
X206592523Y-65882180D01*
X206163952Y-66882180D01*
%TO.C,R27*%
X189051380Y-80194057D02*
X188575190Y-80527390D01*
X189051380Y-80765485D02*
X188051380Y-80765485D01*
X188051380Y-80384533D01*
X188099000Y-80289295D01*
X188146619Y-80241676D01*
X188241857Y-80194057D01*
X188384714Y-80194057D01*
X188479952Y-80241676D01*
X188527571Y-80289295D01*
X188575190Y-80384533D01*
X188575190Y-80765485D01*
X188146619Y-79813104D02*
X188099000Y-79765485D01*
X188051380Y-79670247D01*
X188051380Y-79432152D01*
X188099000Y-79336914D01*
X188146619Y-79289295D01*
X188241857Y-79241676D01*
X188337095Y-79241676D01*
X188479952Y-79289295D01*
X189051380Y-79860723D01*
X189051380Y-79241676D01*
X188051380Y-78908342D02*
X188051380Y-78241676D01*
X189051380Y-78670247D01*
%TO.C,R28*%
X196464180Y-80116257D02*
X195987990Y-80449590D01*
X196464180Y-80687685D02*
X195464180Y-80687685D01*
X195464180Y-80306733D01*
X195511800Y-80211495D01*
X195559419Y-80163876D01*
X195654657Y-80116257D01*
X195797514Y-80116257D01*
X195892752Y-80163876D01*
X195940371Y-80211495D01*
X195987990Y-80306733D01*
X195987990Y-80687685D01*
X195559419Y-79735304D02*
X195511800Y-79687685D01*
X195464180Y-79592447D01*
X195464180Y-79354352D01*
X195511800Y-79259114D01*
X195559419Y-79211495D01*
X195654657Y-79163876D01*
X195749895Y-79163876D01*
X195892752Y-79211495D01*
X196464180Y-79782923D01*
X196464180Y-79163876D01*
X195892752Y-78592447D02*
X195845133Y-78687685D01*
X195797514Y-78735304D01*
X195702276Y-78782923D01*
X195654657Y-78782923D01*
X195559419Y-78735304D01*
X195511800Y-78687685D01*
X195464180Y-78592447D01*
X195464180Y-78401971D01*
X195511800Y-78306733D01*
X195559419Y-78259114D01*
X195654657Y-78211495D01*
X195702276Y-78211495D01*
X195797514Y-78259114D01*
X195845133Y-78306733D01*
X195892752Y-78401971D01*
X195892752Y-78592447D01*
X195940371Y-78687685D01*
X195987990Y-78735304D01*
X196083228Y-78782923D01*
X196273704Y-78782923D01*
X196368942Y-78735304D01*
X196416561Y-78687685D01*
X196464180Y-78592447D01*
X196464180Y-78401971D01*
X196416561Y-78306733D01*
X196368942Y-78259114D01*
X196273704Y-78211495D01*
X196083228Y-78211495D01*
X195987990Y-78259114D01*
X195940371Y-78306733D01*
X195892752Y-78401971D01*
%TO.C,R32*%
X200049380Y-80133757D02*
X199573190Y-80467090D01*
X200049380Y-80705185D02*
X199049380Y-80705185D01*
X199049380Y-80324233D01*
X199097000Y-80228995D01*
X199144619Y-80181376D01*
X199239857Y-80133757D01*
X199382714Y-80133757D01*
X199477952Y-80181376D01*
X199525571Y-80228995D01*
X199573190Y-80324233D01*
X199573190Y-80705185D01*
X199049380Y-79800423D02*
X199049380Y-79181376D01*
X199430333Y-79514709D01*
X199430333Y-79371852D01*
X199477952Y-79276614D01*
X199525571Y-79228995D01*
X199620809Y-79181376D01*
X199858904Y-79181376D01*
X199954142Y-79228995D01*
X200001761Y-79276614D01*
X200049380Y-79371852D01*
X200049380Y-79657566D01*
X200001761Y-79752804D01*
X199954142Y-79800423D01*
X199144619Y-78800423D02*
X199097000Y-78752804D01*
X199049380Y-78657566D01*
X199049380Y-78419471D01*
X199097000Y-78324233D01*
X199144619Y-78276614D01*
X199239857Y-78228995D01*
X199335095Y-78228995D01*
X199477952Y-78276614D01*
X200049380Y-78848042D01*
X200049380Y-78228995D01*
%TO.C,J3*%
D11*
X203645820Y-76303189D02*
X203645820Y-76112713D01*
X203693440Y-76017475D01*
X203788678Y-75922237D01*
X203979154Y-75874618D01*
X204312487Y-75874618D01*
X204502963Y-75922237D01*
X204598201Y-76017475D01*
X204645820Y-76112713D01*
X204645820Y-76303189D01*
X204598201Y-76398427D01*
X204502963Y-76493665D01*
X204312487Y-76541284D01*
X203979154Y-76541284D01*
X203788678Y-76493665D01*
X203693440Y-76398427D01*
X203645820Y-76303189D01*
X204645820Y-75446046D02*
X203645820Y-75446046D01*
X204645820Y-74874618D01*
X203645820Y-74874618D01*
X203598201Y-73684141D02*
X204883916Y-74541284D01*
X203645820Y-73160332D02*
X203645820Y-72969856D01*
X203693440Y-72874618D01*
X203788678Y-72779380D01*
X203979154Y-72731760D01*
X204312487Y-72731760D01*
X204502963Y-72779380D01*
X204598201Y-72874618D01*
X204645820Y-72969856D01*
X204645820Y-73160332D01*
X204598201Y-73255570D01*
X204502963Y-73350808D01*
X204312487Y-73398427D01*
X203979154Y-73398427D01*
X203788678Y-73350808D01*
X203693440Y-73255570D01*
X203645820Y-73160332D01*
X204122011Y-71969856D02*
X204122011Y-72303189D01*
X204645820Y-72303189D02*
X203645820Y-72303189D01*
X203645820Y-71826999D01*
X204122011Y-71112713D02*
X204122011Y-71446046D01*
X204645820Y-71446046D02*
X203645820Y-71446046D01*
X203645820Y-70969856D01*
%TO.C,C23*%
D14*
X186465942Y-75541142D02*
X186418323Y-75588761D01*
X186275466Y-75636380D01*
X186180228Y-75636380D01*
X186037371Y-75588761D01*
X185942133Y-75493523D01*
X185894514Y-75398285D01*
X185846895Y-75207809D01*
X185846895Y-75064952D01*
X185894514Y-74874476D01*
X185942133Y-74779238D01*
X186037371Y-74684000D01*
X186180228Y-74636380D01*
X186275466Y-74636380D01*
X186418323Y-74684000D01*
X186465942Y-74731619D01*
X186846895Y-74731619D02*
X186894514Y-74684000D01*
X186989752Y-74636380D01*
X187227847Y-74636380D01*
X187323085Y-74684000D01*
X187370704Y-74731619D01*
X187418323Y-74826857D01*
X187418323Y-74922095D01*
X187370704Y-75064952D01*
X186799276Y-75636380D01*
X187418323Y-75636380D01*
X187751657Y-74636380D02*
X188370704Y-74636380D01*
X188037371Y-75017333D01*
X188180228Y-75017333D01*
X188275466Y-75064952D01*
X188323085Y-75112571D01*
X188370704Y-75207809D01*
X188370704Y-75445904D01*
X188323085Y-75541142D01*
X188275466Y-75588761D01*
X188180228Y-75636380D01*
X187894514Y-75636380D01*
X187799276Y-75588761D01*
X187751657Y-75541142D01*
%TO.C,C24*%
X181780442Y-98045542D02*
X181732823Y-98093161D01*
X181589966Y-98140780D01*
X181494728Y-98140780D01*
X181351871Y-98093161D01*
X181256633Y-97997923D01*
X181209014Y-97902685D01*
X181161395Y-97712209D01*
X181161395Y-97569352D01*
X181209014Y-97378876D01*
X181256633Y-97283638D01*
X181351871Y-97188400D01*
X181494728Y-97140780D01*
X181589966Y-97140780D01*
X181732823Y-97188400D01*
X181780442Y-97236019D01*
X182161395Y-97236019D02*
X182209014Y-97188400D01*
X182304252Y-97140780D01*
X182542347Y-97140780D01*
X182637585Y-97188400D01*
X182685204Y-97236019D01*
X182732823Y-97331257D01*
X182732823Y-97426495D01*
X182685204Y-97569352D01*
X182113776Y-98140780D01*
X182732823Y-98140780D01*
X183589966Y-97474114D02*
X183589966Y-98140780D01*
X183351871Y-97093161D02*
X183113776Y-97807447D01*
X183732823Y-97807447D01*
%TO.C,C25*%
X181526242Y-91238342D02*
X181478623Y-91285961D01*
X181335766Y-91333580D01*
X181240528Y-91333580D01*
X181097671Y-91285961D01*
X181002433Y-91190723D01*
X180954814Y-91095485D01*
X180907195Y-90905009D01*
X180907195Y-90762152D01*
X180954814Y-90571676D01*
X181002433Y-90476438D01*
X181097671Y-90381200D01*
X181240528Y-90333580D01*
X181335766Y-90333580D01*
X181478623Y-90381200D01*
X181526242Y-90428819D01*
X181907195Y-90428819D02*
X181954814Y-90381200D01*
X182050052Y-90333580D01*
X182288147Y-90333580D01*
X182383385Y-90381200D01*
X182431004Y-90428819D01*
X182478623Y-90524057D01*
X182478623Y-90619295D01*
X182431004Y-90762152D01*
X181859576Y-91333580D01*
X182478623Y-91333580D01*
X183383385Y-90333580D02*
X182907195Y-90333580D01*
X182859576Y-90809771D01*
X182907195Y-90762152D01*
X183002433Y-90714533D01*
X183240528Y-90714533D01*
X183335766Y-90762152D01*
X183383385Y-90809771D01*
X183431004Y-90905009D01*
X183431004Y-91143104D01*
X183383385Y-91238342D01*
X183335766Y-91285961D01*
X183240528Y-91333580D01*
X183002433Y-91333580D01*
X182907195Y-91285961D01*
X182859576Y-91238342D01*
%TO.C,C26*%
X148201142Y-101447142D02*
X148153523Y-101494761D01*
X148010666Y-101542380D01*
X147915428Y-101542380D01*
X147772571Y-101494761D01*
X147677333Y-101399523D01*
X147629714Y-101304285D01*
X147582095Y-101113809D01*
X147582095Y-100970952D01*
X147629714Y-100780476D01*
X147677333Y-100685238D01*
X147772571Y-100590000D01*
X147915428Y-100542380D01*
X148010666Y-100542380D01*
X148153523Y-100590000D01*
X148201142Y-100637619D01*
X148582095Y-100637619D02*
X148629714Y-100590000D01*
X148724952Y-100542380D01*
X148963047Y-100542380D01*
X149058285Y-100590000D01*
X149105904Y-100637619D01*
X149153523Y-100732857D01*
X149153523Y-100828095D01*
X149105904Y-100970952D01*
X148534476Y-101542380D01*
X149153523Y-101542380D01*
X150010666Y-100542380D02*
X149820190Y-100542380D01*
X149724952Y-100590000D01*
X149677333Y-100637619D01*
X149582095Y-100780476D01*
X149534476Y-100970952D01*
X149534476Y-101351904D01*
X149582095Y-101447142D01*
X149629714Y-101494761D01*
X149724952Y-101542380D01*
X149915428Y-101542380D01*
X150010666Y-101494761D01*
X150058285Y-101447142D01*
X150105904Y-101351904D01*
X150105904Y-101113809D01*
X150058285Y-101018571D01*
X150010666Y-100970952D01*
X149915428Y-100923333D01*
X149724952Y-100923333D01*
X149629714Y-100970952D01*
X149582095Y-101018571D01*
X149534476Y-101113809D01*
%TO.C,J4*%
D10*
X139994480Y-113625580D02*
X140613528Y-113625580D01*
X140280195Y-114006533D01*
X140423052Y-114006533D01*
X140518290Y-114054152D01*
X140565909Y-114101771D01*
X140613528Y-114197009D01*
X140613528Y-114435104D01*
X140565909Y-114530342D01*
X140518290Y-114577961D01*
X140423052Y-114625580D01*
X140137338Y-114625580D01*
X140042100Y-114577961D01*
X139994480Y-114530342D01*
X140899242Y-113625580D02*
X141232576Y-114625580D01*
X141565909Y-113625580D01*
X141804004Y-113625580D02*
X142423052Y-113625580D01*
X142089719Y-114006533D01*
X142232576Y-114006533D01*
X142327814Y-114054152D01*
X142375433Y-114101771D01*
X142423052Y-114197009D01*
X142423052Y-114435104D01*
X142375433Y-114530342D01*
X142327814Y-114577961D01*
X142232576Y-114625580D01*
X141946861Y-114625580D01*
X141851623Y-114577961D01*
X141804004Y-114530342D01*
X143613528Y-114625580D02*
X143613528Y-113625580D01*
X143851623Y-113625580D01*
X143994480Y-113673200D01*
X144089719Y-113768438D01*
X144137338Y-113863676D01*
X144184957Y-114054152D01*
X144184957Y-114197009D01*
X144137338Y-114387485D01*
X144089719Y-114482723D01*
X143994480Y-114577961D01*
X143851623Y-114625580D01*
X143613528Y-114625580D01*
X144613528Y-114625580D02*
X144613528Y-113625580D01*
X145280195Y-113625580D02*
X145470671Y-113625580D01*
X145565909Y-113673200D01*
X145661147Y-113768438D01*
X145708766Y-113958914D01*
X145708766Y-114292247D01*
X145661147Y-114482723D01*
X145565909Y-114577961D01*
X145470671Y-114625580D01*
X145280195Y-114625580D01*
X145184957Y-114577961D01*
X145089719Y-114482723D01*
X145042100Y-114292247D01*
X145042100Y-113958914D01*
X145089719Y-113768438D01*
X145184957Y-113673200D01*
X145280195Y-113625580D01*
X147470671Y-114530342D02*
X147423052Y-114577961D01*
X147280195Y-114625580D01*
X147184957Y-114625580D01*
X147042100Y-114577961D01*
X146946861Y-114482723D01*
X146899242Y-114387485D01*
X146851623Y-114197009D01*
X146851623Y-114054152D01*
X146899242Y-113863676D01*
X146946861Y-113768438D01*
X147042100Y-113673200D01*
X147184957Y-113625580D01*
X147280195Y-113625580D01*
X147423052Y-113673200D01*
X147470671Y-113720819D01*
X148375433Y-114625580D02*
X147899242Y-114625580D01*
X147899242Y-113625580D01*
X148708766Y-114625580D02*
X148708766Y-113625580D01*
X149280195Y-114625580D02*
X148851623Y-114054152D01*
X149280195Y-113625580D02*
X148708766Y-114197009D01*
X150994480Y-113673200D02*
X150899242Y-113625580D01*
X150756385Y-113625580D01*
X150613528Y-113673200D01*
X150518290Y-113768438D01*
X150470671Y-113863676D01*
X150423052Y-114054152D01*
X150423052Y-114197009D01*
X150470671Y-114387485D01*
X150518290Y-114482723D01*
X150613528Y-114577961D01*
X150756385Y-114625580D01*
X150851623Y-114625580D01*
X150994480Y-114577961D01*
X151042100Y-114530342D01*
X151042100Y-114197009D01*
X150851623Y-114197009D01*
%TO.C,R61*%
D14*
X145994480Y-116847657D02*
X145518290Y-117180990D01*
X145994480Y-117419085D02*
X144994480Y-117419085D01*
X144994480Y-117038133D01*
X145042100Y-116942895D01*
X145089719Y-116895276D01*
X145184957Y-116847657D01*
X145327814Y-116847657D01*
X145423052Y-116895276D01*
X145470671Y-116942895D01*
X145518290Y-117038133D01*
X145518290Y-117419085D01*
X144994480Y-115990514D02*
X144994480Y-116180990D01*
X145042100Y-116276228D01*
X145089719Y-116323847D01*
X145232576Y-116419085D01*
X145423052Y-116466704D01*
X145804004Y-116466704D01*
X145899242Y-116419085D01*
X145946861Y-116371466D01*
X145994480Y-116276228D01*
X145994480Y-116085752D01*
X145946861Y-115990514D01*
X145899242Y-115942895D01*
X145804004Y-115895276D01*
X145565909Y-115895276D01*
X145470671Y-115942895D01*
X145423052Y-115990514D01*
X145375433Y-116085752D01*
X145375433Y-116276228D01*
X145423052Y-116371466D01*
X145470671Y-116419085D01*
X145565909Y-116466704D01*
X145994480Y-114942895D02*
X145994480Y-115514323D01*
X145994480Y-115228609D02*
X144994480Y-115228609D01*
X145137338Y-115323847D01*
X145232576Y-115419085D01*
X145280195Y-115514323D01*
%TO.C,R66*%
X152394780Y-119616257D02*
X151918590Y-119949590D01*
X152394780Y-120187685D02*
X151394780Y-120187685D01*
X151394780Y-119806733D01*
X151442400Y-119711495D01*
X151490019Y-119663876D01*
X151585257Y-119616257D01*
X151728114Y-119616257D01*
X151823352Y-119663876D01*
X151870971Y-119711495D01*
X151918590Y-119806733D01*
X151918590Y-120187685D01*
X151394780Y-118759114D02*
X151394780Y-118949590D01*
X151442400Y-119044828D01*
X151490019Y-119092447D01*
X151632876Y-119187685D01*
X151823352Y-119235304D01*
X152204304Y-119235304D01*
X152299542Y-119187685D01*
X152347161Y-119140066D01*
X152394780Y-119044828D01*
X152394780Y-118854352D01*
X152347161Y-118759114D01*
X152299542Y-118711495D01*
X152204304Y-118663876D01*
X151966209Y-118663876D01*
X151870971Y-118711495D01*
X151823352Y-118759114D01*
X151775733Y-118854352D01*
X151775733Y-119044828D01*
X151823352Y-119140066D01*
X151870971Y-119187685D01*
X151966209Y-119235304D01*
X151394780Y-117806733D02*
X151394780Y-117997209D01*
X151442400Y-118092447D01*
X151490019Y-118140066D01*
X151632876Y-118235304D01*
X151823352Y-118282923D01*
X152204304Y-118282923D01*
X152299542Y-118235304D01*
X152347161Y-118187685D01*
X152394780Y-118092447D01*
X152394780Y-117901971D01*
X152347161Y-117806733D01*
X152299542Y-117759114D01*
X152204304Y-117711495D01*
X151966209Y-117711495D01*
X151870971Y-117759114D01*
X151823352Y-117806733D01*
X151775733Y-117901971D01*
X151775733Y-118092447D01*
X151823352Y-118187685D01*
X151870971Y-118235304D01*
X151966209Y-118282923D01*
%TO.C,R67*%
X148152142Y-104969380D02*
X147818809Y-104493190D01*
X147580714Y-104969380D02*
X147580714Y-103969380D01*
X147961666Y-103969380D01*
X148056904Y-104017000D01*
X148104523Y-104064619D01*
X148152142Y-104159857D01*
X148152142Y-104302714D01*
X148104523Y-104397952D01*
X148056904Y-104445571D01*
X147961666Y-104493190D01*
X147580714Y-104493190D01*
X149009285Y-103969380D02*
X148818809Y-103969380D01*
X148723571Y-104017000D01*
X148675952Y-104064619D01*
X148580714Y-104207476D01*
X148533095Y-104397952D01*
X148533095Y-104778904D01*
X148580714Y-104874142D01*
X148628333Y-104921761D01*
X148723571Y-104969380D01*
X148914047Y-104969380D01*
X149009285Y-104921761D01*
X149056904Y-104874142D01*
X149104523Y-104778904D01*
X149104523Y-104540809D01*
X149056904Y-104445571D01*
X149009285Y-104397952D01*
X148914047Y-104350333D01*
X148723571Y-104350333D01*
X148628333Y-104397952D01*
X148580714Y-104445571D01*
X148533095Y-104540809D01*
X149437857Y-103969380D02*
X150104523Y-103969380D01*
X149675952Y-104969380D01*
%TO.C,R68*%
X148188142Y-108567380D02*
X147854809Y-108091190D01*
X147616714Y-108567380D02*
X147616714Y-107567380D01*
X147997666Y-107567380D01*
X148092904Y-107615000D01*
X148140523Y-107662619D01*
X148188142Y-107757857D01*
X148188142Y-107900714D01*
X148140523Y-107995952D01*
X148092904Y-108043571D01*
X147997666Y-108091190D01*
X147616714Y-108091190D01*
X149045285Y-107567380D02*
X148854809Y-107567380D01*
X148759571Y-107615000D01*
X148711952Y-107662619D01*
X148616714Y-107805476D01*
X148569095Y-107995952D01*
X148569095Y-108376904D01*
X148616714Y-108472142D01*
X148664333Y-108519761D01*
X148759571Y-108567380D01*
X148950047Y-108567380D01*
X149045285Y-108519761D01*
X149092904Y-108472142D01*
X149140523Y-108376904D01*
X149140523Y-108138809D01*
X149092904Y-108043571D01*
X149045285Y-107995952D01*
X148950047Y-107948333D01*
X148759571Y-107948333D01*
X148664333Y-107995952D01*
X148616714Y-108043571D01*
X148569095Y-108138809D01*
X149711952Y-107995952D02*
X149616714Y-107948333D01*
X149569095Y-107900714D01*
X149521476Y-107805476D01*
X149521476Y-107757857D01*
X149569095Y-107662619D01*
X149616714Y-107615000D01*
X149711952Y-107567380D01*
X149902428Y-107567380D01*
X149997666Y-107615000D01*
X150045285Y-107662619D01*
X150092904Y-107757857D01*
X150092904Y-107805476D01*
X150045285Y-107900714D01*
X149997666Y-107948333D01*
X149902428Y-107995952D01*
X149711952Y-107995952D01*
X149616714Y-108043571D01*
X149569095Y-108091190D01*
X149521476Y-108186428D01*
X149521476Y-108376904D01*
X149569095Y-108472142D01*
X149616714Y-108519761D01*
X149711952Y-108567380D01*
X149902428Y-108567380D01*
X149997666Y-108519761D01*
X150045285Y-108472142D01*
X150092904Y-108376904D01*
X150092904Y-108186428D01*
X150045285Y-108091190D01*
X149997666Y-108043571D01*
X149902428Y-107995952D01*
%TO.C,C30*%
X186364242Y-65965342D02*
X186316623Y-66012961D01*
X186173766Y-66060580D01*
X186078528Y-66060580D01*
X185935671Y-66012961D01*
X185840433Y-65917723D01*
X185792814Y-65822485D01*
X185745195Y-65632009D01*
X185745195Y-65489152D01*
X185792814Y-65298676D01*
X185840433Y-65203438D01*
X185935671Y-65108200D01*
X186078528Y-65060580D01*
X186173766Y-65060580D01*
X186316623Y-65108200D01*
X186364242Y-65155819D01*
X186697576Y-65060580D02*
X187316623Y-65060580D01*
X186983290Y-65441533D01*
X187126147Y-65441533D01*
X187221385Y-65489152D01*
X187269004Y-65536771D01*
X187316623Y-65632009D01*
X187316623Y-65870104D01*
X187269004Y-65965342D01*
X187221385Y-66012961D01*
X187126147Y-66060580D01*
X186840433Y-66060580D01*
X186745195Y-66012961D01*
X186697576Y-65965342D01*
X187935671Y-65060580D02*
X188030909Y-65060580D01*
X188126147Y-65108200D01*
X188173766Y-65155819D01*
X188221385Y-65251057D01*
X188269004Y-65441533D01*
X188269004Y-65679628D01*
X188221385Y-65870104D01*
X188173766Y-65965342D01*
X188126147Y-66012961D01*
X188030909Y-66060580D01*
X187935671Y-66060580D01*
X187840433Y-66012961D01*
X187792814Y-65965342D01*
X187745195Y-65870104D01*
X187697576Y-65679628D01*
X187697576Y-65441533D01*
X187745195Y-65251057D01*
X187792814Y-65155819D01*
X187840433Y-65108200D01*
X187935671Y-65060580D01*
%TO.C,L3*%
X130642833Y-105100380D02*
X130166642Y-105100380D01*
X130166642Y-104100380D01*
X130880928Y-104100380D02*
X131499976Y-104100380D01*
X131166642Y-104481333D01*
X131309500Y-104481333D01*
X131404738Y-104528952D01*
X131452357Y-104576571D01*
X131499976Y-104671809D01*
X131499976Y-104909904D01*
X131452357Y-105005142D01*
X131404738Y-105052761D01*
X131309500Y-105100380D01*
X131023785Y-105100380D01*
X130928547Y-105052761D01*
X130880928Y-105005142D01*
%TO.C,D15*%
X127006714Y-120903380D02*
X127006714Y-119903380D01*
X127244809Y-119903380D01*
X127387666Y-119951000D01*
X127482904Y-120046238D01*
X127530523Y-120141476D01*
X127578142Y-120331952D01*
X127578142Y-120474809D01*
X127530523Y-120665285D01*
X127482904Y-120760523D01*
X127387666Y-120855761D01*
X127244809Y-120903380D01*
X127006714Y-120903380D01*
X128530523Y-120903380D02*
X127959095Y-120903380D01*
X128244809Y-120903380D02*
X128244809Y-119903380D01*
X128149571Y-120046238D01*
X128054333Y-120141476D01*
X127959095Y-120189095D01*
X129435285Y-119903380D02*
X128959095Y-119903380D01*
X128911476Y-120379571D01*
X128959095Y-120331952D01*
X129054333Y-120284333D01*
X129292428Y-120284333D01*
X129387666Y-120331952D01*
X129435285Y-120379571D01*
X129482904Y-120474809D01*
X129482904Y-120712904D01*
X129435285Y-120808142D01*
X129387666Y-120855761D01*
X129292428Y-120903380D01*
X129054333Y-120903380D01*
X128959095Y-120855761D01*
X128911476Y-120808142D01*
%TO.C,R71*%
X127411442Y-117025380D02*
X127078109Y-116549190D01*
X126840014Y-117025380D02*
X126840014Y-116025380D01*
X127220966Y-116025380D01*
X127316204Y-116073000D01*
X127363823Y-116120619D01*
X127411442Y-116215857D01*
X127411442Y-116358714D01*
X127363823Y-116453952D01*
X127316204Y-116501571D01*
X127220966Y-116549190D01*
X126840014Y-116549190D01*
X127744776Y-116025380D02*
X128411442Y-116025380D01*
X127982871Y-117025380D01*
X129316204Y-117025380D02*
X128744776Y-117025380D01*
X129030490Y-117025380D02*
X129030490Y-116025380D01*
X128935252Y-116168238D01*
X128840014Y-116263476D01*
X128744776Y-116311095D01*
%TO.C,R3*%
X156218380Y-118847666D02*
X155742190Y-119181000D01*
X156218380Y-119419095D02*
X155218380Y-119419095D01*
X155218380Y-119038142D01*
X155266000Y-118942904D01*
X155313619Y-118895285D01*
X155408857Y-118847666D01*
X155551714Y-118847666D01*
X155646952Y-118895285D01*
X155694571Y-118942904D01*
X155742190Y-119038142D01*
X155742190Y-119419095D01*
X155218380Y-118514333D02*
X155218380Y-117895285D01*
X155599333Y-118228619D01*
X155599333Y-118085761D01*
X155646952Y-117990523D01*
X155694571Y-117942904D01*
X155789809Y-117895285D01*
X156027904Y-117895285D01*
X156123142Y-117942904D01*
X156170761Y-117990523D01*
X156218380Y-118085761D01*
X156218380Y-118371476D01*
X156170761Y-118466714D01*
X156123142Y-118514333D01*
%TO.C,Q8*%
X187314019Y-117545038D02*
X187266400Y-117640276D01*
X187171161Y-117735514D01*
X187028304Y-117878371D01*
X186980685Y-117973609D01*
X186980685Y-118068847D01*
X187218780Y-118021228D02*
X187171161Y-118116466D01*
X187075923Y-118211704D01*
X186885447Y-118259323D01*
X186552114Y-118259323D01*
X186361638Y-118211704D01*
X186266400Y-118116466D01*
X186218780Y-118021228D01*
X186218780Y-117830752D01*
X186266400Y-117735514D01*
X186361638Y-117640276D01*
X186552114Y-117592657D01*
X186885447Y-117592657D01*
X187075923Y-117640276D01*
X187171161Y-117735514D01*
X187218780Y-117830752D01*
X187218780Y-118021228D01*
X186647352Y-117021228D02*
X186599733Y-117116466D01*
X186552114Y-117164085D01*
X186456876Y-117211704D01*
X186409257Y-117211704D01*
X186314019Y-117164085D01*
X186266400Y-117116466D01*
X186218780Y-117021228D01*
X186218780Y-116830752D01*
X186266400Y-116735514D01*
X186314019Y-116687895D01*
X186409257Y-116640276D01*
X186456876Y-116640276D01*
X186552114Y-116687895D01*
X186599733Y-116735514D01*
X186647352Y-116830752D01*
X186647352Y-117021228D01*
X186694971Y-117116466D01*
X186742590Y-117164085D01*
X186837828Y-117211704D01*
X187028304Y-117211704D01*
X187123542Y-117164085D01*
X187171161Y-117116466D01*
X187218780Y-117021228D01*
X187218780Y-116830752D01*
X187171161Y-116735514D01*
X187123542Y-116687895D01*
X187028304Y-116640276D01*
X186837828Y-116640276D01*
X186742590Y-116687895D01*
X186694971Y-116735514D01*
X186647352Y-116830752D01*
%TO.C,Q2*%
X183237119Y-105632238D02*
X183189500Y-105727476D01*
X183094261Y-105822714D01*
X182951404Y-105965571D01*
X182903785Y-106060809D01*
X182903785Y-106156047D01*
X183141880Y-106108428D02*
X183094261Y-106203666D01*
X182999023Y-106298904D01*
X182808547Y-106346523D01*
X182475214Y-106346523D01*
X182284738Y-106298904D01*
X182189500Y-106203666D01*
X182141880Y-106108428D01*
X182141880Y-105917952D01*
X182189500Y-105822714D01*
X182284738Y-105727476D01*
X182475214Y-105679857D01*
X182808547Y-105679857D01*
X182999023Y-105727476D01*
X183094261Y-105822714D01*
X183141880Y-105917952D01*
X183141880Y-106108428D01*
X182237119Y-105298904D02*
X182189500Y-105251285D01*
X182141880Y-105156047D01*
X182141880Y-104917952D01*
X182189500Y-104822714D01*
X182237119Y-104775095D01*
X182332357Y-104727476D01*
X182427595Y-104727476D01*
X182570452Y-104775095D01*
X183141880Y-105346523D01*
X183141880Y-104727476D01*
%TO.C,C6*%
X143274142Y-91897166D02*
X143321761Y-91944785D01*
X143369380Y-92087642D01*
X143369380Y-92182880D01*
X143321761Y-92325738D01*
X143226523Y-92420976D01*
X143131285Y-92468595D01*
X142940809Y-92516214D01*
X142797952Y-92516214D01*
X142607476Y-92468595D01*
X142512238Y-92420976D01*
X142417000Y-92325738D01*
X142369380Y-92182880D01*
X142369380Y-92087642D01*
X142417000Y-91944785D01*
X142464619Y-91897166D01*
X142369380Y-91040023D02*
X142369380Y-91230500D01*
X142417000Y-91325738D01*
X142464619Y-91373357D01*
X142607476Y-91468595D01*
X142797952Y-91516214D01*
X143178904Y-91516214D01*
X143274142Y-91468595D01*
X143321761Y-91420976D01*
X143369380Y-91325738D01*
X143369380Y-91135261D01*
X143321761Y-91040023D01*
X143274142Y-90992404D01*
X143178904Y-90944785D01*
X142940809Y-90944785D01*
X142845571Y-90992404D01*
X142797952Y-91040023D01*
X142750333Y-91135261D01*
X142750333Y-91325738D01*
X142797952Y-91420976D01*
X142845571Y-91468595D01*
X142940809Y-91516214D01*
%TO.C,C21*%
X146661642Y-92273357D02*
X146709261Y-92320976D01*
X146756880Y-92463833D01*
X146756880Y-92559071D01*
X146709261Y-92701928D01*
X146614023Y-92797166D01*
X146518785Y-92844785D01*
X146328309Y-92892404D01*
X146185452Y-92892404D01*
X145994976Y-92844785D01*
X145899738Y-92797166D01*
X145804500Y-92701928D01*
X145756880Y-92559071D01*
X145756880Y-92463833D01*
X145804500Y-92320976D01*
X145852119Y-92273357D01*
X145852119Y-91892404D02*
X145804500Y-91844785D01*
X145756880Y-91749547D01*
X145756880Y-91511452D01*
X145804500Y-91416214D01*
X145852119Y-91368595D01*
X145947357Y-91320976D01*
X146042595Y-91320976D01*
X146185452Y-91368595D01*
X146756880Y-91940023D01*
X146756880Y-91320976D01*
X146756880Y-90368595D02*
X146756880Y-90940023D01*
X146756880Y-90654309D02*
X145756880Y-90654309D01*
X145899738Y-90749547D01*
X145994976Y-90844785D01*
X146042595Y-90940023D01*
%TO.C,C22*%
X156969142Y-92944857D02*
X157016761Y-92992476D01*
X157064380Y-93135333D01*
X157064380Y-93230571D01*
X157016761Y-93373428D01*
X156921523Y-93468666D01*
X156826285Y-93516285D01*
X156635809Y-93563904D01*
X156492952Y-93563904D01*
X156302476Y-93516285D01*
X156207238Y-93468666D01*
X156112000Y-93373428D01*
X156064380Y-93230571D01*
X156064380Y-93135333D01*
X156112000Y-92992476D01*
X156159619Y-92944857D01*
X156159619Y-92563904D02*
X156112000Y-92516285D01*
X156064380Y-92421047D01*
X156064380Y-92182952D01*
X156112000Y-92087714D01*
X156159619Y-92040095D01*
X156254857Y-91992476D01*
X156350095Y-91992476D01*
X156492952Y-92040095D01*
X157064380Y-92611523D01*
X157064380Y-91992476D01*
X156159619Y-91611523D02*
X156112000Y-91563904D01*
X156064380Y-91468666D01*
X156064380Y-91230571D01*
X156112000Y-91135333D01*
X156159619Y-91087714D01*
X156254857Y-91040095D01*
X156350095Y-91040095D01*
X156492952Y-91087714D01*
X157064380Y-91659142D01*
X157064380Y-91040095D01*
%TO.C,U3*%
X150622094Y-96543879D02*
X150622094Y-97353403D01*
X150669713Y-97448641D01*
X150717332Y-97496260D01*
X150812570Y-97543879D01*
X151003046Y-97543879D01*
X151098284Y-97496260D01*
X151145903Y-97448641D01*
X151193522Y-97353403D01*
X151193522Y-96543879D01*
X151574475Y-96543879D02*
X152193522Y-96543879D01*
X151860189Y-96924832D01*
X152003046Y-96924832D01*
X152098284Y-96972451D01*
X152145903Y-97020070D01*
X152193522Y-97115308D01*
X152193522Y-97353403D01*
X152145903Y-97448641D01*
X152098284Y-97496260D01*
X152003046Y-97543879D01*
X151717332Y-97543879D01*
X151622094Y-97496260D01*
X151574475Y-97448641D01*
%TO.C,R1*%
X147179380Y-66687666D02*
X146703190Y-67021000D01*
X147179380Y-67259095D02*
X146179380Y-67259095D01*
X146179380Y-66878142D01*
X146227000Y-66782904D01*
X146274619Y-66735285D01*
X146369857Y-66687666D01*
X146512714Y-66687666D01*
X146607952Y-66735285D01*
X146655571Y-66782904D01*
X146703190Y-66878142D01*
X146703190Y-67259095D01*
X147179380Y-65735285D02*
X147179380Y-66306714D01*
X147179380Y-66021000D02*
X146179380Y-66021000D01*
X146322238Y-66116238D01*
X146417476Y-66211476D01*
X146465095Y-66306714D01*
%TO.C,R2*%
X150290380Y-78371666D02*
X149814190Y-78705000D01*
X150290380Y-78943095D02*
X149290380Y-78943095D01*
X149290380Y-78562142D01*
X149338000Y-78466904D01*
X149385619Y-78419285D01*
X149480857Y-78371666D01*
X149623714Y-78371666D01*
X149718952Y-78419285D01*
X149766571Y-78466904D01*
X149814190Y-78562142D01*
X149814190Y-78943095D01*
X149385619Y-77990714D02*
X149338000Y-77943095D01*
X149290380Y-77847857D01*
X149290380Y-77609761D01*
X149338000Y-77514523D01*
X149385619Y-77466904D01*
X149480857Y-77419285D01*
X149576095Y-77419285D01*
X149718952Y-77466904D01*
X150290380Y-78038333D01*
X150290380Y-77419285D01*
%TO.C,R5*%
X153932380Y-78398666D02*
X153456190Y-78732000D01*
X153932380Y-78970095D02*
X152932380Y-78970095D01*
X152932380Y-78589142D01*
X152980000Y-78493904D01*
X153027619Y-78446285D01*
X153122857Y-78398666D01*
X153265714Y-78398666D01*
X153360952Y-78446285D01*
X153408571Y-78493904D01*
X153456190Y-78589142D01*
X153456190Y-78970095D01*
X152932380Y-77493904D02*
X152932380Y-77970095D01*
X153408571Y-78017714D01*
X153360952Y-77970095D01*
X153313333Y-77874857D01*
X153313333Y-77636761D01*
X153360952Y-77541523D01*
X153408571Y-77493904D01*
X153503809Y-77446285D01*
X153741904Y-77446285D01*
X153837142Y-77493904D01*
X153884761Y-77541523D01*
X153932380Y-77636761D01*
X153932380Y-77874857D01*
X153884761Y-77970095D01*
X153837142Y-78017714D01*
%TO.C,R6*%
X158810333Y-85774880D02*
X158477000Y-85298690D01*
X158238904Y-85774880D02*
X158238904Y-84774880D01*
X158619857Y-84774880D01*
X158715095Y-84822500D01*
X158762714Y-84870119D01*
X158810333Y-84965357D01*
X158810333Y-85108214D01*
X158762714Y-85203452D01*
X158715095Y-85251071D01*
X158619857Y-85298690D01*
X158238904Y-85298690D01*
X159667476Y-84774880D02*
X159477000Y-84774880D01*
X159381761Y-84822500D01*
X159334142Y-84870119D01*
X159238904Y-85012976D01*
X159191285Y-85203452D01*
X159191285Y-85584404D01*
X159238904Y-85679642D01*
X159286523Y-85727261D01*
X159381761Y-85774880D01*
X159572238Y-85774880D01*
X159667476Y-85727261D01*
X159715095Y-85679642D01*
X159762714Y-85584404D01*
X159762714Y-85346309D01*
X159715095Y-85251071D01*
X159667476Y-85203452D01*
X159572238Y-85155833D01*
X159381761Y-85155833D01*
X159286523Y-85203452D01*
X159238904Y-85251071D01*
X159191285Y-85346309D01*
%TO.C,R7*%
X165107880Y-78462166D02*
X164631690Y-78795500D01*
X165107880Y-79033595D02*
X164107880Y-79033595D01*
X164107880Y-78652642D01*
X164155500Y-78557404D01*
X164203119Y-78509785D01*
X164298357Y-78462166D01*
X164441214Y-78462166D01*
X164536452Y-78509785D01*
X164584071Y-78557404D01*
X164631690Y-78652642D01*
X164631690Y-79033595D01*
X164107880Y-78128833D02*
X164107880Y-77462166D01*
X165107880Y-77890738D01*
%TO.C,U4*%
X158161095Y-74135380D02*
X158161095Y-74944904D01*
X158208714Y-75040142D01*
X158256333Y-75087761D01*
X158351571Y-75135380D01*
X158542047Y-75135380D01*
X158637285Y-75087761D01*
X158684904Y-75040142D01*
X158732523Y-74944904D01*
X158732523Y-74135380D01*
X159637285Y-74468714D02*
X159637285Y-75135380D01*
X159399190Y-74087761D02*
X159161095Y-74802047D01*
X159780142Y-74802047D01*
%TO.C,K1*%
X105751904Y-83827880D02*
X105751904Y-82827880D01*
X106323333Y-83827880D02*
X105894761Y-83256452D01*
X106323333Y-82827880D02*
X105751904Y-83399309D01*
X107275714Y-83827880D02*
X106704285Y-83827880D01*
X106990000Y-83827880D02*
X106990000Y-82827880D01*
X106894761Y-82970738D01*
X106799523Y-83065976D01*
X106704285Y-83113595D01*
%TO.C,K2*%
X119403904Y-83891380D02*
X119403904Y-82891380D01*
X119975333Y-83891380D02*
X119546761Y-83319952D01*
X119975333Y-82891380D02*
X119403904Y-83462809D01*
X120356285Y-82986619D02*
X120403904Y-82939000D01*
X120499142Y-82891380D01*
X120737238Y-82891380D01*
X120832476Y-82939000D01*
X120880095Y-82986619D01*
X120927714Y-83081857D01*
X120927714Y-83177095D01*
X120880095Y-83319952D01*
X120308666Y-83891380D01*
X120927714Y-83891380D01*
%TO.C,K3*%
X133500904Y-84018380D02*
X133500904Y-83018380D01*
X134072333Y-84018380D02*
X133643761Y-83446952D01*
X134072333Y-83018380D02*
X133500904Y-83589809D01*
X134405666Y-83018380D02*
X135024714Y-83018380D01*
X134691380Y-83399333D01*
X134834238Y-83399333D01*
X134929476Y-83446952D01*
X134977095Y-83494571D01*
X135024714Y-83589809D01*
X135024714Y-83827904D01*
X134977095Y-83923142D01*
X134929476Y-83970761D01*
X134834238Y-84018380D01*
X134548523Y-84018380D01*
X134453285Y-83970761D01*
X134405666Y-83923142D01*
%TO.C,K4*%
X119593904Y-107132380D02*
X119593904Y-106132380D01*
X120165333Y-107132380D02*
X119736761Y-106560952D01*
X120165333Y-106132380D02*
X119593904Y-106703809D01*
X121022476Y-106465714D02*
X121022476Y-107132380D01*
X120784380Y-106084761D02*
X120546285Y-106799047D01*
X121165333Y-106799047D01*
%TO.C,K5*%
X105623904Y-107132380D02*
X105623904Y-106132380D01*
X106195333Y-107132380D02*
X105766761Y-106560952D01*
X106195333Y-106132380D02*
X105623904Y-106703809D01*
X107100095Y-106132380D02*
X106623904Y-106132380D01*
X106576285Y-106608571D01*
X106623904Y-106560952D01*
X106719142Y-106513333D01*
X106957238Y-106513333D01*
X107052476Y-106560952D01*
X107100095Y-106608571D01*
X107147714Y-106703809D01*
X107147714Y-106941904D01*
X107100095Y-107037142D01*
X107052476Y-107084761D01*
X106957238Y-107132380D01*
X106719142Y-107132380D01*
X106623904Y-107084761D01*
X106576285Y-107037142D01*
%TO.C,C27*%
X84737642Y-101237142D02*
X84690023Y-101284761D01*
X84547166Y-101332380D01*
X84451928Y-101332380D01*
X84309071Y-101284761D01*
X84213833Y-101189523D01*
X84166214Y-101094285D01*
X84118595Y-100903809D01*
X84118595Y-100760952D01*
X84166214Y-100570476D01*
X84213833Y-100475238D01*
X84309071Y-100380000D01*
X84451928Y-100332380D01*
X84547166Y-100332380D01*
X84690023Y-100380000D01*
X84737642Y-100427619D01*
X85118595Y-100427619D02*
X85166214Y-100380000D01*
X85261452Y-100332380D01*
X85499547Y-100332380D01*
X85594785Y-100380000D01*
X85642404Y-100427619D01*
X85690023Y-100522857D01*
X85690023Y-100618095D01*
X85642404Y-100760952D01*
X85070976Y-101332380D01*
X85690023Y-101332380D01*
X86023357Y-100332380D02*
X86690023Y-100332380D01*
X86261452Y-101332380D01*
%TO.C,J6*%
X83510666Y-68016380D02*
X83510666Y-67016380D01*
X83986857Y-68016380D02*
X83986857Y-67016380D01*
X84558285Y-68016380D01*
X84558285Y-67016380D01*
X84796380Y-68111619D02*
X85558285Y-68111619D01*
X85748761Y-67730666D02*
X86224952Y-67730666D01*
X85653523Y-68016380D02*
X85986857Y-67016380D01*
X86320190Y-68016380D01*
X87224952Y-67921142D02*
X87177333Y-67968761D01*
X87034476Y-68016380D01*
X86939238Y-68016380D01*
X86796380Y-67968761D01*
X86701142Y-67873523D01*
X86653523Y-67778285D01*
X86605904Y-67587809D01*
X86605904Y-67444952D01*
X86653523Y-67254476D01*
X86701142Y-67159238D01*
X86796380Y-67064000D01*
X86939238Y-67016380D01*
X87034476Y-67016380D01*
X87177333Y-67064000D01*
X87224952Y-67111619D01*
%TO.C,R42*%
X84955142Y-76356380D02*
X84621809Y-75880190D01*
X84383714Y-76356380D02*
X84383714Y-75356380D01*
X84764666Y-75356380D01*
X84859904Y-75404000D01*
X84907523Y-75451619D01*
X84955142Y-75546857D01*
X84955142Y-75689714D01*
X84907523Y-75784952D01*
X84859904Y-75832571D01*
X84764666Y-75880190D01*
X84383714Y-75880190D01*
X85812285Y-75689714D02*
X85812285Y-76356380D01*
X85574190Y-75308761D02*
X85336095Y-76023047D01*
X85955142Y-76023047D01*
X86288476Y-75451619D02*
X86336095Y-75404000D01*
X86431333Y-75356380D01*
X86669428Y-75356380D01*
X86764666Y-75404000D01*
X86812285Y-75451619D01*
X86859904Y-75546857D01*
X86859904Y-75642095D01*
X86812285Y-75784952D01*
X86240857Y-76356380D01*
X86859904Y-76356380D01*
%TO.C,R45*%
X84991642Y-85076380D02*
X84658309Y-84600190D01*
X84420214Y-85076380D02*
X84420214Y-84076380D01*
X84801166Y-84076380D01*
X84896404Y-84124000D01*
X84944023Y-84171619D01*
X84991642Y-84266857D01*
X84991642Y-84409714D01*
X84944023Y-84504952D01*
X84896404Y-84552571D01*
X84801166Y-84600190D01*
X84420214Y-84600190D01*
X85848785Y-84409714D02*
X85848785Y-85076380D01*
X85610690Y-84028761D02*
X85372595Y-84743047D01*
X85991642Y-84743047D01*
X86848785Y-84076380D02*
X86372595Y-84076380D01*
X86324976Y-84552571D01*
X86372595Y-84504952D01*
X86467833Y-84457333D01*
X86705928Y-84457333D01*
X86801166Y-84504952D01*
X86848785Y-84552571D01*
X86896404Y-84647809D01*
X86896404Y-84885904D01*
X86848785Y-84981142D01*
X86801166Y-85028761D01*
X86705928Y-85076380D01*
X86467833Y-85076380D01*
X86372595Y-85028761D01*
X86324976Y-84981142D01*
%TO.C,R48*%
X84737642Y-104888380D02*
X84404309Y-104412190D01*
X84166214Y-104888380D02*
X84166214Y-103888380D01*
X84547166Y-103888380D01*
X84642404Y-103936000D01*
X84690023Y-103983619D01*
X84737642Y-104078857D01*
X84737642Y-104221714D01*
X84690023Y-104316952D01*
X84642404Y-104364571D01*
X84547166Y-104412190D01*
X84166214Y-104412190D01*
X85594785Y-104221714D02*
X85594785Y-104888380D01*
X85356690Y-103840761D02*
X85118595Y-104555047D01*
X85737642Y-104555047D01*
X86261452Y-104316952D02*
X86166214Y-104269333D01*
X86118595Y-104221714D01*
X86070976Y-104126476D01*
X86070976Y-104078857D01*
X86118595Y-103983619D01*
X86166214Y-103936000D01*
X86261452Y-103888380D01*
X86451928Y-103888380D01*
X86547166Y-103936000D01*
X86594785Y-103983619D01*
X86642404Y-104078857D01*
X86642404Y-104126476D01*
X86594785Y-104221714D01*
X86547166Y-104269333D01*
X86451928Y-104316952D01*
X86261452Y-104316952D01*
X86166214Y-104364571D01*
X86118595Y-104412190D01*
X86070976Y-104507428D01*
X86070976Y-104697904D01*
X86118595Y-104793142D01*
X86166214Y-104840761D01*
X86261452Y-104888380D01*
X86451928Y-104888380D01*
X86547166Y-104840761D01*
X86594785Y-104793142D01*
X86642404Y-104697904D01*
X86642404Y-104507428D01*
X86594785Y-104412190D01*
X86547166Y-104364571D01*
X86451928Y-104316952D01*
%TO.C,U5*%
X81037180Y-92455904D02*
X81846704Y-92455904D01*
X81941942Y-92408285D01*
X81989561Y-92360666D01*
X82037180Y-92265428D01*
X82037180Y-92074952D01*
X81989561Y-91979714D01*
X81941942Y-91932095D01*
X81846704Y-91884476D01*
X81037180Y-91884476D01*
X81037180Y-90932095D02*
X81037180Y-91408285D01*
X81513371Y-91455904D01*
X81465752Y-91408285D01*
X81418133Y-91313047D01*
X81418133Y-91074952D01*
X81465752Y-90979714D01*
X81513371Y-90932095D01*
X81608609Y-90884476D01*
X81846704Y-90884476D01*
X81941942Y-90932095D01*
X81989561Y-90979714D01*
X82037180Y-91074952D01*
X82037180Y-91313047D01*
X81989561Y-91408285D01*
X81941942Y-91455904D01*
%TO.C,C28*%
X104285142Y-119550857D02*
X104332761Y-119598476D01*
X104380380Y-119741333D01*
X104380380Y-119836571D01*
X104332761Y-119979428D01*
X104237523Y-120074666D01*
X104142285Y-120122285D01*
X103951809Y-120169904D01*
X103808952Y-120169904D01*
X103618476Y-120122285D01*
X103523238Y-120074666D01*
X103428000Y-119979428D01*
X103380380Y-119836571D01*
X103380380Y-119741333D01*
X103428000Y-119598476D01*
X103475619Y-119550857D01*
X103475619Y-119169904D02*
X103428000Y-119122285D01*
X103380380Y-119027047D01*
X103380380Y-118788952D01*
X103428000Y-118693714D01*
X103475619Y-118646095D01*
X103570857Y-118598476D01*
X103666095Y-118598476D01*
X103808952Y-118646095D01*
X104380380Y-119217523D01*
X104380380Y-118598476D01*
X103808952Y-118027047D02*
X103761333Y-118122285D01*
X103713714Y-118169904D01*
X103618476Y-118217523D01*
X103570857Y-118217523D01*
X103475619Y-118169904D01*
X103428000Y-118122285D01*
X103380380Y-118027047D01*
X103380380Y-117836571D01*
X103428000Y-117741333D01*
X103475619Y-117693714D01*
X103570857Y-117646095D01*
X103618476Y-117646095D01*
X103713714Y-117693714D01*
X103761333Y-117741333D01*
X103808952Y-117836571D01*
X103808952Y-118027047D01*
X103856571Y-118122285D01*
X103904190Y-118169904D01*
X103999428Y-118217523D01*
X104189904Y-118217523D01*
X104285142Y-118169904D01*
X104332761Y-118122285D01*
X104380380Y-118027047D01*
X104380380Y-117836571D01*
X104332761Y-117741333D01*
X104285142Y-117693714D01*
X104189904Y-117646095D01*
X103999428Y-117646095D01*
X103904190Y-117693714D01*
X103856571Y-117741333D01*
X103808952Y-117836571D01*
%TO.C,J7*%
X92178476Y-62444380D02*
X92368952Y-62444380D01*
X92464190Y-62492000D01*
X92559428Y-62587238D01*
X92607047Y-62777714D01*
X92607047Y-63111047D01*
X92559428Y-63301523D01*
X92464190Y-63396761D01*
X92368952Y-63444380D01*
X92178476Y-63444380D01*
X92083238Y-63396761D01*
X91988000Y-63301523D01*
X91940380Y-63111047D01*
X91940380Y-62777714D01*
X91988000Y-62587238D01*
X92083238Y-62492000D01*
X92178476Y-62444380D01*
X93035619Y-62444380D02*
X93035619Y-63253904D01*
X93083238Y-63349142D01*
X93130857Y-63396761D01*
X93226095Y-63444380D01*
X93416571Y-63444380D01*
X93511809Y-63396761D01*
X93559428Y-63349142D01*
X93607047Y-63253904D01*
X93607047Y-62444380D01*
X93940380Y-62444380D02*
X94511809Y-62444380D01*
X94226095Y-63444380D02*
X94226095Y-62444380D01*
X94607047Y-63539619D02*
X95368952Y-63539619D01*
X95559428Y-63158666D02*
X96035619Y-63158666D01*
X95464190Y-63444380D02*
X95797523Y-62444380D01*
X96130857Y-63444380D01*
X97035619Y-63349142D02*
X96988000Y-63396761D01*
X96845142Y-63444380D01*
X96749904Y-63444380D01*
X96607047Y-63396761D01*
X96511809Y-63301523D01*
X96464190Y-63206285D01*
X96416571Y-63015809D01*
X96416571Y-62872952D01*
X96464190Y-62682476D01*
X96511809Y-62587238D01*
X96607047Y-62492000D01*
X96749904Y-62444380D01*
X96845142Y-62444380D01*
X96988000Y-62492000D01*
X97035619Y-62539619D01*
%TO.C,R49*%
X92908380Y-75318857D02*
X92432190Y-75652190D01*
X92908380Y-75890285D02*
X91908380Y-75890285D01*
X91908380Y-75509333D01*
X91956000Y-75414095D01*
X92003619Y-75366476D01*
X92098857Y-75318857D01*
X92241714Y-75318857D01*
X92336952Y-75366476D01*
X92384571Y-75414095D01*
X92432190Y-75509333D01*
X92432190Y-75890285D01*
X92241714Y-74461714D02*
X92908380Y-74461714D01*
X91860761Y-74699809D02*
X92575047Y-74937904D01*
X92575047Y-74318857D01*
X92908380Y-73890285D02*
X92908380Y-73699809D01*
X92860761Y-73604571D01*
X92813142Y-73556952D01*
X92670285Y-73461714D01*
X92479809Y-73414095D01*
X92098857Y-73414095D01*
X92003619Y-73461714D01*
X91956000Y-73509333D01*
X91908380Y-73604571D01*
X91908380Y-73795047D01*
X91956000Y-73890285D01*
X92003619Y-73937904D01*
X92098857Y-73985523D01*
X92336952Y-73985523D01*
X92432190Y-73937904D01*
X92479809Y-73890285D01*
X92527428Y-73795047D01*
X92527428Y-73604571D01*
X92479809Y-73509333D01*
X92432190Y-73461714D01*
X92336952Y-73414095D01*
%TO.C,R51*%
X92908380Y-84970857D02*
X92432190Y-85304190D01*
X92908380Y-85542285D02*
X91908380Y-85542285D01*
X91908380Y-85161333D01*
X91956000Y-85066095D01*
X92003619Y-85018476D01*
X92098857Y-84970857D01*
X92241714Y-84970857D01*
X92336952Y-85018476D01*
X92384571Y-85066095D01*
X92432190Y-85161333D01*
X92432190Y-85542285D01*
X91908380Y-84066095D02*
X91908380Y-84542285D01*
X92384571Y-84589904D01*
X92336952Y-84542285D01*
X92289333Y-84447047D01*
X92289333Y-84208952D01*
X92336952Y-84113714D01*
X92384571Y-84066095D01*
X92479809Y-84018476D01*
X92717904Y-84018476D01*
X92813142Y-84066095D01*
X92860761Y-84113714D01*
X92908380Y-84208952D01*
X92908380Y-84447047D01*
X92860761Y-84542285D01*
X92813142Y-84589904D01*
X92908380Y-83066095D02*
X92908380Y-83637523D01*
X92908380Y-83351809D02*
X91908380Y-83351809D01*
X92051238Y-83447047D01*
X92146476Y-83542285D01*
X92194095Y-83637523D01*
%TO.C,R54*%
X107936380Y-119550857D02*
X107460190Y-119884190D01*
X107936380Y-120122285D02*
X106936380Y-120122285D01*
X106936380Y-119741333D01*
X106984000Y-119646095D01*
X107031619Y-119598476D01*
X107126857Y-119550857D01*
X107269714Y-119550857D01*
X107364952Y-119598476D01*
X107412571Y-119646095D01*
X107460190Y-119741333D01*
X107460190Y-120122285D01*
X106936380Y-118646095D02*
X106936380Y-119122285D01*
X107412571Y-119169904D01*
X107364952Y-119122285D01*
X107317333Y-119027047D01*
X107317333Y-118788952D01*
X107364952Y-118693714D01*
X107412571Y-118646095D01*
X107507809Y-118598476D01*
X107745904Y-118598476D01*
X107841142Y-118646095D01*
X107888761Y-118693714D01*
X107936380Y-118788952D01*
X107936380Y-119027047D01*
X107888761Y-119122285D01*
X107841142Y-119169904D01*
X107269714Y-117741333D02*
X107936380Y-117741333D01*
X106888761Y-117979428D02*
X107603047Y-118217523D01*
X107603047Y-117598476D01*
%TO.C,U6*%
X95762380Y-111759904D02*
X96571904Y-111759904D01*
X96667142Y-111712285D01*
X96714761Y-111664666D01*
X96762380Y-111569428D01*
X96762380Y-111378952D01*
X96714761Y-111283714D01*
X96667142Y-111236095D01*
X96571904Y-111188476D01*
X95762380Y-111188476D01*
X95762380Y-110283714D02*
X95762380Y-110474190D01*
X95810000Y-110569428D01*
X95857619Y-110617047D01*
X96000476Y-110712285D01*
X96190952Y-110759904D01*
X96571904Y-110759904D01*
X96667142Y-110712285D01*
X96714761Y-110664666D01*
X96762380Y-110569428D01*
X96762380Y-110378952D01*
X96714761Y-110283714D01*
X96667142Y-110236095D01*
X96571904Y-110188476D01*
X96333809Y-110188476D01*
X96238571Y-110236095D01*
X96190952Y-110283714D01*
X96143333Y-110378952D01*
X96143333Y-110569428D01*
X96190952Y-110664666D01*
X96238571Y-110712285D01*
X96333809Y-110759904D01*
%TD*%
M02*
