%TF.GenerationSoftware,KiCad,Pcbnew,(5.1.4-0-10_14)*%
%TF.CreationDate,2019-11-24T22:14:09+02:00*%
%TF.ProjectId,READY,52454144-592e-46b6-9963-61645f706362,3.0*%
%TF.SameCoordinates,Original*%
%TF.FileFunction,Profile,NP*%
%FSLAX46Y46*%
G04 Gerber Fmt 4.6, Leading zero omitted, Abs format (unit mm)*
G04 Created by KiCad (PCBNEW (5.1.4-0-10_14)) date 2019-11-24 22:14:09*
%MOMM*%
%LPD*%
G04 APERTURE LIST*
%ADD10C,0.050000*%
G04 APERTURE END LIST*
D10*
X101600000Y-58420000D02*
X99568000Y-58420000D01*
X101600000Y-65532000D02*
X101600000Y-58420000D01*
X99568000Y-65532000D02*
X101600000Y-65532000D01*
X99568000Y-58420000D02*
X99568000Y-65532000D01*
X96012000Y-100584000D02*
X96012000Y-66040000D01*
X94488000Y-100584000D02*
X96012000Y-100584000D01*
X94488000Y-66040000D02*
X94488000Y-100584000D01*
X96012000Y-66040000D02*
X94488000Y-66040000D01*
X120904000Y-113792000D02*
X122428000Y-113792000D01*
X120904000Y-121920000D02*
X120904000Y-113792000D01*
X122428000Y-121920000D02*
X120904000Y-121920000D01*
X122428000Y-113792000D02*
X122428000Y-121920000D01*
X89154000Y-100584000D02*
X89154000Y-66040000D01*
X90678000Y-100584000D02*
X89154000Y-100584000D01*
X90678000Y-66040000D02*
X90678000Y-100584000D01*
X89154000Y-66040000D02*
X90678000Y-66040000D01*
X80823000Y-60501000D02*
G75*
G02X83363000Y-57961000I2540000J0D01*
G01*
X206723000Y-57961000D02*
G75*
G02X209263000Y-60501000I0J-2540000D01*
G01*
X209263000Y-119757200D02*
G75*
G02X206723000Y-122297200I-2540000J0D01*
G01*
X83363000Y-122297200D02*
G75*
G02X80823000Y-119757200I0J2540000D01*
G01*
X206723000Y-57961000D02*
X83363000Y-57961000D01*
X209263000Y-119757200D02*
X209263000Y-60501000D01*
X83363000Y-122297200D02*
X206723000Y-122297200D01*
X80823000Y-60501000D02*
X80823000Y-119757200D01*
M02*
