%TF.GenerationSoftware,KiCad,Pcbnew,(5.1.4-0-10_14)*%
%TF.CreationDate,2019-11-24T22:14:09+02:00*%
%TF.ProjectId,READY,52454144-592e-46b6-9963-61645f706362,3.0*%
%TF.SameCoordinates,Original*%
%TF.FileFunction,Legend,Bot*%
%TF.FilePolarity,Positive*%
%FSLAX46Y46*%
G04 Gerber Fmt 4.6, Leading zero omitted, Abs format (unit mm)*
G04 Created by KiCad (PCBNEW (5.1.4-0-10_14)) date 2019-11-24 22:14:09*
%MOMM*%
%LPD*%
G04 APERTURE LIST*
%ADD10C,0.312500*%
%ADD11C,0.500000*%
%ADD12C,0.120000*%
%ADD13C,0.010000*%
%ADD14C,0.150000*%
G04 APERTURE END LIST*
D10*
X206677038Y-102665742D02*
X206498466Y-102725266D01*
X206200847Y-102725266D01*
X206081800Y-102665742D01*
X206022276Y-102606218D01*
X205962752Y-102487170D01*
X205962752Y-102368123D01*
X206022276Y-102249075D01*
X206081800Y-102189551D01*
X206200847Y-102130028D01*
X206438942Y-102070504D01*
X206557990Y-102010980D01*
X206617514Y-101951456D01*
X206677038Y-101832409D01*
X206677038Y-101713361D01*
X206617514Y-101594313D01*
X206557990Y-101534790D01*
X206438942Y-101475266D01*
X206141323Y-101475266D01*
X205962752Y-101534790D01*
X205427038Y-102725266D02*
X205427038Y-101475266D01*
X204891323Y-102725266D02*
X204891323Y-102070504D01*
X204950847Y-101951456D01*
X205069895Y-101891932D01*
X205248466Y-101891932D01*
X205367514Y-101951456D01*
X205427038Y-102010980D01*
X203819895Y-102665742D02*
X203938942Y-102725266D01*
X204177038Y-102725266D01*
X204296085Y-102665742D01*
X204355609Y-102546694D01*
X204355609Y-102070504D01*
X204296085Y-101951456D01*
X204177038Y-101891932D01*
X203938942Y-101891932D01*
X203819895Y-101951456D01*
X203760371Y-102070504D01*
X203760371Y-102189551D01*
X204355609Y-102308599D01*
X203224657Y-101891932D02*
X203224657Y-103141932D01*
X203224657Y-101951456D02*
X203105609Y-101891932D01*
X202867514Y-101891932D01*
X202748466Y-101951456D01*
X202688942Y-102010980D01*
X202629419Y-102130028D01*
X202629419Y-102487170D01*
X202688942Y-102606218D01*
X202748466Y-102665742D01*
X202867514Y-102725266D01*
X203105609Y-102725266D01*
X203224657Y-102665742D01*
X201557990Y-102725266D02*
X201557990Y-102070504D01*
X201617514Y-101951456D01*
X201736561Y-101891932D01*
X201974657Y-101891932D01*
X202093704Y-101951456D01*
X201557990Y-102665742D02*
X201677038Y-102725266D01*
X201974657Y-102725266D01*
X202093704Y-102665742D01*
X202153228Y-102546694D01*
X202153228Y-102427647D01*
X202093704Y-102308599D01*
X201974657Y-102249075D01*
X201677038Y-102249075D01*
X201557990Y-102189551D01*
X200962752Y-102725266D02*
X200962752Y-101891932D01*
X200962752Y-102130028D02*
X200903228Y-102010980D01*
X200843704Y-101951456D01*
X200724657Y-101891932D01*
X200605609Y-101891932D01*
X199653228Y-102725266D02*
X199653228Y-101475266D01*
X199653228Y-102665742D02*
X199772276Y-102725266D01*
X200010371Y-102725266D01*
X200129419Y-102665742D01*
X200188942Y-102606218D01*
X200248466Y-102487170D01*
X200248466Y-102130028D01*
X200188942Y-102010980D01*
X200129419Y-101951456D01*
X200010371Y-101891932D01*
X199772276Y-101891932D01*
X199653228Y-101951456D01*
X199057990Y-102249075D02*
X198105609Y-102249075D01*
X197510371Y-102725266D02*
X197510371Y-101475266D01*
X197093704Y-102368123D01*
X196677038Y-101475266D01*
X196677038Y-102725266D01*
X196200847Y-101475266D02*
X195367514Y-102725266D01*
X195367514Y-101475266D02*
X196200847Y-102725266D01*
X195010371Y-101475266D02*
X194236561Y-101475266D01*
X194653228Y-101951456D01*
X194474657Y-101951456D01*
X194355609Y-102010980D01*
X194296085Y-102070504D01*
X194236561Y-102189551D01*
X194236561Y-102487170D01*
X194296085Y-102606218D01*
X194355609Y-102665742D01*
X194474657Y-102725266D01*
X194831800Y-102725266D01*
X194950847Y-102665742D01*
X195010371Y-102606218D01*
X206290133Y-103781813D02*
X206230609Y-103722290D01*
X206111561Y-103662766D01*
X205813942Y-103662766D01*
X205694895Y-103722290D01*
X205635371Y-103781813D01*
X205575847Y-103900861D01*
X205575847Y-104019909D01*
X205635371Y-104198480D01*
X206349657Y-104912766D01*
X205575847Y-104912766D01*
X204504419Y-104079432D02*
X204504419Y-104912766D01*
X204802038Y-103603242D02*
X205099657Y-104496099D01*
X204325847Y-104496099D01*
X202956800Y-103603242D02*
X204028228Y-105210385D01*
X201885371Y-104912766D02*
X202599657Y-104912766D01*
X202242514Y-104912766D02*
X202242514Y-103662766D01*
X202361561Y-103841337D01*
X202480609Y-103960385D01*
X202599657Y-104019909D01*
X200694895Y-104912766D02*
X201409180Y-104912766D01*
X201052038Y-104912766D02*
X201052038Y-103662766D01*
X201171085Y-103841337D01*
X201290133Y-103960385D01*
X201409180Y-104019909D01*
X199266323Y-103603242D02*
X200337752Y-105210385D01*
X198909180Y-103781813D02*
X198849657Y-103722290D01*
X198730609Y-103662766D01*
X198432990Y-103662766D01*
X198313942Y-103722290D01*
X198254419Y-103781813D01*
X198194895Y-103900861D01*
X198194895Y-104019909D01*
X198254419Y-104198480D01*
X198968704Y-104912766D01*
X198194895Y-104912766D01*
X197421085Y-103662766D02*
X197302038Y-103662766D01*
X197182990Y-103722290D01*
X197123466Y-103781813D01*
X197063942Y-103900861D01*
X197004419Y-104138956D01*
X197004419Y-104436575D01*
X197063942Y-104674670D01*
X197123466Y-104793718D01*
X197182990Y-104853242D01*
X197302038Y-104912766D01*
X197421085Y-104912766D01*
X197540133Y-104853242D01*
X197599657Y-104793718D01*
X197659180Y-104674670D01*
X197718704Y-104436575D01*
X197718704Y-104138956D01*
X197659180Y-103900861D01*
X197599657Y-103781813D01*
X197540133Y-103722290D01*
X197421085Y-103662766D01*
X195813942Y-104912766D02*
X196528228Y-104912766D01*
X196171085Y-104912766D02*
X196171085Y-103662766D01*
X196290133Y-103841337D01*
X196409180Y-103960385D01*
X196528228Y-104019909D01*
X195218704Y-104912766D02*
X194980609Y-104912766D01*
X194861561Y-104853242D01*
X194802038Y-104793718D01*
X194682990Y-104615147D01*
X194623466Y-104377051D01*
X194623466Y-103900861D01*
X194682990Y-103781813D01*
X194742514Y-103722290D01*
X194861561Y-103662766D01*
X195099657Y-103662766D01*
X195218704Y-103722290D01*
X195278228Y-103781813D01*
X195337752Y-103900861D01*
X195337752Y-104198480D01*
X195278228Y-104317528D01*
X195218704Y-104377051D01*
X195099657Y-104436575D01*
X194861561Y-104436575D01*
X194742514Y-104377051D01*
X194682990Y-104317528D01*
X194623466Y-104198480D01*
D11*
X207350360Y-100098860D02*
X193380360Y-100098860D01*
X207350360Y-106448860D02*
X207350360Y-100098860D01*
X193380360Y-106456480D02*
X207350360Y-106448860D01*
X193380360Y-100098860D02*
X193390520Y-106451400D01*
D12*
%TO.C,C10*%
X183531000Y-70243700D02*
G75*
G03X183531000Y-70243700I-4120000J0D01*
G01*
X179411000Y-74323700D02*
X179411000Y-66163700D01*
X179451000Y-74323700D02*
X179451000Y-66163700D01*
X179491000Y-74323700D02*
X179491000Y-66163700D01*
X179531000Y-74322700D02*
X179531000Y-66164700D01*
X179571000Y-74320700D02*
X179571000Y-66166700D01*
X179611000Y-74319700D02*
X179611000Y-66167700D01*
X179651000Y-74317700D02*
X179651000Y-66169700D01*
X179691000Y-74314700D02*
X179691000Y-66172700D01*
X179731000Y-74311700D02*
X179731000Y-66175700D01*
X179771000Y-74308700D02*
X179771000Y-66178700D01*
X179811000Y-74304700D02*
X179811000Y-66182700D01*
X179851000Y-74300700D02*
X179851000Y-66186700D01*
X179891000Y-74295700D02*
X179891000Y-66191700D01*
X179931000Y-74291700D02*
X179931000Y-66195700D01*
X179971000Y-74285700D02*
X179971000Y-66201700D01*
X180011000Y-74280700D02*
X180011000Y-66206700D01*
X180051000Y-74273700D02*
X180051000Y-66213700D01*
X180091000Y-74267700D02*
X180091000Y-66219700D01*
X180132000Y-74260700D02*
X180132000Y-66226700D01*
X180172000Y-74253700D02*
X180172000Y-66233700D01*
X180212000Y-74245700D02*
X180212000Y-66241700D01*
X180252000Y-74237700D02*
X180252000Y-66249700D01*
X180292000Y-74228700D02*
X180292000Y-66258700D01*
X180332000Y-74219700D02*
X180332000Y-66267700D01*
X180372000Y-74210700D02*
X180372000Y-66276700D01*
X180412000Y-74200700D02*
X180412000Y-66286700D01*
X180452000Y-74190700D02*
X180452000Y-66296700D01*
X180492000Y-74179700D02*
X180492000Y-66307700D01*
X180532000Y-74168700D02*
X180532000Y-66318700D01*
X180572000Y-74157700D02*
X180572000Y-66329700D01*
X180612000Y-74145700D02*
X180612000Y-66341700D01*
X180652000Y-74132700D02*
X180652000Y-66354700D01*
X180692000Y-74120700D02*
X180692000Y-66366700D01*
X180732000Y-74106700D02*
X180732000Y-66380700D01*
X180772000Y-74093700D02*
X180772000Y-66393700D01*
X180812000Y-74078700D02*
X180812000Y-66408700D01*
X180852000Y-74064700D02*
X180852000Y-66422700D01*
X180892000Y-74048700D02*
X180892000Y-71283700D01*
X180892000Y-69203700D02*
X180892000Y-66438700D01*
X180932000Y-74033700D02*
X180932000Y-71283700D01*
X180932000Y-69203700D02*
X180932000Y-66453700D01*
X180972000Y-74017700D02*
X180972000Y-71283700D01*
X180972000Y-69203700D02*
X180972000Y-66469700D01*
X181012000Y-74000700D02*
X181012000Y-71283700D01*
X181012000Y-69203700D02*
X181012000Y-66486700D01*
X181052000Y-73983700D02*
X181052000Y-71283700D01*
X181052000Y-69203700D02*
X181052000Y-66503700D01*
X181092000Y-73965700D02*
X181092000Y-71283700D01*
X181092000Y-69203700D02*
X181092000Y-66521700D01*
X181132000Y-73947700D02*
X181132000Y-71283700D01*
X181132000Y-69203700D02*
X181132000Y-66539700D01*
X181172000Y-73929700D02*
X181172000Y-71283700D01*
X181172000Y-69203700D02*
X181172000Y-66557700D01*
X181212000Y-73909700D02*
X181212000Y-71283700D01*
X181212000Y-69203700D02*
X181212000Y-66577700D01*
X181252000Y-73890700D02*
X181252000Y-71283700D01*
X181252000Y-69203700D02*
X181252000Y-66596700D01*
X181292000Y-73870700D02*
X181292000Y-71283700D01*
X181292000Y-69203700D02*
X181292000Y-66616700D01*
X181332000Y-73849700D02*
X181332000Y-71283700D01*
X181332000Y-69203700D02*
X181332000Y-66637700D01*
X181372000Y-73827700D02*
X181372000Y-71283700D01*
X181372000Y-69203700D02*
X181372000Y-66659700D01*
X181412000Y-73805700D02*
X181412000Y-71283700D01*
X181412000Y-69203700D02*
X181412000Y-66681700D01*
X181452000Y-73783700D02*
X181452000Y-71283700D01*
X181452000Y-69203700D02*
X181452000Y-66703700D01*
X181492000Y-73760700D02*
X181492000Y-71283700D01*
X181492000Y-69203700D02*
X181492000Y-66726700D01*
X181532000Y-73736700D02*
X181532000Y-71283700D01*
X181532000Y-69203700D02*
X181532000Y-66750700D01*
X181572000Y-73712700D02*
X181572000Y-71283700D01*
X181572000Y-69203700D02*
X181572000Y-66774700D01*
X181612000Y-73687700D02*
X181612000Y-71283700D01*
X181612000Y-69203700D02*
X181612000Y-66799700D01*
X181652000Y-73661700D02*
X181652000Y-71283700D01*
X181652000Y-69203700D02*
X181652000Y-66825700D01*
X181692000Y-73635700D02*
X181692000Y-71283700D01*
X181692000Y-69203700D02*
X181692000Y-66851700D01*
X181732000Y-73608700D02*
X181732000Y-71283700D01*
X181732000Y-69203700D02*
X181732000Y-66878700D01*
X181772000Y-73581700D02*
X181772000Y-71283700D01*
X181772000Y-69203700D02*
X181772000Y-66905700D01*
X181812000Y-73552700D02*
X181812000Y-71283700D01*
X181812000Y-69203700D02*
X181812000Y-66934700D01*
X181852000Y-73523700D02*
X181852000Y-71283700D01*
X181852000Y-69203700D02*
X181852000Y-66963700D01*
X181892000Y-73493700D02*
X181892000Y-71283700D01*
X181892000Y-69203700D02*
X181892000Y-66993700D01*
X181932000Y-73463700D02*
X181932000Y-71283700D01*
X181932000Y-69203700D02*
X181932000Y-67023700D01*
X181972000Y-73432700D02*
X181972000Y-71283700D01*
X181972000Y-69203700D02*
X181972000Y-67054700D01*
X182012000Y-73399700D02*
X182012000Y-71283700D01*
X182012000Y-69203700D02*
X182012000Y-67087700D01*
X182052000Y-73367700D02*
X182052000Y-71283700D01*
X182052000Y-69203700D02*
X182052000Y-67119700D01*
X182092000Y-73333700D02*
X182092000Y-71283700D01*
X182092000Y-69203700D02*
X182092000Y-67153700D01*
X182132000Y-73298700D02*
X182132000Y-71283700D01*
X182132000Y-69203700D02*
X182132000Y-67188700D01*
X182172000Y-73262700D02*
X182172000Y-71283700D01*
X182172000Y-69203700D02*
X182172000Y-67224700D01*
X182212000Y-73226700D02*
X182212000Y-71283700D01*
X182212000Y-69203700D02*
X182212000Y-67260700D01*
X182252000Y-73188700D02*
X182252000Y-71283700D01*
X182252000Y-69203700D02*
X182252000Y-67298700D01*
X182292000Y-73150700D02*
X182292000Y-71283700D01*
X182292000Y-69203700D02*
X182292000Y-67336700D01*
X182332000Y-73110700D02*
X182332000Y-71283700D01*
X182332000Y-69203700D02*
X182332000Y-67376700D01*
X182372000Y-73069700D02*
X182372000Y-71283700D01*
X182372000Y-69203700D02*
X182372000Y-67417700D01*
X182412000Y-73027700D02*
X182412000Y-71283700D01*
X182412000Y-69203700D02*
X182412000Y-67459700D01*
X182452000Y-72984700D02*
X182452000Y-71283700D01*
X182452000Y-69203700D02*
X182452000Y-67502700D01*
X182492000Y-72940700D02*
X182492000Y-71283700D01*
X182492000Y-69203700D02*
X182492000Y-67546700D01*
X182532000Y-72894700D02*
X182532000Y-71283700D01*
X182532000Y-69203700D02*
X182532000Y-67592700D01*
X182572000Y-72847700D02*
X182572000Y-71283700D01*
X182572000Y-69203700D02*
X182572000Y-67639700D01*
X182612000Y-72799700D02*
X182612000Y-71283700D01*
X182612000Y-69203700D02*
X182612000Y-67687700D01*
X182652000Y-72748700D02*
X182652000Y-71283700D01*
X182652000Y-69203700D02*
X182652000Y-67738700D01*
X182692000Y-72697700D02*
X182692000Y-71283700D01*
X182692000Y-69203700D02*
X182692000Y-67789700D01*
X182732000Y-72643700D02*
X182732000Y-71283700D01*
X182732000Y-69203700D02*
X182732000Y-67843700D01*
X182772000Y-72588700D02*
X182772000Y-71283700D01*
X182772000Y-69203700D02*
X182772000Y-67898700D01*
X182812000Y-72530700D02*
X182812000Y-71283700D01*
X182812000Y-69203700D02*
X182812000Y-67956700D01*
X182852000Y-72471700D02*
X182852000Y-71283700D01*
X182852000Y-69203700D02*
X182852000Y-68015700D01*
X182892000Y-72409700D02*
X182892000Y-71283700D01*
X182892000Y-69203700D02*
X182892000Y-68077700D01*
X182932000Y-72345700D02*
X182932000Y-71283700D01*
X182932000Y-69203700D02*
X182932000Y-68141700D01*
X182972000Y-72277700D02*
X182972000Y-68209700D01*
X183012000Y-72207700D02*
X183012000Y-68279700D01*
X183052000Y-72133700D02*
X183052000Y-68353700D01*
X183092000Y-72056700D02*
X183092000Y-68430700D01*
X183132000Y-71974700D02*
X183132000Y-68512700D01*
X183172000Y-71888700D02*
X183172000Y-68598700D01*
X183212000Y-71795700D02*
X183212000Y-68691700D01*
X183252000Y-71696700D02*
X183252000Y-68790700D01*
X183292000Y-71589700D02*
X183292000Y-68897700D01*
X183332000Y-71472700D02*
X183332000Y-69014700D01*
X183372000Y-71341700D02*
X183372000Y-69145700D01*
X183412000Y-71191700D02*
X183412000Y-69295700D01*
X183452000Y-71011700D02*
X183452000Y-69475700D01*
X183492000Y-70776700D02*
X183492000Y-69710700D01*
X175001302Y-72558700D02*
X175801302Y-72558700D01*
X175401302Y-72958700D02*
X175401302Y-72158700D01*
D13*
%TO.C,G\002A\002A\002A*%
G36*
X195048011Y-77283251D02*
G01*
X194935123Y-77346403D01*
X194818936Y-77443268D01*
X194758734Y-77535363D01*
X194695234Y-77661171D01*
X194695234Y-80025287D01*
X194695152Y-80460423D01*
X194695108Y-80842734D01*
X194695401Y-81175838D01*
X194696330Y-81463354D01*
X194698194Y-81708900D01*
X194701294Y-81916096D01*
X194705930Y-82088558D01*
X194712400Y-82229907D01*
X194721004Y-82343760D01*
X194732042Y-82433736D01*
X194745814Y-82503454D01*
X194762618Y-82556532D01*
X194782756Y-82596589D01*
X194806525Y-82627243D01*
X194834226Y-82652113D01*
X194866159Y-82674817D01*
X194902623Y-82698974D01*
X194917436Y-82709083D01*
X195048011Y-82799767D01*
X201129900Y-82805855D01*
X201838403Y-82806514D01*
X202492504Y-82807009D01*
X203094246Y-82807331D01*
X203645673Y-82807469D01*
X204148827Y-82807413D01*
X204605750Y-82807151D01*
X205018486Y-82806675D01*
X205389078Y-82805973D01*
X205719567Y-82805035D01*
X206011998Y-82803851D01*
X206268412Y-82802410D01*
X206490853Y-82800702D01*
X206681364Y-82798716D01*
X206841986Y-82796442D01*
X206974764Y-82793871D01*
X207081740Y-82790990D01*
X207164956Y-82787791D01*
X207226455Y-82784262D01*
X207268281Y-82780393D01*
X207292476Y-82776175D01*
X207297415Y-82774503D01*
X207409860Y-82703572D01*
X207509928Y-82602284D01*
X207579715Y-82490109D01*
X207593475Y-82452563D01*
X207599564Y-82406587D01*
X207604740Y-82313089D01*
X207609012Y-82171024D01*
X207612390Y-81979346D01*
X207614882Y-81737011D01*
X207616498Y-81442973D01*
X207617247Y-81096188D01*
X207617138Y-80695610D01*
X207616182Y-80240194D01*
X207615331Y-79975465D01*
X207611129Y-78792729D01*
X207476063Y-78792729D01*
X207475661Y-79085049D01*
X207474872Y-79424275D01*
X207473768Y-79814099D01*
X207473009Y-80066312D01*
X207471702Y-80487302D01*
X207470444Y-80855495D01*
X207469142Y-81174541D01*
X207467698Y-81448087D01*
X207466019Y-81679782D01*
X207464009Y-81873275D01*
X207461572Y-82032212D01*
X207458613Y-82160243D01*
X207455038Y-82261016D01*
X207450750Y-82338179D01*
X207445654Y-82395380D01*
X207439656Y-82436268D01*
X207432660Y-82464490D01*
X207424571Y-82483696D01*
X207415293Y-82497533D01*
X207409345Y-82504520D01*
X207343672Y-82565455D01*
X207268234Y-82620258D01*
X207257154Y-82626224D01*
X207242506Y-82631718D01*
X207222033Y-82636761D01*
X207193472Y-82641372D01*
X207154565Y-82645569D01*
X207103052Y-82649373D01*
X207036672Y-82652803D01*
X206953166Y-82655878D01*
X206850274Y-82658617D01*
X206725736Y-82661041D01*
X206577292Y-82663168D01*
X206402682Y-82665017D01*
X206199646Y-82666609D01*
X205965924Y-82667963D01*
X205699257Y-82669097D01*
X205397384Y-82670032D01*
X205058046Y-82670787D01*
X204678982Y-82671381D01*
X204257933Y-82671834D01*
X203792639Y-82672164D01*
X203280840Y-82672392D01*
X202720276Y-82672537D01*
X202108687Y-82672618D01*
X201443814Y-82672655D01*
X201163777Y-82672661D01*
X200465307Y-82672631D01*
X199821151Y-82672506D01*
X199229180Y-82672273D01*
X198687264Y-82671916D01*
X198193271Y-82671424D01*
X197745073Y-82670781D01*
X197340540Y-82669974D01*
X196977541Y-82668989D01*
X196653946Y-82667813D01*
X196367626Y-82666431D01*
X196116451Y-82664830D01*
X195898289Y-82662996D01*
X195711013Y-82660915D01*
X195552490Y-82658574D01*
X195420593Y-82655957D01*
X195313189Y-82653053D01*
X195228150Y-82649846D01*
X195163346Y-82646323D01*
X195116646Y-82642471D01*
X195085921Y-82638274D01*
X195069040Y-82633721D01*
X195067777Y-82633115D01*
X194994144Y-82583649D01*
X194922358Y-82519394D01*
X194921011Y-82517960D01*
X194850456Y-82442457D01*
X194835410Y-77687167D01*
X194899940Y-77590578D01*
X194968632Y-77513076D01*
X195051899Y-77450425D01*
X195062685Y-77444644D01*
X195076112Y-77439003D01*
X195094533Y-77433807D01*
X195120206Y-77429039D01*
X195155391Y-77424680D01*
X195202347Y-77420712D01*
X195263333Y-77417117D01*
X195340609Y-77413876D01*
X195436434Y-77410971D01*
X195553067Y-77408385D01*
X195692768Y-77406098D01*
X195857796Y-77404093D01*
X196050409Y-77402352D01*
X196272868Y-77400855D01*
X196527432Y-77399586D01*
X196816360Y-77398525D01*
X197141911Y-77397655D01*
X197506344Y-77396957D01*
X197911919Y-77396413D01*
X198360896Y-77396005D01*
X198855532Y-77395714D01*
X199398089Y-77395523D01*
X199990824Y-77395413D01*
X200635998Y-77395366D01*
X201172234Y-77395361D01*
X201857901Y-77395374D01*
X202489391Y-77395413D01*
X203068972Y-77395499D01*
X203598909Y-77395653D01*
X204081472Y-77395895D01*
X204518926Y-77396246D01*
X204913538Y-77396728D01*
X205267578Y-77397360D01*
X205583310Y-77398164D01*
X205863004Y-77399162D01*
X206108925Y-77400372D01*
X206323342Y-77401817D01*
X206508521Y-77403518D01*
X206666730Y-77405494D01*
X206800236Y-77407768D01*
X206911307Y-77410360D01*
X207002208Y-77413290D01*
X207075209Y-77416580D01*
X207132575Y-77420250D01*
X207176575Y-77424321D01*
X207209475Y-77428815D01*
X207233542Y-77433752D01*
X207251045Y-77439152D01*
X207264250Y-77445037D01*
X207275424Y-77451428D01*
X207275547Y-77451503D01*
X207355363Y-77516441D01*
X207421877Y-77596354D01*
X207423878Y-77599565D01*
X207433864Y-77617010D01*
X207442580Y-77637055D01*
X207450100Y-77663390D01*
X207456496Y-77699709D01*
X207461843Y-77749704D01*
X207466214Y-77817066D01*
X207469683Y-77905488D01*
X207472322Y-78018663D01*
X207474207Y-78160282D01*
X207475409Y-78334038D01*
X207476003Y-78543623D01*
X207476063Y-78792729D01*
X207611129Y-78792729D01*
X207606900Y-77602719D01*
X207538890Y-77503476D01*
X207471344Y-77422309D01*
X207393722Y-77351786D01*
X207381921Y-77343278D01*
X207292963Y-77282323D01*
X195048011Y-77283251D01*
X195048011Y-77283251D01*
G37*
X195048011Y-77283251D02*
X194935123Y-77346403D01*
X194818936Y-77443268D01*
X194758734Y-77535363D01*
X194695234Y-77661171D01*
X194695234Y-80025287D01*
X194695152Y-80460423D01*
X194695108Y-80842734D01*
X194695401Y-81175838D01*
X194696330Y-81463354D01*
X194698194Y-81708900D01*
X194701294Y-81916096D01*
X194705930Y-82088558D01*
X194712400Y-82229907D01*
X194721004Y-82343760D01*
X194732042Y-82433736D01*
X194745814Y-82503454D01*
X194762618Y-82556532D01*
X194782756Y-82596589D01*
X194806525Y-82627243D01*
X194834226Y-82652113D01*
X194866159Y-82674817D01*
X194902623Y-82698974D01*
X194917436Y-82709083D01*
X195048011Y-82799767D01*
X201129900Y-82805855D01*
X201838403Y-82806514D01*
X202492504Y-82807009D01*
X203094246Y-82807331D01*
X203645673Y-82807469D01*
X204148827Y-82807413D01*
X204605750Y-82807151D01*
X205018486Y-82806675D01*
X205389078Y-82805973D01*
X205719567Y-82805035D01*
X206011998Y-82803851D01*
X206268412Y-82802410D01*
X206490853Y-82800702D01*
X206681364Y-82798716D01*
X206841986Y-82796442D01*
X206974764Y-82793871D01*
X207081740Y-82790990D01*
X207164956Y-82787791D01*
X207226455Y-82784262D01*
X207268281Y-82780393D01*
X207292476Y-82776175D01*
X207297415Y-82774503D01*
X207409860Y-82703572D01*
X207509928Y-82602284D01*
X207579715Y-82490109D01*
X207593475Y-82452563D01*
X207599564Y-82406587D01*
X207604740Y-82313089D01*
X207609012Y-82171024D01*
X207612390Y-81979346D01*
X207614882Y-81737011D01*
X207616498Y-81442973D01*
X207617247Y-81096188D01*
X207617138Y-80695610D01*
X207616182Y-80240194D01*
X207615331Y-79975465D01*
X207611129Y-78792729D01*
X207476063Y-78792729D01*
X207475661Y-79085049D01*
X207474872Y-79424275D01*
X207473768Y-79814099D01*
X207473009Y-80066312D01*
X207471702Y-80487302D01*
X207470444Y-80855495D01*
X207469142Y-81174541D01*
X207467698Y-81448087D01*
X207466019Y-81679782D01*
X207464009Y-81873275D01*
X207461572Y-82032212D01*
X207458613Y-82160243D01*
X207455038Y-82261016D01*
X207450750Y-82338179D01*
X207445654Y-82395380D01*
X207439656Y-82436268D01*
X207432660Y-82464490D01*
X207424571Y-82483696D01*
X207415293Y-82497533D01*
X207409345Y-82504520D01*
X207343672Y-82565455D01*
X207268234Y-82620258D01*
X207257154Y-82626224D01*
X207242506Y-82631718D01*
X207222033Y-82636761D01*
X207193472Y-82641372D01*
X207154565Y-82645569D01*
X207103052Y-82649373D01*
X207036672Y-82652803D01*
X206953166Y-82655878D01*
X206850274Y-82658617D01*
X206725736Y-82661041D01*
X206577292Y-82663168D01*
X206402682Y-82665017D01*
X206199646Y-82666609D01*
X205965924Y-82667963D01*
X205699257Y-82669097D01*
X205397384Y-82670032D01*
X205058046Y-82670787D01*
X204678982Y-82671381D01*
X204257933Y-82671834D01*
X203792639Y-82672164D01*
X203280840Y-82672392D01*
X202720276Y-82672537D01*
X202108687Y-82672618D01*
X201443814Y-82672655D01*
X201163777Y-82672661D01*
X200465307Y-82672631D01*
X199821151Y-82672506D01*
X199229180Y-82672273D01*
X198687264Y-82671916D01*
X198193271Y-82671424D01*
X197745073Y-82670781D01*
X197340540Y-82669974D01*
X196977541Y-82668989D01*
X196653946Y-82667813D01*
X196367626Y-82666431D01*
X196116451Y-82664830D01*
X195898289Y-82662996D01*
X195711013Y-82660915D01*
X195552490Y-82658574D01*
X195420593Y-82655957D01*
X195313189Y-82653053D01*
X195228150Y-82649846D01*
X195163346Y-82646323D01*
X195116646Y-82642471D01*
X195085921Y-82638274D01*
X195069040Y-82633721D01*
X195067777Y-82633115D01*
X194994144Y-82583649D01*
X194922358Y-82519394D01*
X194921011Y-82517960D01*
X194850456Y-82442457D01*
X194835410Y-77687167D01*
X194899940Y-77590578D01*
X194968632Y-77513076D01*
X195051899Y-77450425D01*
X195062685Y-77444644D01*
X195076112Y-77439003D01*
X195094533Y-77433807D01*
X195120206Y-77429039D01*
X195155391Y-77424680D01*
X195202347Y-77420712D01*
X195263333Y-77417117D01*
X195340609Y-77413876D01*
X195436434Y-77410971D01*
X195553067Y-77408385D01*
X195692768Y-77406098D01*
X195857796Y-77404093D01*
X196050409Y-77402352D01*
X196272868Y-77400855D01*
X196527432Y-77399586D01*
X196816360Y-77398525D01*
X197141911Y-77397655D01*
X197506344Y-77396957D01*
X197911919Y-77396413D01*
X198360896Y-77396005D01*
X198855532Y-77395714D01*
X199398089Y-77395523D01*
X199990824Y-77395413D01*
X200635998Y-77395366D01*
X201172234Y-77395361D01*
X201857901Y-77395374D01*
X202489391Y-77395413D01*
X203068972Y-77395499D01*
X203598909Y-77395653D01*
X204081472Y-77395895D01*
X204518926Y-77396246D01*
X204913538Y-77396728D01*
X205267578Y-77397360D01*
X205583310Y-77398164D01*
X205863004Y-77399162D01*
X206108925Y-77400372D01*
X206323342Y-77401817D01*
X206508521Y-77403518D01*
X206666730Y-77405494D01*
X206800236Y-77407768D01*
X206911307Y-77410360D01*
X207002208Y-77413290D01*
X207075209Y-77416580D01*
X207132575Y-77420250D01*
X207176575Y-77424321D01*
X207209475Y-77428815D01*
X207233542Y-77433752D01*
X207251045Y-77439152D01*
X207264250Y-77445037D01*
X207275424Y-77451428D01*
X207275547Y-77451503D01*
X207355363Y-77516441D01*
X207421877Y-77596354D01*
X207423878Y-77599565D01*
X207433864Y-77617010D01*
X207442580Y-77637055D01*
X207450100Y-77663390D01*
X207456496Y-77699709D01*
X207461843Y-77749704D01*
X207466214Y-77817066D01*
X207469683Y-77905488D01*
X207472322Y-78018663D01*
X207474207Y-78160282D01*
X207475409Y-78334038D01*
X207476003Y-78543623D01*
X207476063Y-78792729D01*
X207611129Y-78792729D01*
X207606900Y-77602719D01*
X207538890Y-77503476D01*
X207471344Y-77422309D01*
X207393722Y-77351786D01*
X207381921Y-77343278D01*
X207292963Y-77282323D01*
X195048011Y-77283251D01*
G36*
X200549810Y-77746223D02*
G01*
X200257025Y-77748760D01*
X199970041Y-77753129D01*
X199694512Y-77759244D01*
X199436089Y-77767020D01*
X199200423Y-77776372D01*
X198993167Y-77787214D01*
X198819973Y-77799462D01*
X198686492Y-77813030D01*
X198598376Y-77827833D01*
X198561729Y-77843101D01*
X198529839Y-77854365D01*
X198453367Y-77870842D01*
X198343688Y-77890337D01*
X198212176Y-77910658D01*
X198208900Y-77911129D01*
X197982059Y-77947742D01*
X197736421Y-77994237D01*
X197487464Y-78047177D01*
X197250664Y-78103120D01*
X197041499Y-78158629D01*
X196899176Y-78202172D01*
X196658775Y-78296582D01*
X196419492Y-78416342D01*
X196193610Y-78553671D01*
X195993414Y-78700786D01*
X195831187Y-78849906D01*
X195774734Y-78914482D01*
X195722559Y-78984055D01*
X195689334Y-79037102D01*
X195683011Y-79054245D01*
X195709748Y-79064564D01*
X195784530Y-79079072D01*
X195899218Y-79096566D01*
X196045671Y-79115841D01*
X196215749Y-79135695D01*
X196282734Y-79142914D01*
X196468249Y-79162555D01*
X196641473Y-79181055D01*
X196792108Y-79197302D01*
X196909852Y-79210184D01*
X196984406Y-79218586D01*
X196995345Y-79219888D01*
X197056772Y-79223903D01*
X197106407Y-79213217D01*
X197159718Y-79180238D01*
X197232171Y-79117373D01*
X197263456Y-79088271D01*
X197451219Y-78926619D01*
X197644563Y-78791199D01*
X197852834Y-78677845D01*
X198085379Y-78582394D01*
X198351544Y-78500678D01*
X198660675Y-78428533D01*
X198809031Y-78399436D01*
X199098283Y-78352425D01*
X199408302Y-78316383D01*
X199747243Y-78290737D01*
X200123267Y-78274914D01*
X200544531Y-78268341D01*
X200678345Y-78268084D01*
X201267569Y-78278208D01*
X201806891Y-78307912D01*
X202299549Y-78357750D01*
X202748781Y-78428275D01*
X203157827Y-78520040D01*
X203529925Y-78633600D01*
X203868313Y-78769508D01*
X204008875Y-78837301D01*
X204284441Y-78999165D01*
X204515373Y-79179751D01*
X204700159Y-79375751D01*
X204837288Y-79583861D01*
X204925248Y-79800774D01*
X204962528Y-80023185D01*
X204947618Y-80247789D01*
X204879005Y-80471279D01*
X204814161Y-80598829D01*
X204767233Y-80673263D01*
X204726523Y-80710674D01*
X204671345Y-80723662D01*
X204607100Y-80724950D01*
X204538323Y-80721416D01*
X204424521Y-80711846D01*
X204276661Y-80697326D01*
X204105710Y-80678942D01*
X203922636Y-80657779D01*
X203895678Y-80654537D01*
X203719827Y-80633466D01*
X203562171Y-80614926D01*
X203431621Y-80599935D01*
X203337086Y-80589514D01*
X203287477Y-80584680D01*
X203283183Y-80584465D01*
X203258673Y-80560823D01*
X203213478Y-80495731D01*
X203153017Y-80397786D01*
X203082709Y-80275583D01*
X203043294Y-80203899D01*
X202970503Y-80073180D01*
X202905256Y-79962969D01*
X202852800Y-79881598D01*
X202818383Y-79837405D01*
X202809123Y-79831939D01*
X202785544Y-79858436D01*
X202740819Y-79925044D01*
X202680895Y-80022361D01*
X202611721Y-80140983D01*
X202595497Y-80169638D01*
X202525793Y-80292463D01*
X202465370Y-80397152D01*
X202419885Y-80474035D01*
X202394992Y-80513443D01*
X202392828Y-80516136D01*
X202361011Y-80524827D01*
X202282345Y-80539338D01*
X202165975Y-80558359D01*
X202021045Y-80580581D01*
X201856700Y-80604695D01*
X201682082Y-80629392D01*
X201506337Y-80653363D01*
X201338609Y-80675299D01*
X201188041Y-80693890D01*
X201063778Y-80707828D01*
X201031123Y-80711086D01*
X200884287Y-80727410D01*
X200790661Y-80743497D01*
X200747019Y-80760072D01*
X200746592Y-80774866D01*
X200777663Y-80782332D01*
X200857616Y-80795562D01*
X200979295Y-80813541D01*
X201135547Y-80835256D01*
X201319215Y-80859690D01*
X201523146Y-80885830D01*
X201574219Y-80892233D01*
X202385789Y-80993545D01*
X202522230Y-81247545D01*
X202601340Y-81397596D01*
X202653944Y-81506119D01*
X202682077Y-81580282D01*
X202687775Y-81627254D01*
X202673073Y-81654202D01*
X202641579Y-81667907D01*
X202547521Y-81687356D01*
X202422805Y-81707123D01*
X202275874Y-81726500D01*
X202115168Y-81744780D01*
X201949130Y-81761255D01*
X201786201Y-81775217D01*
X201634823Y-81785959D01*
X201503437Y-81792771D01*
X201400486Y-81794948D01*
X201334410Y-81791780D01*
X201313652Y-81782560D01*
X201316858Y-81778981D01*
X201345038Y-81741349D01*
X201383655Y-81669574D01*
X201410607Y-81610745D01*
X201435015Y-81554220D01*
X201458323Y-81512855D01*
X201489393Y-81483448D01*
X201537086Y-81462796D01*
X201610265Y-81447698D01*
X201717790Y-81434951D01*
X201868523Y-81421353D01*
X201955400Y-81413880D01*
X202058335Y-81402787D01*
X202135228Y-81390312D01*
X202172555Y-81378773D01*
X202174123Y-81376416D01*
X202148035Y-81365338D01*
X202077563Y-81350033D01*
X201974391Y-81332772D01*
X201884845Y-81320202D01*
X201757070Y-81302215D01*
X201645484Y-81284037D01*
X201565141Y-81268250D01*
X201536865Y-81260516D01*
X201489141Y-81219423D01*
X201442209Y-81140964D01*
X201428697Y-81108956D01*
X201395422Y-81034047D01*
X201365666Y-80987276D01*
X201354069Y-80979434D01*
X201325664Y-81002049D01*
X201288686Y-81057576D01*
X201282847Y-81068501D01*
X201231989Y-81156315D01*
X201179380Y-81212799D01*
X201110066Y-81246393D01*
X201009096Y-81265538D01*
X200918234Y-81274328D01*
X200794724Y-81285182D01*
X200678769Y-81296811D01*
X200593417Y-81306888D01*
X200586623Y-81307840D01*
X200516708Y-81309222D01*
X200481660Y-81294763D01*
X200488313Y-81273258D01*
X200543500Y-81253504D01*
X200544289Y-81253351D01*
X200607789Y-81241120D01*
X200545282Y-81237277D01*
X200495528Y-81252713D01*
X200451122Y-81292503D01*
X200427878Y-81338173D01*
X200434871Y-81366256D01*
X200468911Y-81375211D01*
X200542575Y-81383516D01*
X200627658Y-81388763D01*
X200828540Y-81399989D01*
X200978383Y-81415351D01*
X201082507Y-81435911D01*
X201146234Y-81462732D01*
X201174884Y-81496874D01*
X201175265Y-81498047D01*
X201201504Y-81553697D01*
X201220819Y-81575279D01*
X201241083Y-81612574D01*
X201255774Y-81681554D01*
X201257097Y-81693832D01*
X201260129Y-81755398D01*
X201245063Y-81787915D01*
X201198153Y-81805116D01*
X201134705Y-81816081D01*
X201032554Y-81826257D01*
X200884192Y-81832796D01*
X200699726Y-81835866D01*
X200489260Y-81835634D01*
X200262901Y-81832266D01*
X200030753Y-81825932D01*
X199802923Y-81816797D01*
X199589516Y-81805028D01*
X199400638Y-81790794D01*
X199356153Y-81786648D01*
X199133039Y-81762138D01*
X198887311Y-81730470D01*
X198627363Y-81693124D01*
X198361594Y-81651583D01*
X198098398Y-81607326D01*
X197846173Y-81561835D01*
X197613314Y-81516591D01*
X197408218Y-81473075D01*
X197239282Y-81432768D01*
X197114900Y-81397150D01*
X197081992Y-81385511D01*
X197064290Y-81370954D01*
X197051906Y-81337498D01*
X197043957Y-81276685D01*
X197039557Y-81180057D01*
X197037824Y-81039157D01*
X197037678Y-80961503D01*
X197037678Y-80554499D01*
X198780400Y-80556121D01*
X199089312Y-80556395D01*
X199381686Y-80556628D01*
X199652603Y-80556819D01*
X199897144Y-80556964D01*
X200110391Y-80557062D01*
X200287424Y-80557111D01*
X200423324Y-80557108D01*
X200513174Y-80557051D01*
X200552053Y-80556938D01*
X200553022Y-80556921D01*
X200567903Y-80528977D01*
X200577447Y-80448691D01*
X200581266Y-80319948D01*
X200581244Y-80273686D01*
X200578934Y-80141659D01*
X200573113Y-80058072D01*
X200562617Y-80014971D01*
X200546280Y-80004400D01*
X200541981Y-80005575D01*
X200508770Y-80007693D01*
X200423202Y-80009716D01*
X200289365Y-80011622D01*
X200111345Y-80013387D01*
X199893230Y-80014988D01*
X199639108Y-80016403D01*
X199353065Y-80017609D01*
X199039189Y-80018582D01*
X198701568Y-80019300D01*
X198344288Y-80019739D01*
X197994925Y-80019878D01*
X195485456Y-80019878D01*
X195485456Y-81682599D01*
X195675956Y-81738893D01*
X195798992Y-81774396D01*
X195924516Y-81809272D01*
X196007567Y-81831342D01*
X196090501Y-81855302D01*
X196148078Y-81876986D01*
X196162789Y-81886220D01*
X196194031Y-81898594D01*
X196270279Y-81919852D01*
X196381281Y-81947377D01*
X196516783Y-81978552D01*
X196572011Y-81990691D01*
X197390509Y-82149216D01*
X198208594Y-82268573D01*
X199036167Y-82349618D01*
X199883129Y-82393206D01*
X200759381Y-82400191D01*
X201200456Y-82390574D01*
X201855760Y-82359394D01*
X202479470Y-82307830D01*
X203064287Y-82236624D01*
X203599345Y-82147204D01*
X203727923Y-82120758D01*
X203875974Y-82087731D01*
X204033592Y-82050637D01*
X204190872Y-82011989D01*
X204337910Y-81974299D01*
X204464799Y-81940081D01*
X204561634Y-81911847D01*
X204618511Y-81892109D01*
X204629049Y-81885981D01*
X204660015Y-81869032D01*
X204733298Y-81838495D01*
X204837722Y-81798800D01*
X204954011Y-81757190D01*
X205329039Y-81609093D01*
X205661606Y-81441394D01*
X205949243Y-81255982D01*
X206189483Y-81054749D01*
X206354340Y-80868422D01*
X204573011Y-80868422D01*
X204548466Y-80915554D01*
X204480326Y-80979772D01*
X204376835Y-81055831D01*
X204246240Y-81138487D01*
X204096785Y-81222497D01*
X203936714Y-81302614D01*
X203786766Y-81368538D01*
X203663035Y-81414659D01*
X203514946Y-81463225D01*
X203355238Y-81510790D01*
X203196652Y-81553906D01*
X203051927Y-81589125D01*
X202933803Y-81612999D01*
X202855019Y-81622082D01*
X202849998Y-81622049D01*
X202820424Y-81619318D01*
X202807306Y-81607572D01*
X202813760Y-81578764D01*
X202842904Y-81524845D01*
X202897855Y-81437767D01*
X202955659Y-81349242D01*
X203026743Y-81239970D01*
X203085620Y-81147880D01*
X203125782Y-81083256D01*
X203140575Y-81057005D01*
X203169381Y-81046224D01*
X203244840Y-81028964D01*
X203357729Y-81006727D01*
X203498824Y-80981013D01*
X203658902Y-80953323D01*
X203828739Y-80925159D01*
X203999110Y-80898022D01*
X204160793Y-80873413D01*
X204304564Y-80852833D01*
X204421198Y-80837783D01*
X204501473Y-80829765D01*
X204535520Y-80829975D01*
X204569731Y-80857349D01*
X204573011Y-80868422D01*
X206354340Y-80868422D01*
X206379855Y-80839585D01*
X206517891Y-80612380D01*
X206552190Y-80533420D01*
X206594544Y-80377055D01*
X206616638Y-80189779D01*
X206618060Y-79993522D01*
X206598395Y-79810213D01*
X206568057Y-79690049D01*
X206473597Y-79486725D01*
X206333637Y-79278132D01*
X206156908Y-79074660D01*
X205952139Y-78886698D01*
X205792362Y-78766883D01*
X205536661Y-78613299D01*
X205232445Y-78466868D01*
X204887445Y-78330031D01*
X204509393Y-78205232D01*
X204106020Y-78094913D01*
X203685059Y-78001517D01*
X203254241Y-77927488D01*
X203047831Y-77899747D01*
X202924912Y-77883208D01*
X202824216Y-77866757D01*
X202758072Y-77852585D01*
X202738567Y-77844782D01*
X202706995Y-77835897D01*
X202629125Y-77823792D01*
X202514923Y-77809746D01*
X202374356Y-77795035D01*
X202287011Y-77786910D01*
X202111863Y-77774238D01*
X201902954Y-77763996D01*
X201665936Y-77756096D01*
X201406461Y-77750454D01*
X201130180Y-77746985D01*
X200842746Y-77745603D01*
X200549810Y-77746223D01*
X200549810Y-77746223D01*
G37*
X200549810Y-77746223D02*
X200257025Y-77748760D01*
X199970041Y-77753129D01*
X199694512Y-77759244D01*
X199436089Y-77767020D01*
X199200423Y-77776372D01*
X198993167Y-77787214D01*
X198819973Y-77799462D01*
X198686492Y-77813030D01*
X198598376Y-77827833D01*
X198561729Y-77843101D01*
X198529839Y-77854365D01*
X198453367Y-77870842D01*
X198343688Y-77890337D01*
X198212176Y-77910658D01*
X198208900Y-77911129D01*
X197982059Y-77947742D01*
X197736421Y-77994237D01*
X197487464Y-78047177D01*
X197250664Y-78103120D01*
X197041499Y-78158629D01*
X196899176Y-78202172D01*
X196658775Y-78296582D01*
X196419492Y-78416342D01*
X196193610Y-78553671D01*
X195993414Y-78700786D01*
X195831187Y-78849906D01*
X195774734Y-78914482D01*
X195722559Y-78984055D01*
X195689334Y-79037102D01*
X195683011Y-79054245D01*
X195709748Y-79064564D01*
X195784530Y-79079072D01*
X195899218Y-79096566D01*
X196045671Y-79115841D01*
X196215749Y-79135695D01*
X196282734Y-79142914D01*
X196468249Y-79162555D01*
X196641473Y-79181055D01*
X196792108Y-79197302D01*
X196909852Y-79210184D01*
X196984406Y-79218586D01*
X196995345Y-79219888D01*
X197056772Y-79223903D01*
X197106407Y-79213217D01*
X197159718Y-79180238D01*
X197232171Y-79117373D01*
X197263456Y-79088271D01*
X197451219Y-78926619D01*
X197644563Y-78791199D01*
X197852834Y-78677845D01*
X198085379Y-78582394D01*
X198351544Y-78500678D01*
X198660675Y-78428533D01*
X198809031Y-78399436D01*
X199098283Y-78352425D01*
X199408302Y-78316383D01*
X199747243Y-78290737D01*
X200123267Y-78274914D01*
X200544531Y-78268341D01*
X200678345Y-78268084D01*
X201267569Y-78278208D01*
X201806891Y-78307912D01*
X202299549Y-78357750D01*
X202748781Y-78428275D01*
X203157827Y-78520040D01*
X203529925Y-78633600D01*
X203868313Y-78769508D01*
X204008875Y-78837301D01*
X204284441Y-78999165D01*
X204515373Y-79179751D01*
X204700159Y-79375751D01*
X204837288Y-79583861D01*
X204925248Y-79800774D01*
X204962528Y-80023185D01*
X204947618Y-80247789D01*
X204879005Y-80471279D01*
X204814161Y-80598829D01*
X204767233Y-80673263D01*
X204726523Y-80710674D01*
X204671345Y-80723662D01*
X204607100Y-80724950D01*
X204538323Y-80721416D01*
X204424521Y-80711846D01*
X204276661Y-80697326D01*
X204105710Y-80678942D01*
X203922636Y-80657779D01*
X203895678Y-80654537D01*
X203719827Y-80633466D01*
X203562171Y-80614926D01*
X203431621Y-80599935D01*
X203337086Y-80589514D01*
X203287477Y-80584680D01*
X203283183Y-80584465D01*
X203258673Y-80560823D01*
X203213478Y-80495731D01*
X203153017Y-80397786D01*
X203082709Y-80275583D01*
X203043294Y-80203899D01*
X202970503Y-80073180D01*
X202905256Y-79962969D01*
X202852800Y-79881598D01*
X202818383Y-79837405D01*
X202809123Y-79831939D01*
X202785544Y-79858436D01*
X202740819Y-79925044D01*
X202680895Y-80022361D01*
X202611721Y-80140983D01*
X202595497Y-80169638D01*
X202525793Y-80292463D01*
X202465370Y-80397152D01*
X202419885Y-80474035D01*
X202394992Y-80513443D01*
X202392828Y-80516136D01*
X202361011Y-80524827D01*
X202282345Y-80539338D01*
X202165975Y-80558359D01*
X202021045Y-80580581D01*
X201856700Y-80604695D01*
X201682082Y-80629392D01*
X201506337Y-80653363D01*
X201338609Y-80675299D01*
X201188041Y-80693890D01*
X201063778Y-80707828D01*
X201031123Y-80711086D01*
X200884287Y-80727410D01*
X200790661Y-80743497D01*
X200747019Y-80760072D01*
X200746592Y-80774866D01*
X200777663Y-80782332D01*
X200857616Y-80795562D01*
X200979295Y-80813541D01*
X201135547Y-80835256D01*
X201319215Y-80859690D01*
X201523146Y-80885830D01*
X201574219Y-80892233D01*
X202385789Y-80993545D01*
X202522230Y-81247545D01*
X202601340Y-81397596D01*
X202653944Y-81506119D01*
X202682077Y-81580282D01*
X202687775Y-81627254D01*
X202673073Y-81654202D01*
X202641579Y-81667907D01*
X202547521Y-81687356D01*
X202422805Y-81707123D01*
X202275874Y-81726500D01*
X202115168Y-81744780D01*
X201949130Y-81761255D01*
X201786201Y-81775217D01*
X201634823Y-81785959D01*
X201503437Y-81792771D01*
X201400486Y-81794948D01*
X201334410Y-81791780D01*
X201313652Y-81782560D01*
X201316858Y-81778981D01*
X201345038Y-81741349D01*
X201383655Y-81669574D01*
X201410607Y-81610745D01*
X201435015Y-81554220D01*
X201458323Y-81512855D01*
X201489393Y-81483448D01*
X201537086Y-81462796D01*
X201610265Y-81447698D01*
X201717790Y-81434951D01*
X201868523Y-81421353D01*
X201955400Y-81413880D01*
X202058335Y-81402787D01*
X202135228Y-81390312D01*
X202172555Y-81378773D01*
X202174123Y-81376416D01*
X202148035Y-81365338D01*
X202077563Y-81350033D01*
X201974391Y-81332772D01*
X201884845Y-81320202D01*
X201757070Y-81302215D01*
X201645484Y-81284037D01*
X201565141Y-81268250D01*
X201536865Y-81260516D01*
X201489141Y-81219423D01*
X201442209Y-81140964D01*
X201428697Y-81108956D01*
X201395422Y-81034047D01*
X201365666Y-80987276D01*
X201354069Y-80979434D01*
X201325664Y-81002049D01*
X201288686Y-81057576D01*
X201282847Y-81068501D01*
X201231989Y-81156315D01*
X201179380Y-81212799D01*
X201110066Y-81246393D01*
X201009096Y-81265538D01*
X200918234Y-81274328D01*
X200794724Y-81285182D01*
X200678769Y-81296811D01*
X200593417Y-81306888D01*
X200586623Y-81307840D01*
X200516708Y-81309222D01*
X200481660Y-81294763D01*
X200488313Y-81273258D01*
X200543500Y-81253504D01*
X200544289Y-81253351D01*
X200607789Y-81241120D01*
X200545282Y-81237277D01*
X200495528Y-81252713D01*
X200451122Y-81292503D01*
X200427878Y-81338173D01*
X200434871Y-81366256D01*
X200468911Y-81375211D01*
X200542575Y-81383516D01*
X200627658Y-81388763D01*
X200828540Y-81399989D01*
X200978383Y-81415351D01*
X201082507Y-81435911D01*
X201146234Y-81462732D01*
X201174884Y-81496874D01*
X201175265Y-81498047D01*
X201201504Y-81553697D01*
X201220819Y-81575279D01*
X201241083Y-81612574D01*
X201255774Y-81681554D01*
X201257097Y-81693832D01*
X201260129Y-81755398D01*
X201245063Y-81787915D01*
X201198153Y-81805116D01*
X201134705Y-81816081D01*
X201032554Y-81826257D01*
X200884192Y-81832796D01*
X200699726Y-81835866D01*
X200489260Y-81835634D01*
X200262901Y-81832266D01*
X200030753Y-81825932D01*
X199802923Y-81816797D01*
X199589516Y-81805028D01*
X199400638Y-81790794D01*
X199356153Y-81786648D01*
X199133039Y-81762138D01*
X198887311Y-81730470D01*
X198627363Y-81693124D01*
X198361594Y-81651583D01*
X198098398Y-81607326D01*
X197846173Y-81561835D01*
X197613314Y-81516591D01*
X197408218Y-81473075D01*
X197239282Y-81432768D01*
X197114900Y-81397150D01*
X197081992Y-81385511D01*
X197064290Y-81370954D01*
X197051906Y-81337498D01*
X197043957Y-81276685D01*
X197039557Y-81180057D01*
X197037824Y-81039157D01*
X197037678Y-80961503D01*
X197037678Y-80554499D01*
X198780400Y-80556121D01*
X199089312Y-80556395D01*
X199381686Y-80556628D01*
X199652603Y-80556819D01*
X199897144Y-80556964D01*
X200110391Y-80557062D01*
X200287424Y-80557111D01*
X200423324Y-80557108D01*
X200513174Y-80557051D01*
X200552053Y-80556938D01*
X200553022Y-80556921D01*
X200567903Y-80528977D01*
X200577447Y-80448691D01*
X200581266Y-80319948D01*
X200581244Y-80273686D01*
X200578934Y-80141659D01*
X200573113Y-80058072D01*
X200562617Y-80014971D01*
X200546280Y-80004400D01*
X200541981Y-80005575D01*
X200508770Y-80007693D01*
X200423202Y-80009716D01*
X200289365Y-80011622D01*
X200111345Y-80013387D01*
X199893230Y-80014988D01*
X199639108Y-80016403D01*
X199353065Y-80017609D01*
X199039189Y-80018582D01*
X198701568Y-80019300D01*
X198344288Y-80019739D01*
X197994925Y-80019878D01*
X195485456Y-80019878D01*
X195485456Y-81682599D01*
X195675956Y-81738893D01*
X195798992Y-81774396D01*
X195924516Y-81809272D01*
X196007567Y-81831342D01*
X196090501Y-81855302D01*
X196148078Y-81876986D01*
X196162789Y-81886220D01*
X196194031Y-81898594D01*
X196270279Y-81919852D01*
X196381281Y-81947377D01*
X196516783Y-81978552D01*
X196572011Y-81990691D01*
X197390509Y-82149216D01*
X198208594Y-82268573D01*
X199036167Y-82349618D01*
X199883129Y-82393206D01*
X200759381Y-82400191D01*
X201200456Y-82390574D01*
X201855760Y-82359394D01*
X202479470Y-82307830D01*
X203064287Y-82236624D01*
X203599345Y-82147204D01*
X203727923Y-82120758D01*
X203875974Y-82087731D01*
X204033592Y-82050637D01*
X204190872Y-82011989D01*
X204337910Y-81974299D01*
X204464799Y-81940081D01*
X204561634Y-81911847D01*
X204618511Y-81892109D01*
X204629049Y-81885981D01*
X204660015Y-81869032D01*
X204733298Y-81838495D01*
X204837722Y-81798800D01*
X204954011Y-81757190D01*
X205329039Y-81609093D01*
X205661606Y-81441394D01*
X205949243Y-81255982D01*
X206189483Y-81054749D01*
X206354340Y-80868422D01*
X204573011Y-80868422D01*
X204548466Y-80915554D01*
X204480326Y-80979772D01*
X204376835Y-81055831D01*
X204246240Y-81138487D01*
X204096785Y-81222497D01*
X203936714Y-81302614D01*
X203786766Y-81368538D01*
X203663035Y-81414659D01*
X203514946Y-81463225D01*
X203355238Y-81510790D01*
X203196652Y-81553906D01*
X203051927Y-81589125D01*
X202933803Y-81612999D01*
X202855019Y-81622082D01*
X202849998Y-81622049D01*
X202820424Y-81619318D01*
X202807306Y-81607572D01*
X202813760Y-81578764D01*
X202842904Y-81524845D01*
X202897855Y-81437767D01*
X202955659Y-81349242D01*
X203026743Y-81239970D01*
X203085620Y-81147880D01*
X203125782Y-81083256D01*
X203140575Y-81057005D01*
X203169381Y-81046224D01*
X203244840Y-81028964D01*
X203357729Y-81006727D01*
X203498824Y-80981013D01*
X203658902Y-80953323D01*
X203828739Y-80925159D01*
X203999110Y-80898022D01*
X204160793Y-80873413D01*
X204304564Y-80852833D01*
X204421198Y-80837783D01*
X204501473Y-80829765D01*
X204535520Y-80829975D01*
X204569731Y-80857349D01*
X204573011Y-80868422D01*
X206354340Y-80868422D01*
X206379855Y-80839585D01*
X206517891Y-80612380D01*
X206552190Y-80533420D01*
X206594544Y-80377055D01*
X206616638Y-80189779D01*
X206618060Y-79993522D01*
X206598395Y-79810213D01*
X206568057Y-79690049D01*
X206473597Y-79486725D01*
X206333637Y-79278132D01*
X206156908Y-79074660D01*
X205952139Y-78886698D01*
X205792362Y-78766883D01*
X205536661Y-78613299D01*
X205232445Y-78466868D01*
X204887445Y-78330031D01*
X204509393Y-78205232D01*
X204106020Y-78094913D01*
X203685059Y-78001517D01*
X203254241Y-77927488D01*
X203047831Y-77899747D01*
X202924912Y-77883208D01*
X202824216Y-77866757D01*
X202758072Y-77852585D01*
X202738567Y-77844782D01*
X202706995Y-77835897D01*
X202629125Y-77823792D01*
X202514923Y-77809746D01*
X202374356Y-77795035D01*
X202287011Y-77786910D01*
X202111863Y-77774238D01*
X201902954Y-77763996D01*
X201665936Y-77756096D01*
X201406461Y-77750454D01*
X201130180Y-77746985D01*
X200842746Y-77745603D01*
X200549810Y-77746223D01*
G36*
X202823234Y-78864509D02*
G01*
X202668011Y-78864689D01*
X202357567Y-79264772D01*
X202251245Y-79400181D01*
X202150749Y-79525223D01*
X202063559Y-79630815D01*
X201997152Y-79707871D01*
X201964051Y-79742831D01*
X201915520Y-79794742D01*
X201894704Y-79830180D01*
X201895900Y-79835730D01*
X201929776Y-79840872D01*
X202002396Y-79838977D01*
X202077750Y-79832498D01*
X202173242Y-79819229D01*
X202236173Y-79797047D01*
X202288362Y-79753549D01*
X202350941Y-79677222D01*
X202457203Y-79540100D01*
X203158121Y-79540100D01*
X203264861Y-79674156D01*
X203321155Y-79745335D01*
X203360204Y-79795623D01*
X203372584Y-79812627D01*
X203398325Y-79818908D01*
X203462979Y-79830079D01*
X203511921Y-79837643D01*
X203593488Y-79847902D01*
X203632088Y-79844558D01*
X203640245Y-79824325D01*
X203636345Y-79805005D01*
X203615950Y-79766303D01*
X203567448Y-79690212D01*
X203496259Y-79584752D01*
X203407806Y-79457942D01*
X203369630Y-79404600D01*
X203072530Y-79404600D01*
X203050536Y-79414221D01*
X202983722Y-79421806D01*
X202883705Y-79426355D01*
X202810072Y-79427211D01*
X202681562Y-79425637D01*
X202601962Y-79420202D01*
X202563806Y-79409835D01*
X202559628Y-79393466D01*
X202560776Y-79391484D01*
X202624814Y-79293304D01*
X202690861Y-79197232D01*
X202750796Y-79114469D01*
X202796499Y-79056215D01*
X202819849Y-79033673D01*
X202820174Y-79033670D01*
X202841103Y-79055866D01*
X202882808Y-79111845D01*
X202935838Y-79187717D01*
X202990745Y-79269594D01*
X203038080Y-79343588D01*
X203068395Y-79395809D01*
X203072530Y-79404600D01*
X203369630Y-79404600D01*
X203307507Y-79317800D01*
X203300436Y-79308048D01*
X202978456Y-78864329D01*
X202823234Y-78864509D01*
X202823234Y-78864509D01*
G37*
X202823234Y-78864509D02*
X202668011Y-78864689D01*
X202357567Y-79264772D01*
X202251245Y-79400181D01*
X202150749Y-79525223D01*
X202063559Y-79630815D01*
X201997152Y-79707871D01*
X201964051Y-79742831D01*
X201915520Y-79794742D01*
X201894704Y-79830180D01*
X201895900Y-79835730D01*
X201929776Y-79840872D01*
X202002396Y-79838977D01*
X202077750Y-79832498D01*
X202173242Y-79819229D01*
X202236173Y-79797047D01*
X202288362Y-79753549D01*
X202350941Y-79677222D01*
X202457203Y-79540100D01*
X203158121Y-79540100D01*
X203264861Y-79674156D01*
X203321155Y-79745335D01*
X203360204Y-79795623D01*
X203372584Y-79812627D01*
X203398325Y-79818908D01*
X203462979Y-79830079D01*
X203511921Y-79837643D01*
X203593488Y-79847902D01*
X203632088Y-79844558D01*
X203640245Y-79824325D01*
X203636345Y-79805005D01*
X203615950Y-79766303D01*
X203567448Y-79690212D01*
X203496259Y-79584752D01*
X203407806Y-79457942D01*
X203369630Y-79404600D01*
X203072530Y-79404600D01*
X203050536Y-79414221D01*
X202983722Y-79421806D01*
X202883705Y-79426355D01*
X202810072Y-79427211D01*
X202681562Y-79425637D01*
X202601962Y-79420202D01*
X202563806Y-79409835D01*
X202559628Y-79393466D01*
X202560776Y-79391484D01*
X202624814Y-79293304D01*
X202690861Y-79197232D01*
X202750796Y-79114469D01*
X202796499Y-79056215D01*
X202819849Y-79033673D01*
X202820174Y-79033670D01*
X202841103Y-79055866D01*
X202882808Y-79111845D01*
X202935838Y-79187717D01*
X202990745Y-79269594D01*
X203038080Y-79343588D01*
X203068395Y-79395809D01*
X203072530Y-79404600D01*
X203369630Y-79404600D01*
X203307507Y-79317800D01*
X203300436Y-79308048D01*
X202978456Y-78864329D01*
X202823234Y-78864509D01*
G36*
X201452148Y-78422303D02*
G01*
X201395458Y-78433571D01*
X201313328Y-78439265D01*
X201297476Y-78439434D01*
X201187446Y-78439434D01*
X201172234Y-79667100D01*
X200657178Y-79674792D01*
X200142123Y-79682485D01*
X200142123Y-79822323D01*
X200774814Y-79822323D01*
X200960273Y-79823062D01*
X201128288Y-79825133D01*
X201270110Y-79828314D01*
X201376991Y-79832383D01*
X201440184Y-79837121D01*
X201452148Y-79839453D01*
X201465809Y-79839956D01*
X201476393Y-79825636D01*
X201484284Y-79790398D01*
X201489866Y-79728145D01*
X201493523Y-79632782D01*
X201495638Y-79498214D01*
X201496597Y-79318343D01*
X201496789Y-79130878D01*
X201496498Y-78908906D01*
X201495367Y-78737281D01*
X201493013Y-78609906D01*
X201489052Y-78520687D01*
X201483099Y-78463526D01*
X201474771Y-78432329D01*
X201463684Y-78421000D01*
X201452148Y-78422303D01*
X201452148Y-78422303D01*
G37*
X201452148Y-78422303D02*
X201395458Y-78433571D01*
X201313328Y-78439265D01*
X201297476Y-78439434D01*
X201187446Y-78439434D01*
X201172234Y-79667100D01*
X200657178Y-79674792D01*
X200142123Y-79682485D01*
X200142123Y-79822323D01*
X200774814Y-79822323D01*
X200960273Y-79823062D01*
X201128288Y-79825133D01*
X201270110Y-79828314D01*
X201376991Y-79832383D01*
X201440184Y-79837121D01*
X201452148Y-79839453D01*
X201465809Y-79839956D01*
X201476393Y-79825636D01*
X201484284Y-79790398D01*
X201489866Y-79728145D01*
X201493523Y-79632782D01*
X201495638Y-79498214D01*
X201496597Y-79318343D01*
X201496789Y-79130878D01*
X201496498Y-78908906D01*
X201495367Y-78737281D01*
X201493013Y-78609906D01*
X201489052Y-78520687D01*
X201483099Y-78463526D01*
X201474771Y-78432329D01*
X201463684Y-78421000D01*
X201452148Y-78422303D01*
G36*
X198937144Y-78872615D02*
G01*
X198763311Y-78892806D01*
X198646212Y-78922176D01*
X198553394Y-78965100D01*
X198475760Y-79021665D01*
X198428333Y-79079526D01*
X198420567Y-79107575D01*
X198444174Y-79135751D01*
X198502734Y-79146632D01*
X198577854Y-79141365D01*
X198651139Y-79121102D01*
X198701301Y-79090033D01*
X198790506Y-79033957D01*
X198914936Y-78997676D01*
X199056515Y-78982411D01*
X199197169Y-78989379D01*
X199318821Y-79019801D01*
X199368197Y-79045048D01*
X199423276Y-79094314D01*
X199428601Y-79138473D01*
X199382780Y-79178327D01*
X199284422Y-79214676D01*
X199132135Y-79248323D01*
X198970900Y-79273783D01*
X198760417Y-79307648D01*
X198601136Y-79344206D01*
X198487823Y-79385454D01*
X198415239Y-79433385D01*
X198378147Y-79489995D01*
X198374947Y-79500814D01*
X198374410Y-79602643D01*
X198427017Y-79687696D01*
X198531524Y-79754305D01*
X198576445Y-79771698D01*
X198675366Y-79793749D01*
X198813599Y-79809177D01*
X198974364Y-79817671D01*
X199140883Y-79818917D01*
X199296377Y-79812604D01*
X199424066Y-79798418D01*
X199471867Y-79788375D01*
X199559989Y-79751374D01*
X199645212Y-79693829D01*
X199712213Y-79628623D01*
X199745672Y-79568642D01*
X199747011Y-79556999D01*
X199723905Y-79522866D01*
X199666600Y-79509143D01*
X199593118Y-79514818D01*
X199521483Y-79538877D01*
X199476219Y-79572218D01*
X199382386Y-79645569D01*
X199253585Y-79690314D01*
X199082559Y-79708695D01*
X199032463Y-79709434D01*
X198846906Y-79699190D01*
X198713776Y-79668428D01*
X198632898Y-79617098D01*
X198617050Y-79594540D01*
X198608886Y-79551485D01*
X198636702Y-79513462D01*
X198704839Y-79478690D01*
X198817638Y-79445389D01*
X198979440Y-79411780D01*
X199122228Y-79387430D01*
X199311599Y-79354820D01*
X199451797Y-79324135D01*
X199549841Y-79291931D01*
X199612746Y-79254762D01*
X199647528Y-79209182D01*
X199661205Y-79151745D01*
X199662345Y-79122201D01*
X199653121Y-79042307D01*
X199616959Y-78992116D01*
X199584734Y-78970335D01*
X199463035Y-78920828D01*
X199303525Y-78887473D01*
X199122722Y-78871120D01*
X198937144Y-78872615D01*
X198937144Y-78872615D01*
G37*
X198937144Y-78872615D02*
X198763311Y-78892806D01*
X198646212Y-78922176D01*
X198553394Y-78965100D01*
X198475760Y-79021665D01*
X198428333Y-79079526D01*
X198420567Y-79107575D01*
X198444174Y-79135751D01*
X198502734Y-79146632D01*
X198577854Y-79141365D01*
X198651139Y-79121102D01*
X198701301Y-79090033D01*
X198790506Y-79033957D01*
X198914936Y-78997676D01*
X199056515Y-78982411D01*
X199197169Y-78989379D01*
X199318821Y-79019801D01*
X199368197Y-79045048D01*
X199423276Y-79094314D01*
X199428601Y-79138473D01*
X199382780Y-79178327D01*
X199284422Y-79214676D01*
X199132135Y-79248323D01*
X198970900Y-79273783D01*
X198760417Y-79307648D01*
X198601136Y-79344206D01*
X198487823Y-79385454D01*
X198415239Y-79433385D01*
X198378147Y-79489995D01*
X198374947Y-79500814D01*
X198374410Y-79602643D01*
X198427017Y-79687696D01*
X198531524Y-79754305D01*
X198576445Y-79771698D01*
X198675366Y-79793749D01*
X198813599Y-79809177D01*
X198974364Y-79817671D01*
X199140883Y-79818917D01*
X199296377Y-79812604D01*
X199424066Y-79798418D01*
X199471867Y-79788375D01*
X199559989Y-79751374D01*
X199645212Y-79693829D01*
X199712213Y-79628623D01*
X199745672Y-79568642D01*
X199747011Y-79556999D01*
X199723905Y-79522866D01*
X199666600Y-79509143D01*
X199593118Y-79514818D01*
X199521483Y-79538877D01*
X199476219Y-79572218D01*
X199382386Y-79645569D01*
X199253585Y-79690314D01*
X199082559Y-79708695D01*
X199032463Y-79709434D01*
X198846906Y-79699190D01*
X198713776Y-79668428D01*
X198632898Y-79617098D01*
X198617050Y-79594540D01*
X198608886Y-79551485D01*
X198636702Y-79513462D01*
X198704839Y-79478690D01*
X198817638Y-79445389D01*
X198979440Y-79411780D01*
X199122228Y-79387430D01*
X199311599Y-79354820D01*
X199451797Y-79324135D01*
X199549841Y-79291931D01*
X199612746Y-79254762D01*
X199647528Y-79209182D01*
X199661205Y-79151745D01*
X199662345Y-79122201D01*
X199653121Y-79042307D01*
X199616959Y-78992116D01*
X199584734Y-78970335D01*
X199463035Y-78920828D01*
X199303525Y-78887473D01*
X199122722Y-78871120D01*
X198937144Y-78872615D01*
D12*
%TO.C,C12*%
X167258000Y-94549000D02*
G75*
G03X167258000Y-94549000I-2620000J0D01*
G01*
X164638000Y-97129000D02*
X164638000Y-91969000D01*
X164678000Y-97129000D02*
X164678000Y-91969000D01*
X164718000Y-97128000D02*
X164718000Y-91970000D01*
X164758000Y-97127000D02*
X164758000Y-91971000D01*
X164798000Y-97125000D02*
X164798000Y-91973000D01*
X164838000Y-97122000D02*
X164838000Y-91976000D01*
X164878000Y-97118000D02*
X164878000Y-95589000D01*
X164878000Y-93509000D02*
X164878000Y-91980000D01*
X164918000Y-97114000D02*
X164918000Y-95589000D01*
X164918000Y-93509000D02*
X164918000Y-91984000D01*
X164958000Y-97110000D02*
X164958000Y-95589000D01*
X164958000Y-93509000D02*
X164958000Y-91988000D01*
X164998000Y-97105000D02*
X164998000Y-95589000D01*
X164998000Y-93509000D02*
X164998000Y-91993000D01*
X165038000Y-97099000D02*
X165038000Y-95589000D01*
X165038000Y-93509000D02*
X165038000Y-91999000D01*
X165078000Y-97092000D02*
X165078000Y-95589000D01*
X165078000Y-93509000D02*
X165078000Y-92006000D01*
X165118000Y-97085000D02*
X165118000Y-95589000D01*
X165118000Y-93509000D02*
X165118000Y-92013000D01*
X165158000Y-97077000D02*
X165158000Y-95589000D01*
X165158000Y-93509000D02*
X165158000Y-92021000D01*
X165198000Y-97069000D02*
X165198000Y-95589000D01*
X165198000Y-93509000D02*
X165198000Y-92029000D01*
X165238000Y-97060000D02*
X165238000Y-95589000D01*
X165238000Y-93509000D02*
X165238000Y-92038000D01*
X165278000Y-97050000D02*
X165278000Y-95589000D01*
X165278000Y-93509000D02*
X165278000Y-92048000D01*
X165318000Y-97040000D02*
X165318000Y-95589000D01*
X165318000Y-93509000D02*
X165318000Y-92058000D01*
X165359000Y-97029000D02*
X165359000Y-95589000D01*
X165359000Y-93509000D02*
X165359000Y-92069000D01*
X165399000Y-97017000D02*
X165399000Y-95589000D01*
X165399000Y-93509000D02*
X165399000Y-92081000D01*
X165439000Y-97004000D02*
X165439000Y-95589000D01*
X165439000Y-93509000D02*
X165439000Y-92094000D01*
X165479000Y-96991000D02*
X165479000Y-95589000D01*
X165479000Y-93509000D02*
X165479000Y-92107000D01*
X165519000Y-96977000D02*
X165519000Y-95589000D01*
X165519000Y-93509000D02*
X165519000Y-92121000D01*
X165559000Y-96963000D02*
X165559000Y-95589000D01*
X165559000Y-93509000D02*
X165559000Y-92135000D01*
X165599000Y-96947000D02*
X165599000Y-95589000D01*
X165599000Y-93509000D02*
X165599000Y-92151000D01*
X165639000Y-96931000D02*
X165639000Y-95589000D01*
X165639000Y-93509000D02*
X165639000Y-92167000D01*
X165679000Y-96914000D02*
X165679000Y-95589000D01*
X165679000Y-93509000D02*
X165679000Y-92184000D01*
X165719000Y-96897000D02*
X165719000Y-95589000D01*
X165719000Y-93509000D02*
X165719000Y-92201000D01*
X165759000Y-96878000D02*
X165759000Y-95589000D01*
X165759000Y-93509000D02*
X165759000Y-92220000D01*
X165799000Y-96859000D02*
X165799000Y-95589000D01*
X165799000Y-93509000D02*
X165799000Y-92239000D01*
X165839000Y-96839000D02*
X165839000Y-95589000D01*
X165839000Y-93509000D02*
X165839000Y-92259000D01*
X165879000Y-96817000D02*
X165879000Y-95589000D01*
X165879000Y-93509000D02*
X165879000Y-92281000D01*
X165919000Y-96796000D02*
X165919000Y-95589000D01*
X165919000Y-93509000D02*
X165919000Y-92302000D01*
X165959000Y-96773000D02*
X165959000Y-95589000D01*
X165959000Y-93509000D02*
X165959000Y-92325000D01*
X165999000Y-96749000D02*
X165999000Y-95589000D01*
X165999000Y-93509000D02*
X165999000Y-92349000D01*
X166039000Y-96724000D02*
X166039000Y-95589000D01*
X166039000Y-93509000D02*
X166039000Y-92374000D01*
X166079000Y-96698000D02*
X166079000Y-95589000D01*
X166079000Y-93509000D02*
X166079000Y-92400000D01*
X166119000Y-96671000D02*
X166119000Y-95589000D01*
X166119000Y-93509000D02*
X166119000Y-92427000D01*
X166159000Y-96644000D02*
X166159000Y-95589000D01*
X166159000Y-93509000D02*
X166159000Y-92454000D01*
X166199000Y-96614000D02*
X166199000Y-95589000D01*
X166199000Y-93509000D02*
X166199000Y-92484000D01*
X166239000Y-96584000D02*
X166239000Y-95589000D01*
X166239000Y-93509000D02*
X166239000Y-92514000D01*
X166279000Y-96553000D02*
X166279000Y-95589000D01*
X166279000Y-93509000D02*
X166279000Y-92545000D01*
X166319000Y-96520000D02*
X166319000Y-95589000D01*
X166319000Y-93509000D02*
X166319000Y-92578000D01*
X166359000Y-96486000D02*
X166359000Y-95589000D01*
X166359000Y-93509000D02*
X166359000Y-92612000D01*
X166399000Y-96450000D02*
X166399000Y-95589000D01*
X166399000Y-93509000D02*
X166399000Y-92648000D01*
X166439000Y-96413000D02*
X166439000Y-95589000D01*
X166439000Y-93509000D02*
X166439000Y-92685000D01*
X166479000Y-96375000D02*
X166479000Y-95589000D01*
X166479000Y-93509000D02*
X166479000Y-92723000D01*
X166519000Y-96334000D02*
X166519000Y-95589000D01*
X166519000Y-93509000D02*
X166519000Y-92764000D01*
X166559000Y-96292000D02*
X166559000Y-95589000D01*
X166559000Y-93509000D02*
X166559000Y-92806000D01*
X166599000Y-96248000D02*
X166599000Y-95589000D01*
X166599000Y-93509000D02*
X166599000Y-92850000D01*
X166639000Y-96202000D02*
X166639000Y-95589000D01*
X166639000Y-93509000D02*
X166639000Y-92896000D01*
X166679000Y-96154000D02*
X166679000Y-95589000D01*
X166679000Y-93509000D02*
X166679000Y-92944000D01*
X166719000Y-96103000D02*
X166719000Y-95589000D01*
X166719000Y-93509000D02*
X166719000Y-92995000D01*
X166759000Y-96049000D02*
X166759000Y-95589000D01*
X166759000Y-93509000D02*
X166759000Y-93049000D01*
X166799000Y-95992000D02*
X166799000Y-95589000D01*
X166799000Y-93509000D02*
X166799000Y-93106000D01*
X166839000Y-95932000D02*
X166839000Y-95589000D01*
X166839000Y-93509000D02*
X166839000Y-93166000D01*
X166879000Y-95868000D02*
X166879000Y-95589000D01*
X166879000Y-93509000D02*
X166879000Y-93230000D01*
X166919000Y-95800000D02*
X166919000Y-95589000D01*
X166919000Y-93509000D02*
X166919000Y-93298000D01*
X166959000Y-95727000D02*
X166959000Y-93371000D01*
X166999000Y-95647000D02*
X166999000Y-93451000D01*
X167039000Y-95560000D02*
X167039000Y-93538000D01*
X167079000Y-95464000D02*
X167079000Y-93634000D01*
X167119000Y-95354000D02*
X167119000Y-93744000D01*
X167159000Y-95226000D02*
X167159000Y-93872000D01*
X167199000Y-95067000D02*
X167199000Y-94031000D01*
X167239000Y-94833000D02*
X167239000Y-94265000D01*
X161833225Y-96024000D02*
X162333225Y-96024000D01*
X162083225Y-96274000D02*
X162083225Y-95774000D01*
%TO.C,C19*%
X183714302Y-96832200D02*
X183714302Y-96032200D01*
X183314302Y-96432200D02*
X184114302Y-96432200D01*
X191805000Y-94650200D02*
X191805000Y-93584200D01*
X191765000Y-94885200D02*
X191765000Y-93349200D01*
X191725000Y-95065200D02*
X191725000Y-93169200D01*
X191685000Y-95215200D02*
X191685000Y-93019200D01*
X191645000Y-95346200D02*
X191645000Y-92888200D01*
X191605000Y-95463200D02*
X191605000Y-92771200D01*
X191565000Y-95570200D02*
X191565000Y-92664200D01*
X191525000Y-95669200D02*
X191525000Y-92565200D01*
X191485000Y-95762200D02*
X191485000Y-92472200D01*
X191445000Y-95848200D02*
X191445000Y-92386200D01*
X191405000Y-95930200D02*
X191405000Y-92304200D01*
X191365000Y-96007200D02*
X191365000Y-92227200D01*
X191325000Y-96081200D02*
X191325000Y-92153200D01*
X191285000Y-96151200D02*
X191285000Y-92083200D01*
X191245000Y-93077200D02*
X191245000Y-92015200D01*
X191245000Y-96219200D02*
X191245000Y-95157200D01*
X191205000Y-93077200D02*
X191205000Y-91951200D01*
X191205000Y-96283200D02*
X191205000Y-95157200D01*
X191165000Y-93077200D02*
X191165000Y-91889200D01*
X191165000Y-96345200D02*
X191165000Y-95157200D01*
X191125000Y-93077200D02*
X191125000Y-91830200D01*
X191125000Y-96404200D02*
X191125000Y-95157200D01*
X191085000Y-93077200D02*
X191085000Y-91772200D01*
X191085000Y-96462200D02*
X191085000Y-95157200D01*
X191045000Y-93077200D02*
X191045000Y-91717200D01*
X191045000Y-96517200D02*
X191045000Y-95157200D01*
X191005000Y-93077200D02*
X191005000Y-91663200D01*
X191005000Y-96571200D02*
X191005000Y-95157200D01*
X190965000Y-93077200D02*
X190965000Y-91612200D01*
X190965000Y-96622200D02*
X190965000Y-95157200D01*
X190925000Y-93077200D02*
X190925000Y-91561200D01*
X190925000Y-96673200D02*
X190925000Y-95157200D01*
X190885000Y-93077200D02*
X190885000Y-91513200D01*
X190885000Y-96721200D02*
X190885000Y-95157200D01*
X190845000Y-93077200D02*
X190845000Y-91466200D01*
X190845000Y-96768200D02*
X190845000Y-95157200D01*
X190805000Y-93077200D02*
X190805000Y-91420200D01*
X190805000Y-96814200D02*
X190805000Y-95157200D01*
X190765000Y-93077200D02*
X190765000Y-91376200D01*
X190765000Y-96858200D02*
X190765000Y-95157200D01*
X190725000Y-93077200D02*
X190725000Y-91333200D01*
X190725000Y-96901200D02*
X190725000Y-95157200D01*
X190685000Y-93077200D02*
X190685000Y-91291200D01*
X190685000Y-96943200D02*
X190685000Y-95157200D01*
X190645000Y-93077200D02*
X190645000Y-91250200D01*
X190645000Y-96984200D02*
X190645000Y-95157200D01*
X190605000Y-93077200D02*
X190605000Y-91210200D01*
X190605000Y-97024200D02*
X190605000Y-95157200D01*
X190565000Y-93077200D02*
X190565000Y-91172200D01*
X190565000Y-97062200D02*
X190565000Y-95157200D01*
X190525000Y-93077200D02*
X190525000Y-91134200D01*
X190525000Y-97100200D02*
X190525000Y-95157200D01*
X190485000Y-93077200D02*
X190485000Y-91098200D01*
X190485000Y-97136200D02*
X190485000Y-95157200D01*
X190445000Y-93077200D02*
X190445000Y-91062200D01*
X190445000Y-97172200D02*
X190445000Y-95157200D01*
X190405000Y-93077200D02*
X190405000Y-91027200D01*
X190405000Y-97207200D02*
X190405000Y-95157200D01*
X190365000Y-93077200D02*
X190365000Y-90993200D01*
X190365000Y-97241200D02*
X190365000Y-95157200D01*
X190325000Y-93077200D02*
X190325000Y-90961200D01*
X190325000Y-97273200D02*
X190325000Y-95157200D01*
X190285000Y-93077200D02*
X190285000Y-90928200D01*
X190285000Y-97306200D02*
X190285000Y-95157200D01*
X190245000Y-93077200D02*
X190245000Y-90897200D01*
X190245000Y-97337200D02*
X190245000Y-95157200D01*
X190205000Y-93077200D02*
X190205000Y-90867200D01*
X190205000Y-97367200D02*
X190205000Y-95157200D01*
X190165000Y-93077200D02*
X190165000Y-90837200D01*
X190165000Y-97397200D02*
X190165000Y-95157200D01*
X190125000Y-93077200D02*
X190125000Y-90808200D01*
X190125000Y-97426200D02*
X190125000Y-95157200D01*
X190085000Y-93077200D02*
X190085000Y-90779200D01*
X190085000Y-97455200D02*
X190085000Y-95157200D01*
X190045000Y-93077200D02*
X190045000Y-90752200D01*
X190045000Y-97482200D02*
X190045000Y-95157200D01*
X190005000Y-93077200D02*
X190005000Y-90725200D01*
X190005000Y-97509200D02*
X190005000Y-95157200D01*
X189965000Y-93077200D02*
X189965000Y-90699200D01*
X189965000Y-97535200D02*
X189965000Y-95157200D01*
X189925000Y-93077200D02*
X189925000Y-90673200D01*
X189925000Y-97561200D02*
X189925000Y-95157200D01*
X189885000Y-93077200D02*
X189885000Y-90648200D01*
X189885000Y-97586200D02*
X189885000Y-95157200D01*
X189845000Y-93077200D02*
X189845000Y-90624200D01*
X189845000Y-97610200D02*
X189845000Y-95157200D01*
X189805000Y-93077200D02*
X189805000Y-90600200D01*
X189805000Y-97634200D02*
X189805000Y-95157200D01*
X189765000Y-93077200D02*
X189765000Y-90577200D01*
X189765000Y-97657200D02*
X189765000Y-95157200D01*
X189725000Y-93077200D02*
X189725000Y-90555200D01*
X189725000Y-97679200D02*
X189725000Y-95157200D01*
X189685000Y-93077200D02*
X189685000Y-90533200D01*
X189685000Y-97701200D02*
X189685000Y-95157200D01*
X189645000Y-93077200D02*
X189645000Y-90511200D01*
X189645000Y-97723200D02*
X189645000Y-95157200D01*
X189605000Y-93077200D02*
X189605000Y-90490200D01*
X189605000Y-97744200D02*
X189605000Y-95157200D01*
X189565000Y-93077200D02*
X189565000Y-90470200D01*
X189565000Y-97764200D02*
X189565000Y-95157200D01*
X189525000Y-93077200D02*
X189525000Y-90451200D01*
X189525000Y-97783200D02*
X189525000Y-95157200D01*
X189485000Y-93077200D02*
X189485000Y-90431200D01*
X189485000Y-97803200D02*
X189485000Y-95157200D01*
X189445000Y-93077200D02*
X189445000Y-90413200D01*
X189445000Y-97821200D02*
X189445000Y-95157200D01*
X189405000Y-93077200D02*
X189405000Y-90395200D01*
X189405000Y-97839200D02*
X189405000Y-95157200D01*
X189365000Y-93077200D02*
X189365000Y-90377200D01*
X189365000Y-97857200D02*
X189365000Y-95157200D01*
X189325000Y-93077200D02*
X189325000Y-90360200D01*
X189325000Y-97874200D02*
X189325000Y-95157200D01*
X189285000Y-93077200D02*
X189285000Y-90343200D01*
X189285000Y-97891200D02*
X189285000Y-95157200D01*
X189245000Y-93077200D02*
X189245000Y-90327200D01*
X189245000Y-97907200D02*
X189245000Y-95157200D01*
X189205000Y-93077200D02*
X189205000Y-90312200D01*
X189205000Y-97922200D02*
X189205000Y-95157200D01*
X189165000Y-97938200D02*
X189165000Y-90296200D01*
X189125000Y-97952200D02*
X189125000Y-90282200D01*
X189085000Y-97967200D02*
X189085000Y-90267200D01*
X189045000Y-97980200D02*
X189045000Y-90254200D01*
X189005000Y-97994200D02*
X189005000Y-90240200D01*
X188965000Y-98006200D02*
X188965000Y-90228200D01*
X188925000Y-98019200D02*
X188925000Y-90215200D01*
X188885000Y-98031200D02*
X188885000Y-90203200D01*
X188845000Y-98042200D02*
X188845000Y-90192200D01*
X188805000Y-98053200D02*
X188805000Y-90181200D01*
X188765000Y-98064200D02*
X188765000Y-90170200D01*
X188725000Y-98074200D02*
X188725000Y-90160200D01*
X188685000Y-98084200D02*
X188685000Y-90150200D01*
X188645000Y-98093200D02*
X188645000Y-90141200D01*
X188605000Y-98102200D02*
X188605000Y-90132200D01*
X188565000Y-98111200D02*
X188565000Y-90123200D01*
X188525000Y-98119200D02*
X188525000Y-90115200D01*
X188485000Y-98127200D02*
X188485000Y-90107200D01*
X188445000Y-98134200D02*
X188445000Y-90100200D01*
X188404000Y-98141200D02*
X188404000Y-90093200D01*
X188364000Y-98147200D02*
X188364000Y-90087200D01*
X188324000Y-98154200D02*
X188324000Y-90080200D01*
X188284000Y-98159200D02*
X188284000Y-90075200D01*
X188244000Y-98165200D02*
X188244000Y-90069200D01*
X188204000Y-98169200D02*
X188204000Y-90065200D01*
X188164000Y-98174200D02*
X188164000Y-90060200D01*
X188124000Y-98178200D02*
X188124000Y-90056200D01*
X188084000Y-98182200D02*
X188084000Y-90052200D01*
X188044000Y-98185200D02*
X188044000Y-90049200D01*
X188004000Y-98188200D02*
X188004000Y-90046200D01*
X187964000Y-98191200D02*
X187964000Y-90043200D01*
X187924000Y-98193200D02*
X187924000Y-90041200D01*
X187884000Y-98194200D02*
X187884000Y-90040200D01*
X187844000Y-98196200D02*
X187844000Y-90038200D01*
X187804000Y-98197200D02*
X187804000Y-90037200D01*
X187764000Y-98197200D02*
X187764000Y-90037200D01*
X187724000Y-98197200D02*
X187724000Y-90037200D01*
X191844000Y-94117200D02*
G75*
G03X191844000Y-94117200I-4120000J0D01*
G01*
%TO.C,C20*%
X180880000Y-94071400D02*
G75*
G03X180880000Y-94071400I-4120000J0D01*
G01*
X176760000Y-89991400D02*
X176760000Y-98151400D01*
X176720000Y-89991400D02*
X176720000Y-98151400D01*
X176680000Y-89991400D02*
X176680000Y-98151400D01*
X176640000Y-89992400D02*
X176640000Y-98150400D01*
X176600000Y-89994400D02*
X176600000Y-98148400D01*
X176560000Y-89995400D02*
X176560000Y-98147400D01*
X176520000Y-89997400D02*
X176520000Y-98145400D01*
X176480000Y-90000400D02*
X176480000Y-98142400D01*
X176440000Y-90003400D02*
X176440000Y-98139400D01*
X176400000Y-90006400D02*
X176400000Y-98136400D01*
X176360000Y-90010400D02*
X176360000Y-98132400D01*
X176320000Y-90014400D02*
X176320000Y-98128400D01*
X176280000Y-90019400D02*
X176280000Y-98123400D01*
X176240000Y-90023400D02*
X176240000Y-98119400D01*
X176200000Y-90029400D02*
X176200000Y-98113400D01*
X176160000Y-90034400D02*
X176160000Y-98108400D01*
X176120000Y-90041400D02*
X176120000Y-98101400D01*
X176080000Y-90047400D02*
X176080000Y-98095400D01*
X176039000Y-90054400D02*
X176039000Y-98088400D01*
X175999000Y-90061400D02*
X175999000Y-98081400D01*
X175959000Y-90069400D02*
X175959000Y-98073400D01*
X175919000Y-90077400D02*
X175919000Y-98065400D01*
X175879000Y-90086400D02*
X175879000Y-98056400D01*
X175839000Y-90095400D02*
X175839000Y-98047400D01*
X175799000Y-90104400D02*
X175799000Y-98038400D01*
X175759000Y-90114400D02*
X175759000Y-98028400D01*
X175719000Y-90124400D02*
X175719000Y-98018400D01*
X175679000Y-90135400D02*
X175679000Y-98007400D01*
X175639000Y-90146400D02*
X175639000Y-97996400D01*
X175599000Y-90157400D02*
X175599000Y-97985400D01*
X175559000Y-90169400D02*
X175559000Y-97973400D01*
X175519000Y-90182400D02*
X175519000Y-97960400D01*
X175479000Y-90194400D02*
X175479000Y-97948400D01*
X175439000Y-90208400D02*
X175439000Y-97934400D01*
X175399000Y-90221400D02*
X175399000Y-97921400D01*
X175359000Y-90236400D02*
X175359000Y-97906400D01*
X175319000Y-90250400D02*
X175319000Y-97892400D01*
X175279000Y-90266400D02*
X175279000Y-93031400D01*
X175279000Y-95111400D02*
X175279000Y-97876400D01*
X175239000Y-90281400D02*
X175239000Y-93031400D01*
X175239000Y-95111400D02*
X175239000Y-97861400D01*
X175199000Y-90297400D02*
X175199000Y-93031400D01*
X175199000Y-95111400D02*
X175199000Y-97845400D01*
X175159000Y-90314400D02*
X175159000Y-93031400D01*
X175159000Y-95111400D02*
X175159000Y-97828400D01*
X175119000Y-90331400D02*
X175119000Y-93031400D01*
X175119000Y-95111400D02*
X175119000Y-97811400D01*
X175079000Y-90349400D02*
X175079000Y-93031400D01*
X175079000Y-95111400D02*
X175079000Y-97793400D01*
X175039000Y-90367400D02*
X175039000Y-93031400D01*
X175039000Y-95111400D02*
X175039000Y-97775400D01*
X174999000Y-90385400D02*
X174999000Y-93031400D01*
X174999000Y-95111400D02*
X174999000Y-97757400D01*
X174959000Y-90405400D02*
X174959000Y-93031400D01*
X174959000Y-95111400D02*
X174959000Y-97737400D01*
X174919000Y-90424400D02*
X174919000Y-93031400D01*
X174919000Y-95111400D02*
X174919000Y-97718400D01*
X174879000Y-90444400D02*
X174879000Y-93031400D01*
X174879000Y-95111400D02*
X174879000Y-97698400D01*
X174839000Y-90465400D02*
X174839000Y-93031400D01*
X174839000Y-95111400D02*
X174839000Y-97677400D01*
X174799000Y-90487400D02*
X174799000Y-93031400D01*
X174799000Y-95111400D02*
X174799000Y-97655400D01*
X174759000Y-90509400D02*
X174759000Y-93031400D01*
X174759000Y-95111400D02*
X174759000Y-97633400D01*
X174719000Y-90531400D02*
X174719000Y-93031400D01*
X174719000Y-95111400D02*
X174719000Y-97611400D01*
X174679000Y-90554400D02*
X174679000Y-93031400D01*
X174679000Y-95111400D02*
X174679000Y-97588400D01*
X174639000Y-90578400D02*
X174639000Y-93031400D01*
X174639000Y-95111400D02*
X174639000Y-97564400D01*
X174599000Y-90602400D02*
X174599000Y-93031400D01*
X174599000Y-95111400D02*
X174599000Y-97540400D01*
X174559000Y-90627400D02*
X174559000Y-93031400D01*
X174559000Y-95111400D02*
X174559000Y-97515400D01*
X174519000Y-90653400D02*
X174519000Y-93031400D01*
X174519000Y-95111400D02*
X174519000Y-97489400D01*
X174479000Y-90679400D02*
X174479000Y-93031400D01*
X174479000Y-95111400D02*
X174479000Y-97463400D01*
X174439000Y-90706400D02*
X174439000Y-93031400D01*
X174439000Y-95111400D02*
X174439000Y-97436400D01*
X174399000Y-90733400D02*
X174399000Y-93031400D01*
X174399000Y-95111400D02*
X174399000Y-97409400D01*
X174359000Y-90762400D02*
X174359000Y-93031400D01*
X174359000Y-95111400D02*
X174359000Y-97380400D01*
X174319000Y-90791400D02*
X174319000Y-93031400D01*
X174319000Y-95111400D02*
X174319000Y-97351400D01*
X174279000Y-90821400D02*
X174279000Y-93031400D01*
X174279000Y-95111400D02*
X174279000Y-97321400D01*
X174239000Y-90851400D02*
X174239000Y-93031400D01*
X174239000Y-95111400D02*
X174239000Y-97291400D01*
X174199000Y-90882400D02*
X174199000Y-93031400D01*
X174199000Y-95111400D02*
X174199000Y-97260400D01*
X174159000Y-90915400D02*
X174159000Y-93031400D01*
X174159000Y-95111400D02*
X174159000Y-97227400D01*
X174119000Y-90947400D02*
X174119000Y-93031400D01*
X174119000Y-95111400D02*
X174119000Y-97195400D01*
X174079000Y-90981400D02*
X174079000Y-93031400D01*
X174079000Y-95111400D02*
X174079000Y-97161400D01*
X174039000Y-91016400D02*
X174039000Y-93031400D01*
X174039000Y-95111400D02*
X174039000Y-97126400D01*
X173999000Y-91052400D02*
X173999000Y-93031400D01*
X173999000Y-95111400D02*
X173999000Y-97090400D01*
X173959000Y-91088400D02*
X173959000Y-93031400D01*
X173959000Y-95111400D02*
X173959000Y-97054400D01*
X173919000Y-91126400D02*
X173919000Y-93031400D01*
X173919000Y-95111400D02*
X173919000Y-97016400D01*
X173879000Y-91164400D02*
X173879000Y-93031400D01*
X173879000Y-95111400D02*
X173879000Y-96978400D01*
X173839000Y-91204400D02*
X173839000Y-93031400D01*
X173839000Y-95111400D02*
X173839000Y-96938400D01*
X173799000Y-91245400D02*
X173799000Y-93031400D01*
X173799000Y-95111400D02*
X173799000Y-96897400D01*
X173759000Y-91287400D02*
X173759000Y-93031400D01*
X173759000Y-95111400D02*
X173759000Y-96855400D01*
X173719000Y-91330400D02*
X173719000Y-93031400D01*
X173719000Y-95111400D02*
X173719000Y-96812400D01*
X173679000Y-91374400D02*
X173679000Y-93031400D01*
X173679000Y-95111400D02*
X173679000Y-96768400D01*
X173639000Y-91420400D02*
X173639000Y-93031400D01*
X173639000Y-95111400D02*
X173639000Y-96722400D01*
X173599000Y-91467400D02*
X173599000Y-93031400D01*
X173599000Y-95111400D02*
X173599000Y-96675400D01*
X173559000Y-91515400D02*
X173559000Y-93031400D01*
X173559000Y-95111400D02*
X173559000Y-96627400D01*
X173519000Y-91566400D02*
X173519000Y-93031400D01*
X173519000Y-95111400D02*
X173519000Y-96576400D01*
X173479000Y-91617400D02*
X173479000Y-93031400D01*
X173479000Y-95111400D02*
X173479000Y-96525400D01*
X173439000Y-91671400D02*
X173439000Y-93031400D01*
X173439000Y-95111400D02*
X173439000Y-96471400D01*
X173399000Y-91726400D02*
X173399000Y-93031400D01*
X173399000Y-95111400D02*
X173399000Y-96416400D01*
X173359000Y-91784400D02*
X173359000Y-93031400D01*
X173359000Y-95111400D02*
X173359000Y-96358400D01*
X173319000Y-91843400D02*
X173319000Y-93031400D01*
X173319000Y-95111400D02*
X173319000Y-96299400D01*
X173279000Y-91905400D02*
X173279000Y-93031400D01*
X173279000Y-95111400D02*
X173279000Y-96237400D01*
X173239000Y-91969400D02*
X173239000Y-93031400D01*
X173239000Y-95111400D02*
X173239000Y-96173400D01*
X173199000Y-92037400D02*
X173199000Y-96105400D01*
X173159000Y-92107400D02*
X173159000Y-96035400D01*
X173119000Y-92181400D02*
X173119000Y-95961400D01*
X173079000Y-92258400D02*
X173079000Y-95884400D01*
X173039000Y-92340400D02*
X173039000Y-95802400D01*
X172999000Y-92426400D02*
X172999000Y-95716400D01*
X172959000Y-92519400D02*
X172959000Y-95623400D01*
X172919000Y-92618400D02*
X172919000Y-95524400D01*
X172879000Y-92725400D02*
X172879000Y-95417400D01*
X172839000Y-92842400D02*
X172839000Y-95300400D01*
X172799000Y-92973400D02*
X172799000Y-95169400D01*
X172759000Y-93123400D02*
X172759000Y-95019400D01*
X172719000Y-93303400D02*
X172719000Y-94839400D01*
X172679000Y-93538400D02*
X172679000Y-94604400D01*
X181169698Y-91756400D02*
X180369698Y-91756400D01*
X180769698Y-91356400D02*
X180769698Y-92156400D01*
%TO.C,L1*%
X207071000Y-89911600D02*
G75*
G03X207071000Y-89911600I-4470000J0D01*
G01*
%TO.C,C1*%
X199054000Y-70319900D02*
G75*
G03X199054000Y-70319900I-4120000J0D01*
G01*
X194934000Y-66239900D02*
X194934000Y-74399900D01*
X194894000Y-66239900D02*
X194894000Y-74399900D01*
X194854000Y-66239900D02*
X194854000Y-74399900D01*
X194814000Y-66240900D02*
X194814000Y-74398900D01*
X194774000Y-66242900D02*
X194774000Y-74396900D01*
X194734000Y-66243900D02*
X194734000Y-74395900D01*
X194694000Y-66245900D02*
X194694000Y-74393900D01*
X194654000Y-66248900D02*
X194654000Y-74390900D01*
X194614000Y-66251900D02*
X194614000Y-74387900D01*
X194574000Y-66254900D02*
X194574000Y-74384900D01*
X194534000Y-66258900D02*
X194534000Y-74380900D01*
X194494000Y-66262900D02*
X194494000Y-74376900D01*
X194454000Y-66267900D02*
X194454000Y-74371900D01*
X194414000Y-66271900D02*
X194414000Y-74367900D01*
X194374000Y-66277900D02*
X194374000Y-74361900D01*
X194334000Y-66282900D02*
X194334000Y-74356900D01*
X194294000Y-66289900D02*
X194294000Y-74349900D01*
X194254000Y-66295900D02*
X194254000Y-74343900D01*
X194213000Y-66302900D02*
X194213000Y-74336900D01*
X194173000Y-66309900D02*
X194173000Y-74329900D01*
X194133000Y-66317900D02*
X194133000Y-74321900D01*
X194093000Y-66325900D02*
X194093000Y-74313900D01*
X194053000Y-66334900D02*
X194053000Y-74304900D01*
X194013000Y-66343900D02*
X194013000Y-74295900D01*
X193973000Y-66352900D02*
X193973000Y-74286900D01*
X193933000Y-66362900D02*
X193933000Y-74276900D01*
X193893000Y-66372900D02*
X193893000Y-74266900D01*
X193853000Y-66383900D02*
X193853000Y-74255900D01*
X193813000Y-66394900D02*
X193813000Y-74244900D01*
X193773000Y-66405900D02*
X193773000Y-74233900D01*
X193733000Y-66417900D02*
X193733000Y-74221900D01*
X193693000Y-66430900D02*
X193693000Y-74208900D01*
X193653000Y-66442900D02*
X193653000Y-74196900D01*
X193613000Y-66456900D02*
X193613000Y-74182900D01*
X193573000Y-66469900D02*
X193573000Y-74169900D01*
X193533000Y-66484900D02*
X193533000Y-74154900D01*
X193493000Y-66498900D02*
X193493000Y-74140900D01*
X193453000Y-66514900D02*
X193453000Y-69279900D01*
X193453000Y-71359900D02*
X193453000Y-74124900D01*
X193413000Y-66529900D02*
X193413000Y-69279900D01*
X193413000Y-71359900D02*
X193413000Y-74109900D01*
X193373000Y-66545900D02*
X193373000Y-69279900D01*
X193373000Y-71359900D02*
X193373000Y-74093900D01*
X193333000Y-66562900D02*
X193333000Y-69279900D01*
X193333000Y-71359900D02*
X193333000Y-74076900D01*
X193293000Y-66579900D02*
X193293000Y-69279900D01*
X193293000Y-71359900D02*
X193293000Y-74059900D01*
X193253000Y-66597900D02*
X193253000Y-69279900D01*
X193253000Y-71359900D02*
X193253000Y-74041900D01*
X193213000Y-66615900D02*
X193213000Y-69279900D01*
X193213000Y-71359900D02*
X193213000Y-74023900D01*
X193173000Y-66633900D02*
X193173000Y-69279900D01*
X193173000Y-71359900D02*
X193173000Y-74005900D01*
X193133000Y-66653900D02*
X193133000Y-69279900D01*
X193133000Y-71359900D02*
X193133000Y-73985900D01*
X193093000Y-66672900D02*
X193093000Y-69279900D01*
X193093000Y-71359900D02*
X193093000Y-73966900D01*
X193053000Y-66692900D02*
X193053000Y-69279900D01*
X193053000Y-71359900D02*
X193053000Y-73946900D01*
X193013000Y-66713900D02*
X193013000Y-69279900D01*
X193013000Y-71359900D02*
X193013000Y-73925900D01*
X192973000Y-66735900D02*
X192973000Y-69279900D01*
X192973000Y-71359900D02*
X192973000Y-73903900D01*
X192933000Y-66757900D02*
X192933000Y-69279900D01*
X192933000Y-71359900D02*
X192933000Y-73881900D01*
X192893000Y-66779900D02*
X192893000Y-69279900D01*
X192893000Y-71359900D02*
X192893000Y-73859900D01*
X192853000Y-66802900D02*
X192853000Y-69279900D01*
X192853000Y-71359900D02*
X192853000Y-73836900D01*
X192813000Y-66826900D02*
X192813000Y-69279900D01*
X192813000Y-71359900D02*
X192813000Y-73812900D01*
X192773000Y-66850900D02*
X192773000Y-69279900D01*
X192773000Y-71359900D02*
X192773000Y-73788900D01*
X192733000Y-66875900D02*
X192733000Y-69279900D01*
X192733000Y-71359900D02*
X192733000Y-73763900D01*
X192693000Y-66901900D02*
X192693000Y-69279900D01*
X192693000Y-71359900D02*
X192693000Y-73737900D01*
X192653000Y-66927900D02*
X192653000Y-69279900D01*
X192653000Y-71359900D02*
X192653000Y-73711900D01*
X192613000Y-66954900D02*
X192613000Y-69279900D01*
X192613000Y-71359900D02*
X192613000Y-73684900D01*
X192573000Y-66981900D02*
X192573000Y-69279900D01*
X192573000Y-71359900D02*
X192573000Y-73657900D01*
X192533000Y-67010900D02*
X192533000Y-69279900D01*
X192533000Y-71359900D02*
X192533000Y-73628900D01*
X192493000Y-67039900D02*
X192493000Y-69279900D01*
X192493000Y-71359900D02*
X192493000Y-73599900D01*
X192453000Y-67069900D02*
X192453000Y-69279900D01*
X192453000Y-71359900D02*
X192453000Y-73569900D01*
X192413000Y-67099900D02*
X192413000Y-69279900D01*
X192413000Y-71359900D02*
X192413000Y-73539900D01*
X192373000Y-67130900D02*
X192373000Y-69279900D01*
X192373000Y-71359900D02*
X192373000Y-73508900D01*
X192333000Y-67163900D02*
X192333000Y-69279900D01*
X192333000Y-71359900D02*
X192333000Y-73475900D01*
X192293000Y-67195900D02*
X192293000Y-69279900D01*
X192293000Y-71359900D02*
X192293000Y-73443900D01*
X192253000Y-67229900D02*
X192253000Y-69279900D01*
X192253000Y-71359900D02*
X192253000Y-73409900D01*
X192213000Y-67264900D02*
X192213000Y-69279900D01*
X192213000Y-71359900D02*
X192213000Y-73374900D01*
X192173000Y-67300900D02*
X192173000Y-69279900D01*
X192173000Y-71359900D02*
X192173000Y-73338900D01*
X192133000Y-67336900D02*
X192133000Y-69279900D01*
X192133000Y-71359900D02*
X192133000Y-73302900D01*
X192093000Y-67374900D02*
X192093000Y-69279900D01*
X192093000Y-71359900D02*
X192093000Y-73264900D01*
X192053000Y-67412900D02*
X192053000Y-69279900D01*
X192053000Y-71359900D02*
X192053000Y-73226900D01*
X192013000Y-67452900D02*
X192013000Y-69279900D01*
X192013000Y-71359900D02*
X192013000Y-73186900D01*
X191973000Y-67493900D02*
X191973000Y-69279900D01*
X191973000Y-71359900D02*
X191973000Y-73145900D01*
X191933000Y-67535900D02*
X191933000Y-69279900D01*
X191933000Y-71359900D02*
X191933000Y-73103900D01*
X191893000Y-67578900D02*
X191893000Y-69279900D01*
X191893000Y-71359900D02*
X191893000Y-73060900D01*
X191853000Y-67622900D02*
X191853000Y-69279900D01*
X191853000Y-71359900D02*
X191853000Y-73016900D01*
X191813000Y-67668900D02*
X191813000Y-69279900D01*
X191813000Y-71359900D02*
X191813000Y-72970900D01*
X191773000Y-67715900D02*
X191773000Y-69279900D01*
X191773000Y-71359900D02*
X191773000Y-72923900D01*
X191733000Y-67763900D02*
X191733000Y-69279900D01*
X191733000Y-71359900D02*
X191733000Y-72875900D01*
X191693000Y-67814900D02*
X191693000Y-69279900D01*
X191693000Y-71359900D02*
X191693000Y-72824900D01*
X191653000Y-67865900D02*
X191653000Y-69279900D01*
X191653000Y-71359900D02*
X191653000Y-72773900D01*
X191613000Y-67919900D02*
X191613000Y-69279900D01*
X191613000Y-71359900D02*
X191613000Y-72719900D01*
X191573000Y-67974900D02*
X191573000Y-69279900D01*
X191573000Y-71359900D02*
X191573000Y-72664900D01*
X191533000Y-68032900D02*
X191533000Y-69279900D01*
X191533000Y-71359900D02*
X191533000Y-72606900D01*
X191493000Y-68091900D02*
X191493000Y-69279900D01*
X191493000Y-71359900D02*
X191493000Y-72547900D01*
X191453000Y-68153900D02*
X191453000Y-69279900D01*
X191453000Y-71359900D02*
X191453000Y-72485900D01*
X191413000Y-68217900D02*
X191413000Y-69279900D01*
X191413000Y-71359900D02*
X191413000Y-72421900D01*
X191373000Y-68285900D02*
X191373000Y-72353900D01*
X191333000Y-68355900D02*
X191333000Y-72283900D01*
X191293000Y-68429900D02*
X191293000Y-72209900D01*
X191253000Y-68506900D02*
X191253000Y-72132900D01*
X191213000Y-68588900D02*
X191213000Y-72050900D01*
X191173000Y-68674900D02*
X191173000Y-71964900D01*
X191133000Y-68767900D02*
X191133000Y-71871900D01*
X191093000Y-68866900D02*
X191093000Y-71772900D01*
X191053000Y-68973900D02*
X191053000Y-71665900D01*
X191013000Y-69090900D02*
X191013000Y-71548900D01*
X190973000Y-69221900D02*
X190973000Y-71417900D01*
X190933000Y-69371900D02*
X190933000Y-71267900D01*
X190893000Y-69551900D02*
X190893000Y-71087900D01*
X190853000Y-69786900D02*
X190853000Y-70852900D01*
X199343698Y-68004900D02*
X198543698Y-68004900D01*
X198943698Y-67604900D02*
X198943698Y-68404900D01*
%TO.C,D1*%
X102186000Y-72461500D02*
X106246000Y-72461500D01*
X106246000Y-72461500D02*
X106246000Y-74731500D01*
X106246000Y-74731500D02*
X102186000Y-74731500D01*
%TO.C,Q1*%
X104646000Y-76398000D02*
X104646000Y-77328000D01*
X104646000Y-79558000D02*
X104646000Y-78628000D01*
X104646000Y-79558000D02*
X101486000Y-79558000D01*
X104646000Y-76398000D02*
X103186000Y-76398000D01*
%TO.C,R10*%
X103283936Y-87037500D02*
X104488064Y-87037500D01*
X103283936Y-88857500D02*
X104488064Y-88857500D01*
%TO.C,R11*%
X104452064Y-83418000D02*
X103247936Y-83418000D01*
X104452064Y-85238000D02*
X103247936Y-85238000D01*
%TO.C,R13*%
X110257000Y-75688436D02*
X110257000Y-76892564D01*
X108437000Y-75688436D02*
X108437000Y-76892564D01*
%TO.C,R15*%
X97642000Y-75497936D02*
X97642000Y-76702064D01*
X99462000Y-75497936D02*
X99462000Y-76702064D01*
%TO.C,D2*%
X116292000Y-72779000D02*
X120352000Y-72779000D01*
X120352000Y-72779000D02*
X120352000Y-75049000D01*
X120352000Y-75049000D02*
X116292000Y-75049000D01*
%TO.C,Q3*%
X118489000Y-76398000D02*
X118489000Y-77328000D01*
X118489000Y-79558000D02*
X118489000Y-78628000D01*
X118489000Y-79558000D02*
X115329000Y-79558000D01*
X118489000Y-76398000D02*
X117029000Y-76398000D01*
%TO.C,R16*%
X117126936Y-87164500D02*
X118331064Y-87164500D01*
X117126936Y-88984500D02*
X118331064Y-88984500D01*
%TO.C,R18*%
X118294064Y-83481500D02*
X117089936Y-83481500D01*
X118294064Y-85301500D02*
X117089936Y-85301500D01*
%TO.C,R19*%
X124227000Y-75343936D02*
X124227000Y-76548064D01*
X122407000Y-75343936D02*
X122407000Y-76548064D01*
%TO.C,R20*%
X111676000Y-75561436D02*
X111676000Y-76765564D01*
X113496000Y-75561436D02*
X113496000Y-76765564D01*
%TO.C,D3*%
X130190000Y-72525000D02*
X134250000Y-72525000D01*
X134250000Y-72525000D02*
X134250000Y-74795000D01*
X134250000Y-74795000D02*
X130190000Y-74795000D01*
%TO.C,Q4*%
X132650000Y-76080500D02*
X132650000Y-77010500D01*
X132650000Y-79240500D02*
X132650000Y-78310500D01*
X132650000Y-79240500D02*
X129490000Y-79240500D01*
X132650000Y-76080500D02*
X131190000Y-76080500D01*
%TO.C,R26*%
X131005936Y-88857500D02*
X132210064Y-88857500D01*
X131005936Y-87037500D02*
X132210064Y-87037500D01*
%TO.C,R30*%
X132238064Y-85301500D02*
X131033936Y-85301500D01*
X132238064Y-83481500D02*
X131033936Y-83481500D01*
%TO.C,R31*%
X136250000Y-75380436D02*
X136250000Y-76584564D01*
X138070000Y-75380436D02*
X138070000Y-76584564D01*
%TO.C,R33*%
X127592000Y-75316936D02*
X127592000Y-76521064D01*
X125772000Y-75316936D02*
X125772000Y-76521064D01*
%TO.C,D4*%
X116156000Y-95766000D02*
X120216000Y-95766000D01*
X120216000Y-95766000D02*
X120216000Y-98036000D01*
X120216000Y-98036000D02*
X116156000Y-98036000D01*
%TO.C,Q5*%
X118552000Y-99512000D02*
X118552000Y-100442000D01*
X118552000Y-102672000D02*
X118552000Y-101742000D01*
X118552000Y-102672000D02*
X115392000Y-102672000D01*
X118552000Y-99512000D02*
X117092000Y-99512000D01*
%TO.C,R34*%
X117115000Y-108019936D02*
X117115000Y-109224064D01*
X115295000Y-108019936D02*
X115295000Y-109224064D01*
%TO.C,R35*%
X120862000Y-109214064D02*
X120862000Y-108009936D01*
X119042000Y-109214064D02*
X119042000Y-108009936D01*
%TO.C,R36*%
X124354000Y-98865936D02*
X124354000Y-100070064D01*
X122534000Y-98865936D02*
X122534000Y-100070064D01*
%TO.C,R37*%
X111104000Y-98811936D02*
X111104000Y-100016064D01*
X112924000Y-98811936D02*
X112924000Y-100016064D01*
%TO.C,D7*%
X102250000Y-95512000D02*
X106310000Y-95512000D01*
X106310000Y-95512000D02*
X106310000Y-97782000D01*
X106310000Y-97782000D02*
X102250000Y-97782000D01*
%TO.C,Q6*%
X104646000Y-99385000D02*
X104646000Y-100315000D01*
X104646000Y-102545000D02*
X104646000Y-101615000D01*
X104646000Y-102545000D02*
X101486000Y-102545000D01*
X104646000Y-99385000D02*
X103186000Y-99385000D01*
%TO.C,R38*%
X103272000Y-108336936D02*
X103272000Y-109541064D01*
X101452000Y-108336936D02*
X101452000Y-109541064D01*
%TO.C,R39*%
X106828000Y-109595064D02*
X106828000Y-108390936D01*
X105008000Y-109595064D02*
X105008000Y-108390936D01*
%TO.C,R40*%
X109622000Y-98875436D02*
X109622000Y-100079564D01*
X107802000Y-98875436D02*
X107802000Y-100079564D01*
%TO.C,R41*%
X97642000Y-98802436D02*
X97642000Y-100006564D01*
X99462000Y-98802436D02*
X99462000Y-100006564D01*
%TO.C,R43*%
X86163564Y-78634000D02*
X84959436Y-78634000D01*
X86163564Y-76814000D02*
X84959436Y-76814000D01*
%TO.C,R46*%
X85032436Y-83714000D02*
X86236564Y-83714000D01*
X85032436Y-81894000D02*
X86236564Y-81894000D01*
%TO.C,R47*%
X84451436Y-90530000D02*
X85655564Y-90530000D01*
X84451436Y-92350000D02*
X85655564Y-92350000D01*
%TO.C,R50*%
X91546000Y-71177564D02*
X91546000Y-69973436D01*
X93366000Y-71177564D02*
X93366000Y-69973436D01*
%TO.C,R52*%
X93366000Y-80829564D02*
X93366000Y-79625436D01*
X91546000Y-80829564D02*
X91546000Y-79625436D01*
%TO.C,R53*%
X92144436Y-111908000D02*
X93348564Y-111908000D01*
X92144436Y-110088000D02*
X93348564Y-110088000D01*
%TO.C,C10*%
D14*
X176004457Y-65838342D02*
X176052076Y-65885961D01*
X176194933Y-65933580D01*
X176290171Y-65933580D01*
X176433028Y-65885961D01*
X176528266Y-65790723D01*
X176575885Y-65695485D01*
X176623504Y-65505009D01*
X176623504Y-65362152D01*
X176575885Y-65171676D01*
X176528266Y-65076438D01*
X176433028Y-64981200D01*
X176290171Y-64933580D01*
X176194933Y-64933580D01*
X176052076Y-64981200D01*
X176004457Y-65028819D01*
X175052076Y-65933580D02*
X175623504Y-65933580D01*
X175337790Y-65933580D02*
X175337790Y-64933580D01*
X175433028Y-65076438D01*
X175528266Y-65171676D01*
X175623504Y-65219295D01*
X174433028Y-64933580D02*
X174337790Y-64933580D01*
X174242552Y-64981200D01*
X174194933Y-65028819D01*
X174147314Y-65124057D01*
X174099695Y-65314533D01*
X174099695Y-65552628D01*
X174147314Y-65743104D01*
X174194933Y-65838342D01*
X174242552Y-65885961D01*
X174337790Y-65933580D01*
X174433028Y-65933580D01*
X174528266Y-65885961D01*
X174575885Y-65838342D01*
X174623504Y-65743104D01*
X174671123Y-65552628D01*
X174671123Y-65314533D01*
X174623504Y-65124057D01*
X174575885Y-65028819D01*
X174528266Y-64981200D01*
X174433028Y-64933580D01*
%TO.C,C12*%
X165313557Y-92963042D02*
X165361176Y-93010661D01*
X165504033Y-93058280D01*
X165599271Y-93058280D01*
X165742128Y-93010661D01*
X165837366Y-92915423D01*
X165884985Y-92820185D01*
X165932604Y-92629709D01*
X165932604Y-92486852D01*
X165884985Y-92296376D01*
X165837366Y-92201138D01*
X165742128Y-92105900D01*
X165599271Y-92058280D01*
X165504033Y-92058280D01*
X165361176Y-92105900D01*
X165313557Y-92153519D01*
X164361176Y-93058280D02*
X164932604Y-93058280D01*
X164646890Y-93058280D02*
X164646890Y-92058280D01*
X164742128Y-92201138D01*
X164837366Y-92296376D01*
X164932604Y-92343995D01*
X163980223Y-92153519D02*
X163932604Y-92105900D01*
X163837366Y-92058280D01*
X163599271Y-92058280D01*
X163504033Y-92105900D01*
X163456414Y-92153519D01*
X163408795Y-92248757D01*
X163408795Y-92343995D01*
X163456414Y-92486852D01*
X164027842Y-93058280D01*
X163408795Y-93058280D01*
%TO.C,C19*%
X182963637Y-98045582D02*
X183011256Y-98093201D01*
X183154113Y-98140820D01*
X183249351Y-98140820D01*
X183392208Y-98093201D01*
X183487446Y-97997963D01*
X183535065Y-97902725D01*
X183582684Y-97712249D01*
X183582684Y-97569392D01*
X183535065Y-97378916D01*
X183487446Y-97283678D01*
X183392208Y-97188440D01*
X183249351Y-97140820D01*
X183154113Y-97140820D01*
X183011256Y-97188440D01*
X182963637Y-97236059D01*
X182011256Y-98140820D02*
X182582684Y-98140820D01*
X182296970Y-98140820D02*
X182296970Y-97140820D01*
X182392208Y-97283678D01*
X182487446Y-97378916D01*
X182582684Y-97426535D01*
X181535065Y-98140820D02*
X181344589Y-98140820D01*
X181249351Y-98093201D01*
X181201732Y-98045582D01*
X181106494Y-97902725D01*
X181058875Y-97712249D01*
X181058875Y-97331297D01*
X181106494Y-97236059D01*
X181154113Y-97188440D01*
X181249351Y-97140820D01*
X181439827Y-97140820D01*
X181535065Y-97188440D01*
X181582684Y-97236059D01*
X181630303Y-97331297D01*
X181630303Y-97569392D01*
X181582684Y-97664630D01*
X181535065Y-97712249D01*
X181439827Y-97759868D01*
X181249351Y-97759868D01*
X181154113Y-97712249D01*
X181106494Y-97664630D01*
X181058875Y-97569392D01*
%TO.C,C20*%
X182811157Y-91339902D02*
X182858776Y-91387521D01*
X183001633Y-91435140D01*
X183096871Y-91435140D01*
X183239728Y-91387521D01*
X183334966Y-91292283D01*
X183382585Y-91197045D01*
X183430204Y-91006569D01*
X183430204Y-90863712D01*
X183382585Y-90673236D01*
X183334966Y-90577998D01*
X183239728Y-90482760D01*
X183096871Y-90435140D01*
X183001633Y-90435140D01*
X182858776Y-90482760D01*
X182811157Y-90530379D01*
X182430204Y-90530379D02*
X182382585Y-90482760D01*
X182287347Y-90435140D01*
X182049252Y-90435140D01*
X181954014Y-90482760D01*
X181906395Y-90530379D01*
X181858776Y-90625617D01*
X181858776Y-90720855D01*
X181906395Y-90863712D01*
X182477823Y-91435140D01*
X181858776Y-91435140D01*
X181239728Y-90435140D02*
X181144490Y-90435140D01*
X181049252Y-90482760D01*
X181001633Y-90530379D01*
X180954014Y-90625617D01*
X180906395Y-90816093D01*
X180906395Y-91054188D01*
X180954014Y-91244664D01*
X181001633Y-91339902D01*
X181049252Y-91387521D01*
X181144490Y-91435140D01*
X181239728Y-91435140D01*
X181334966Y-91387521D01*
X181382585Y-91339902D01*
X181430204Y-91244664D01*
X181477823Y-91054188D01*
X181477823Y-90816093D01*
X181430204Y-90625617D01*
X181382585Y-90530379D01*
X181334966Y-90482760D01*
X181239728Y-90435140D01*
%TO.C,L1*%
X197453380Y-89744933D02*
X197453380Y-89268742D01*
X196453380Y-89268742D01*
X197453380Y-90602076D02*
X197453380Y-90030647D01*
X197453380Y-90316361D02*
X196453380Y-90316361D01*
X196596238Y-90221123D01*
X196691476Y-90125885D01*
X196739095Y-90030647D01*
%TO.C,C1*%
X198908766Y-66066942D02*
X198956385Y-66114561D01*
X199099242Y-66162180D01*
X199194480Y-66162180D01*
X199337338Y-66114561D01*
X199432576Y-66019323D01*
X199480195Y-65924085D01*
X199527814Y-65733609D01*
X199527814Y-65590752D01*
X199480195Y-65400276D01*
X199432576Y-65305038D01*
X199337338Y-65209800D01*
X199194480Y-65162180D01*
X199099242Y-65162180D01*
X198956385Y-65209800D01*
X198908766Y-65257419D01*
X197956385Y-66162180D02*
X198527814Y-66162180D01*
X198242100Y-66162180D02*
X198242100Y-65162180D01*
X198337338Y-65305038D01*
X198432576Y-65400276D01*
X198527814Y-65447895D01*
%TO.C,D1*%
X104524095Y-72228880D02*
X104524095Y-71228880D01*
X104286000Y-71228880D01*
X104143142Y-71276500D01*
X104047904Y-71371738D01*
X104000285Y-71466976D01*
X103952666Y-71657452D01*
X103952666Y-71800309D01*
X104000285Y-71990785D01*
X104047904Y-72086023D01*
X104143142Y-72181261D01*
X104286000Y-72228880D01*
X104524095Y-72228880D01*
X103000285Y-72228880D02*
X103571714Y-72228880D01*
X103286000Y-72228880D02*
X103286000Y-71228880D01*
X103381238Y-71371738D01*
X103476476Y-71466976D01*
X103571714Y-71514595D01*
%TO.C,Q1*%
X103981238Y-81025619D02*
X104076476Y-80978000D01*
X104171714Y-80882761D01*
X104314571Y-80739904D01*
X104409809Y-80692285D01*
X104505047Y-80692285D01*
X104457428Y-80930380D02*
X104552666Y-80882761D01*
X104647904Y-80787523D01*
X104695523Y-80597047D01*
X104695523Y-80263714D01*
X104647904Y-80073238D01*
X104552666Y-79978000D01*
X104457428Y-79930380D01*
X104266952Y-79930380D01*
X104171714Y-79978000D01*
X104076476Y-80073238D01*
X104028857Y-80263714D01*
X104028857Y-80597047D01*
X104076476Y-80787523D01*
X104171714Y-80882761D01*
X104266952Y-80930380D01*
X104457428Y-80930380D01*
X103076476Y-80930380D02*
X103647904Y-80930380D01*
X103362190Y-80930380D02*
X103362190Y-79930380D01*
X103457428Y-80073238D01*
X103552666Y-80168476D01*
X103647904Y-80216095D01*
%TO.C,R10*%
X104528857Y-90219880D02*
X104862190Y-89743690D01*
X105100285Y-90219880D02*
X105100285Y-89219880D01*
X104719333Y-89219880D01*
X104624095Y-89267500D01*
X104576476Y-89315119D01*
X104528857Y-89410357D01*
X104528857Y-89553214D01*
X104576476Y-89648452D01*
X104624095Y-89696071D01*
X104719333Y-89743690D01*
X105100285Y-89743690D01*
X103576476Y-90219880D02*
X104147904Y-90219880D01*
X103862190Y-90219880D02*
X103862190Y-89219880D01*
X103957428Y-89362738D01*
X104052666Y-89457976D01*
X104147904Y-89505595D01*
X102957428Y-89219880D02*
X102862190Y-89219880D01*
X102766952Y-89267500D01*
X102719333Y-89315119D01*
X102671714Y-89410357D01*
X102624095Y-89600833D01*
X102624095Y-89838928D01*
X102671714Y-90029404D01*
X102719333Y-90124642D01*
X102766952Y-90172261D01*
X102862190Y-90219880D01*
X102957428Y-90219880D01*
X103052666Y-90172261D01*
X103100285Y-90124642D01*
X103147904Y-90029404D01*
X103195523Y-89838928D01*
X103195523Y-89600833D01*
X103147904Y-89410357D01*
X103100285Y-89315119D01*
X103052666Y-89267500D01*
X102957428Y-89219880D01*
%TO.C,R11*%
X104075357Y-86431380D02*
X104408690Y-85955190D01*
X104646785Y-86431380D02*
X104646785Y-85431380D01*
X104265833Y-85431380D01*
X104170595Y-85479000D01*
X104122976Y-85526619D01*
X104075357Y-85621857D01*
X104075357Y-85764714D01*
X104122976Y-85859952D01*
X104170595Y-85907571D01*
X104265833Y-85955190D01*
X104646785Y-85955190D01*
X103122976Y-86431380D02*
X103694404Y-86431380D01*
X103408690Y-86431380D02*
X103408690Y-85431380D01*
X103503928Y-85574238D01*
X103599166Y-85669476D01*
X103694404Y-85717095D01*
X102170595Y-86431380D02*
X102742023Y-86431380D01*
X102456309Y-86431380D02*
X102456309Y-85431380D01*
X102551547Y-85574238D01*
X102646785Y-85669476D01*
X102742023Y-85717095D01*
%TO.C,R13*%
X107979380Y-75647642D02*
X107503190Y-75314309D01*
X107979380Y-75076214D02*
X106979380Y-75076214D01*
X106979380Y-75457166D01*
X107027000Y-75552404D01*
X107074619Y-75600023D01*
X107169857Y-75647642D01*
X107312714Y-75647642D01*
X107407952Y-75600023D01*
X107455571Y-75552404D01*
X107503190Y-75457166D01*
X107503190Y-75076214D01*
X107979380Y-76600023D02*
X107979380Y-76028595D01*
X107979380Y-76314309D02*
X106979380Y-76314309D01*
X107122238Y-76219071D01*
X107217476Y-76123833D01*
X107265095Y-76028595D01*
X106979380Y-76933357D02*
X106979380Y-77552404D01*
X107360333Y-77219071D01*
X107360333Y-77361928D01*
X107407952Y-77457166D01*
X107455571Y-77504785D01*
X107550809Y-77552404D01*
X107788904Y-77552404D01*
X107884142Y-77504785D01*
X107931761Y-77457166D01*
X107979380Y-77361928D01*
X107979380Y-77076214D01*
X107931761Y-76980976D01*
X107884142Y-76933357D01*
%TO.C,R15*%
X100782380Y-75557142D02*
X100306190Y-75223809D01*
X100782380Y-74985714D02*
X99782380Y-74985714D01*
X99782380Y-75366666D01*
X99830000Y-75461904D01*
X99877619Y-75509523D01*
X99972857Y-75557142D01*
X100115714Y-75557142D01*
X100210952Y-75509523D01*
X100258571Y-75461904D01*
X100306190Y-75366666D01*
X100306190Y-74985714D01*
X100782380Y-76509523D02*
X100782380Y-75938095D01*
X100782380Y-76223809D02*
X99782380Y-76223809D01*
X99925238Y-76128571D01*
X100020476Y-76033333D01*
X100068095Y-75938095D01*
X99782380Y-77414285D02*
X99782380Y-76938095D01*
X100258571Y-76890476D01*
X100210952Y-76938095D01*
X100163333Y-77033333D01*
X100163333Y-77271428D01*
X100210952Y-77366666D01*
X100258571Y-77414285D01*
X100353809Y-77461904D01*
X100591904Y-77461904D01*
X100687142Y-77414285D01*
X100734761Y-77366666D01*
X100782380Y-77271428D01*
X100782380Y-77033333D01*
X100734761Y-76938095D01*
X100687142Y-76890476D01*
%TO.C,D2*%
X118344380Y-71355904D02*
X117344380Y-71355904D01*
X117344380Y-71594000D01*
X117392000Y-71736857D01*
X117487238Y-71832095D01*
X117582476Y-71879714D01*
X117772952Y-71927333D01*
X117915809Y-71927333D01*
X118106285Y-71879714D01*
X118201523Y-71832095D01*
X118296761Y-71736857D01*
X118344380Y-71594000D01*
X118344380Y-71355904D01*
X117439619Y-72308285D02*
X117392000Y-72355904D01*
X117344380Y-72451142D01*
X117344380Y-72689238D01*
X117392000Y-72784476D01*
X117439619Y-72832095D01*
X117534857Y-72879714D01*
X117630095Y-72879714D01*
X117772952Y-72832095D01*
X118344380Y-72260666D01*
X118344380Y-72879714D01*
%TO.C,Q3*%
X117824238Y-81025619D02*
X117919476Y-80978000D01*
X118014714Y-80882761D01*
X118157571Y-80739904D01*
X118252809Y-80692285D01*
X118348047Y-80692285D01*
X118300428Y-80930380D02*
X118395666Y-80882761D01*
X118490904Y-80787523D01*
X118538523Y-80597047D01*
X118538523Y-80263714D01*
X118490904Y-80073238D01*
X118395666Y-79978000D01*
X118300428Y-79930380D01*
X118109952Y-79930380D01*
X118014714Y-79978000D01*
X117919476Y-80073238D01*
X117871857Y-80263714D01*
X117871857Y-80597047D01*
X117919476Y-80787523D01*
X118014714Y-80882761D01*
X118109952Y-80930380D01*
X118300428Y-80930380D01*
X117538523Y-79930380D02*
X116919476Y-79930380D01*
X117252809Y-80311333D01*
X117109952Y-80311333D01*
X117014714Y-80358952D01*
X116967095Y-80406571D01*
X116919476Y-80501809D01*
X116919476Y-80739904D01*
X116967095Y-80835142D01*
X117014714Y-80882761D01*
X117109952Y-80930380D01*
X117395666Y-80930380D01*
X117490904Y-80882761D01*
X117538523Y-80835142D01*
%TO.C,R16*%
X118371857Y-90346880D02*
X118705190Y-89870690D01*
X118943285Y-90346880D02*
X118943285Y-89346880D01*
X118562333Y-89346880D01*
X118467095Y-89394500D01*
X118419476Y-89442119D01*
X118371857Y-89537357D01*
X118371857Y-89680214D01*
X118419476Y-89775452D01*
X118467095Y-89823071D01*
X118562333Y-89870690D01*
X118943285Y-89870690D01*
X117419476Y-90346880D02*
X117990904Y-90346880D01*
X117705190Y-90346880D02*
X117705190Y-89346880D01*
X117800428Y-89489738D01*
X117895666Y-89584976D01*
X117990904Y-89632595D01*
X116562333Y-89346880D02*
X116752809Y-89346880D01*
X116848047Y-89394500D01*
X116895666Y-89442119D01*
X116990904Y-89584976D01*
X117038523Y-89775452D01*
X117038523Y-90156404D01*
X116990904Y-90251642D01*
X116943285Y-90299261D01*
X116848047Y-90346880D01*
X116657571Y-90346880D01*
X116562333Y-90299261D01*
X116514714Y-90251642D01*
X116467095Y-90156404D01*
X116467095Y-89918309D01*
X116514714Y-89823071D01*
X116562333Y-89775452D01*
X116657571Y-89727833D01*
X116848047Y-89727833D01*
X116943285Y-89775452D01*
X116990904Y-89823071D01*
X117038523Y-89918309D01*
%TO.C,R18*%
X118334857Y-83023880D02*
X118668190Y-82547690D01*
X118906285Y-83023880D02*
X118906285Y-82023880D01*
X118525333Y-82023880D01*
X118430095Y-82071500D01*
X118382476Y-82119119D01*
X118334857Y-82214357D01*
X118334857Y-82357214D01*
X118382476Y-82452452D01*
X118430095Y-82500071D01*
X118525333Y-82547690D01*
X118906285Y-82547690D01*
X117382476Y-83023880D02*
X117953904Y-83023880D01*
X117668190Y-83023880D02*
X117668190Y-82023880D01*
X117763428Y-82166738D01*
X117858666Y-82261976D01*
X117953904Y-82309595D01*
X116811047Y-82452452D02*
X116906285Y-82404833D01*
X116953904Y-82357214D01*
X117001523Y-82261976D01*
X117001523Y-82214357D01*
X116953904Y-82119119D01*
X116906285Y-82071500D01*
X116811047Y-82023880D01*
X116620571Y-82023880D01*
X116525333Y-82071500D01*
X116477714Y-82119119D01*
X116430095Y-82214357D01*
X116430095Y-82261976D01*
X116477714Y-82357214D01*
X116525333Y-82404833D01*
X116620571Y-82452452D01*
X116811047Y-82452452D01*
X116906285Y-82500071D01*
X116953904Y-82547690D01*
X117001523Y-82642928D01*
X117001523Y-82833404D01*
X116953904Y-82928642D01*
X116906285Y-82976261D01*
X116811047Y-83023880D01*
X116620571Y-83023880D01*
X116525333Y-82976261D01*
X116477714Y-82928642D01*
X116430095Y-82833404D01*
X116430095Y-82642928D01*
X116477714Y-82547690D01*
X116525333Y-82500071D01*
X116620571Y-82452452D01*
%TO.C,R19*%
X121949380Y-75303142D02*
X121473190Y-74969809D01*
X121949380Y-74731714D02*
X120949380Y-74731714D01*
X120949380Y-75112666D01*
X120997000Y-75207904D01*
X121044619Y-75255523D01*
X121139857Y-75303142D01*
X121282714Y-75303142D01*
X121377952Y-75255523D01*
X121425571Y-75207904D01*
X121473190Y-75112666D01*
X121473190Y-74731714D01*
X121949380Y-76255523D02*
X121949380Y-75684095D01*
X121949380Y-75969809D02*
X120949380Y-75969809D01*
X121092238Y-75874571D01*
X121187476Y-75779333D01*
X121235095Y-75684095D01*
X121949380Y-76731714D02*
X121949380Y-76922190D01*
X121901761Y-77017428D01*
X121854142Y-77065047D01*
X121711285Y-77160285D01*
X121520809Y-77207904D01*
X121139857Y-77207904D01*
X121044619Y-77160285D01*
X120997000Y-77112666D01*
X120949380Y-77017428D01*
X120949380Y-76826952D01*
X120997000Y-76731714D01*
X121044619Y-76684095D01*
X121139857Y-76636476D01*
X121377952Y-76636476D01*
X121473190Y-76684095D01*
X121520809Y-76731714D01*
X121568428Y-76826952D01*
X121568428Y-77017428D01*
X121520809Y-77112666D01*
X121473190Y-77160285D01*
X121377952Y-77207904D01*
%TO.C,R20*%
X111218380Y-75520642D02*
X110742190Y-75187309D01*
X111218380Y-74949214D02*
X110218380Y-74949214D01*
X110218380Y-75330166D01*
X110266000Y-75425404D01*
X110313619Y-75473023D01*
X110408857Y-75520642D01*
X110551714Y-75520642D01*
X110646952Y-75473023D01*
X110694571Y-75425404D01*
X110742190Y-75330166D01*
X110742190Y-74949214D01*
X110313619Y-75901595D02*
X110266000Y-75949214D01*
X110218380Y-76044452D01*
X110218380Y-76282547D01*
X110266000Y-76377785D01*
X110313619Y-76425404D01*
X110408857Y-76473023D01*
X110504095Y-76473023D01*
X110646952Y-76425404D01*
X111218380Y-75853976D01*
X111218380Y-76473023D01*
X110218380Y-77092071D02*
X110218380Y-77187309D01*
X110266000Y-77282547D01*
X110313619Y-77330166D01*
X110408857Y-77377785D01*
X110599333Y-77425404D01*
X110837428Y-77425404D01*
X111027904Y-77377785D01*
X111123142Y-77330166D01*
X111170761Y-77282547D01*
X111218380Y-77187309D01*
X111218380Y-77092071D01*
X111170761Y-76996833D01*
X111123142Y-76949214D01*
X111027904Y-76901595D01*
X110837428Y-76853976D01*
X110599333Y-76853976D01*
X110408857Y-76901595D01*
X110313619Y-76949214D01*
X110266000Y-76996833D01*
X110218380Y-77092071D01*
%TO.C,D3*%
X132528095Y-72292380D02*
X132528095Y-71292380D01*
X132290000Y-71292380D01*
X132147142Y-71340000D01*
X132051904Y-71435238D01*
X132004285Y-71530476D01*
X131956666Y-71720952D01*
X131956666Y-71863809D01*
X132004285Y-72054285D01*
X132051904Y-72149523D01*
X132147142Y-72244761D01*
X132290000Y-72292380D01*
X132528095Y-72292380D01*
X131623333Y-71292380D02*
X131004285Y-71292380D01*
X131337619Y-71673333D01*
X131194761Y-71673333D01*
X131099523Y-71720952D01*
X131051904Y-71768571D01*
X131004285Y-71863809D01*
X131004285Y-72101904D01*
X131051904Y-72197142D01*
X131099523Y-72244761D01*
X131194761Y-72292380D01*
X131480476Y-72292380D01*
X131575714Y-72244761D01*
X131623333Y-72197142D01*
%TO.C,Q4*%
X131985238Y-80708119D02*
X132080476Y-80660500D01*
X132175714Y-80565261D01*
X132318571Y-80422404D01*
X132413809Y-80374785D01*
X132509047Y-80374785D01*
X132461428Y-80612880D02*
X132556666Y-80565261D01*
X132651904Y-80470023D01*
X132699523Y-80279547D01*
X132699523Y-79946214D01*
X132651904Y-79755738D01*
X132556666Y-79660500D01*
X132461428Y-79612880D01*
X132270952Y-79612880D01*
X132175714Y-79660500D01*
X132080476Y-79755738D01*
X132032857Y-79946214D01*
X132032857Y-80279547D01*
X132080476Y-80470023D01*
X132175714Y-80565261D01*
X132270952Y-80612880D01*
X132461428Y-80612880D01*
X131175714Y-79946214D02*
X131175714Y-80612880D01*
X131413809Y-79565261D02*
X131651904Y-80279547D01*
X131032857Y-80279547D01*
%TO.C,R26*%
X132250857Y-90219880D02*
X132584190Y-89743690D01*
X132822285Y-90219880D02*
X132822285Y-89219880D01*
X132441333Y-89219880D01*
X132346095Y-89267500D01*
X132298476Y-89315119D01*
X132250857Y-89410357D01*
X132250857Y-89553214D01*
X132298476Y-89648452D01*
X132346095Y-89696071D01*
X132441333Y-89743690D01*
X132822285Y-89743690D01*
X131869904Y-89315119D02*
X131822285Y-89267500D01*
X131727047Y-89219880D01*
X131488952Y-89219880D01*
X131393714Y-89267500D01*
X131346095Y-89315119D01*
X131298476Y-89410357D01*
X131298476Y-89505595D01*
X131346095Y-89648452D01*
X131917523Y-90219880D01*
X131298476Y-90219880D01*
X130441333Y-89219880D02*
X130631809Y-89219880D01*
X130727047Y-89267500D01*
X130774666Y-89315119D01*
X130869904Y-89457976D01*
X130917523Y-89648452D01*
X130917523Y-90029404D01*
X130869904Y-90124642D01*
X130822285Y-90172261D01*
X130727047Y-90219880D01*
X130536571Y-90219880D01*
X130441333Y-90172261D01*
X130393714Y-90124642D01*
X130346095Y-90029404D01*
X130346095Y-89791309D01*
X130393714Y-89696071D01*
X130441333Y-89648452D01*
X130536571Y-89600833D01*
X130727047Y-89600833D01*
X130822285Y-89648452D01*
X130869904Y-89696071D01*
X130917523Y-89791309D01*
%TO.C,R30*%
X132278857Y-83023880D02*
X132612190Y-82547690D01*
X132850285Y-83023880D02*
X132850285Y-82023880D01*
X132469333Y-82023880D01*
X132374095Y-82071500D01*
X132326476Y-82119119D01*
X132278857Y-82214357D01*
X132278857Y-82357214D01*
X132326476Y-82452452D01*
X132374095Y-82500071D01*
X132469333Y-82547690D01*
X132850285Y-82547690D01*
X131945523Y-82023880D02*
X131326476Y-82023880D01*
X131659809Y-82404833D01*
X131516952Y-82404833D01*
X131421714Y-82452452D01*
X131374095Y-82500071D01*
X131326476Y-82595309D01*
X131326476Y-82833404D01*
X131374095Y-82928642D01*
X131421714Y-82976261D01*
X131516952Y-83023880D01*
X131802666Y-83023880D01*
X131897904Y-82976261D01*
X131945523Y-82928642D01*
X130707428Y-82023880D02*
X130612190Y-82023880D01*
X130516952Y-82071500D01*
X130469333Y-82119119D01*
X130421714Y-82214357D01*
X130374095Y-82404833D01*
X130374095Y-82642928D01*
X130421714Y-82833404D01*
X130469333Y-82928642D01*
X130516952Y-82976261D01*
X130612190Y-83023880D01*
X130707428Y-83023880D01*
X130802666Y-82976261D01*
X130850285Y-82928642D01*
X130897904Y-82833404D01*
X130945523Y-82642928D01*
X130945523Y-82404833D01*
X130897904Y-82214357D01*
X130850285Y-82119119D01*
X130802666Y-82071500D01*
X130707428Y-82023880D01*
%TO.C,R31*%
X135792380Y-75339642D02*
X135316190Y-75006309D01*
X135792380Y-74768214D02*
X134792380Y-74768214D01*
X134792380Y-75149166D01*
X134840000Y-75244404D01*
X134887619Y-75292023D01*
X134982857Y-75339642D01*
X135125714Y-75339642D01*
X135220952Y-75292023D01*
X135268571Y-75244404D01*
X135316190Y-75149166D01*
X135316190Y-74768214D01*
X134792380Y-75672976D02*
X134792380Y-76292023D01*
X135173333Y-75958690D01*
X135173333Y-76101547D01*
X135220952Y-76196785D01*
X135268571Y-76244404D01*
X135363809Y-76292023D01*
X135601904Y-76292023D01*
X135697142Y-76244404D01*
X135744761Y-76196785D01*
X135792380Y-76101547D01*
X135792380Y-75815833D01*
X135744761Y-75720595D01*
X135697142Y-75672976D01*
X135792380Y-77244404D02*
X135792380Y-76672976D01*
X135792380Y-76958690D02*
X134792380Y-76958690D01*
X134935238Y-76863452D01*
X135030476Y-76768214D01*
X135078095Y-76672976D01*
%TO.C,R33*%
X125314380Y-75276142D02*
X124838190Y-74942809D01*
X125314380Y-74704714D02*
X124314380Y-74704714D01*
X124314380Y-75085666D01*
X124362000Y-75180904D01*
X124409619Y-75228523D01*
X124504857Y-75276142D01*
X124647714Y-75276142D01*
X124742952Y-75228523D01*
X124790571Y-75180904D01*
X124838190Y-75085666D01*
X124838190Y-74704714D01*
X124314380Y-75609476D02*
X124314380Y-76228523D01*
X124695333Y-75895190D01*
X124695333Y-76038047D01*
X124742952Y-76133285D01*
X124790571Y-76180904D01*
X124885809Y-76228523D01*
X125123904Y-76228523D01*
X125219142Y-76180904D01*
X125266761Y-76133285D01*
X125314380Y-76038047D01*
X125314380Y-75752333D01*
X125266761Y-75657095D01*
X125219142Y-75609476D01*
X124314380Y-76561857D02*
X124314380Y-77180904D01*
X124695333Y-76847571D01*
X124695333Y-76990428D01*
X124742952Y-77085666D01*
X124790571Y-77133285D01*
X124885809Y-77180904D01*
X125123904Y-77180904D01*
X125219142Y-77133285D01*
X125266761Y-77085666D01*
X125314380Y-76990428D01*
X125314380Y-76704714D01*
X125266761Y-76609476D01*
X125219142Y-76561857D01*
%TO.C,D4*%
X118494095Y-95533380D02*
X118494095Y-94533380D01*
X118256000Y-94533380D01*
X118113142Y-94581000D01*
X118017904Y-94676238D01*
X117970285Y-94771476D01*
X117922666Y-94961952D01*
X117922666Y-95104809D01*
X117970285Y-95295285D01*
X118017904Y-95390523D01*
X118113142Y-95485761D01*
X118256000Y-95533380D01*
X118494095Y-95533380D01*
X117065523Y-94866714D02*
X117065523Y-95533380D01*
X117303619Y-94485761D02*
X117541714Y-95200047D01*
X116922666Y-95200047D01*
%TO.C,Q5*%
X117887238Y-104139619D02*
X117982476Y-104092000D01*
X118077714Y-103996761D01*
X118220571Y-103853904D01*
X118315809Y-103806285D01*
X118411047Y-103806285D01*
X118363428Y-104044380D02*
X118458666Y-103996761D01*
X118553904Y-103901523D01*
X118601523Y-103711047D01*
X118601523Y-103377714D01*
X118553904Y-103187238D01*
X118458666Y-103092000D01*
X118363428Y-103044380D01*
X118172952Y-103044380D01*
X118077714Y-103092000D01*
X117982476Y-103187238D01*
X117934857Y-103377714D01*
X117934857Y-103711047D01*
X117982476Y-103901523D01*
X118077714Y-103996761D01*
X118172952Y-104044380D01*
X118363428Y-104044380D01*
X117030095Y-103044380D02*
X117506285Y-103044380D01*
X117553904Y-103520571D01*
X117506285Y-103472952D01*
X117411047Y-103425333D01*
X117172952Y-103425333D01*
X117077714Y-103472952D01*
X117030095Y-103520571D01*
X116982476Y-103615809D01*
X116982476Y-103853904D01*
X117030095Y-103949142D01*
X117077714Y-103996761D01*
X117172952Y-104044380D01*
X117411047Y-104044380D01*
X117506285Y-103996761D01*
X117553904Y-103949142D01*
%TO.C,R34*%
X114837380Y-107979142D02*
X114361190Y-107645809D01*
X114837380Y-107407714D02*
X113837380Y-107407714D01*
X113837380Y-107788666D01*
X113885000Y-107883904D01*
X113932619Y-107931523D01*
X114027857Y-107979142D01*
X114170714Y-107979142D01*
X114265952Y-107931523D01*
X114313571Y-107883904D01*
X114361190Y-107788666D01*
X114361190Y-107407714D01*
X113837380Y-108312476D02*
X113837380Y-108931523D01*
X114218333Y-108598190D01*
X114218333Y-108741047D01*
X114265952Y-108836285D01*
X114313571Y-108883904D01*
X114408809Y-108931523D01*
X114646904Y-108931523D01*
X114742142Y-108883904D01*
X114789761Y-108836285D01*
X114837380Y-108741047D01*
X114837380Y-108455333D01*
X114789761Y-108360095D01*
X114742142Y-108312476D01*
X114170714Y-109788666D02*
X114837380Y-109788666D01*
X113789761Y-109550571D02*
X114504047Y-109312476D01*
X114504047Y-109931523D01*
%TO.C,R35*%
X122224380Y-107969142D02*
X121748190Y-107635809D01*
X122224380Y-107397714D02*
X121224380Y-107397714D01*
X121224380Y-107778666D01*
X121272000Y-107873904D01*
X121319619Y-107921523D01*
X121414857Y-107969142D01*
X121557714Y-107969142D01*
X121652952Y-107921523D01*
X121700571Y-107873904D01*
X121748190Y-107778666D01*
X121748190Y-107397714D01*
X121224380Y-108302476D02*
X121224380Y-108921523D01*
X121605333Y-108588190D01*
X121605333Y-108731047D01*
X121652952Y-108826285D01*
X121700571Y-108873904D01*
X121795809Y-108921523D01*
X122033904Y-108921523D01*
X122129142Y-108873904D01*
X122176761Y-108826285D01*
X122224380Y-108731047D01*
X122224380Y-108445333D01*
X122176761Y-108350095D01*
X122129142Y-108302476D01*
X121224380Y-109826285D02*
X121224380Y-109350095D01*
X121700571Y-109302476D01*
X121652952Y-109350095D01*
X121605333Y-109445333D01*
X121605333Y-109683428D01*
X121652952Y-109778666D01*
X121700571Y-109826285D01*
X121795809Y-109873904D01*
X122033904Y-109873904D01*
X122129142Y-109826285D01*
X122176761Y-109778666D01*
X122224380Y-109683428D01*
X122224380Y-109445333D01*
X122176761Y-109350095D01*
X122129142Y-109302476D01*
%TO.C,R36*%
X122076380Y-98825142D02*
X121600190Y-98491809D01*
X122076380Y-98253714D02*
X121076380Y-98253714D01*
X121076380Y-98634666D01*
X121124000Y-98729904D01*
X121171619Y-98777523D01*
X121266857Y-98825142D01*
X121409714Y-98825142D01*
X121504952Y-98777523D01*
X121552571Y-98729904D01*
X121600190Y-98634666D01*
X121600190Y-98253714D01*
X121076380Y-99158476D02*
X121076380Y-99777523D01*
X121457333Y-99444190D01*
X121457333Y-99587047D01*
X121504952Y-99682285D01*
X121552571Y-99729904D01*
X121647809Y-99777523D01*
X121885904Y-99777523D01*
X121981142Y-99729904D01*
X122028761Y-99682285D01*
X122076380Y-99587047D01*
X122076380Y-99301333D01*
X122028761Y-99206095D01*
X121981142Y-99158476D01*
X121076380Y-100634666D02*
X121076380Y-100444190D01*
X121124000Y-100348952D01*
X121171619Y-100301333D01*
X121314476Y-100206095D01*
X121504952Y-100158476D01*
X121885904Y-100158476D01*
X121981142Y-100206095D01*
X122028761Y-100253714D01*
X122076380Y-100348952D01*
X122076380Y-100539428D01*
X122028761Y-100634666D01*
X121981142Y-100682285D01*
X121885904Y-100729904D01*
X121647809Y-100729904D01*
X121552571Y-100682285D01*
X121504952Y-100634666D01*
X121457333Y-100539428D01*
X121457333Y-100348952D01*
X121504952Y-100253714D01*
X121552571Y-100206095D01*
X121647809Y-100158476D01*
%TO.C,R37*%
X110646380Y-98771142D02*
X110170190Y-98437809D01*
X110646380Y-98199714D02*
X109646380Y-98199714D01*
X109646380Y-98580666D01*
X109694000Y-98675904D01*
X109741619Y-98723523D01*
X109836857Y-98771142D01*
X109979714Y-98771142D01*
X110074952Y-98723523D01*
X110122571Y-98675904D01*
X110170190Y-98580666D01*
X110170190Y-98199714D01*
X109646380Y-99104476D02*
X109646380Y-99723523D01*
X110027333Y-99390190D01*
X110027333Y-99533047D01*
X110074952Y-99628285D01*
X110122571Y-99675904D01*
X110217809Y-99723523D01*
X110455904Y-99723523D01*
X110551142Y-99675904D01*
X110598761Y-99628285D01*
X110646380Y-99533047D01*
X110646380Y-99247333D01*
X110598761Y-99152095D01*
X110551142Y-99104476D01*
X109646380Y-100056857D02*
X109646380Y-100723523D01*
X110646380Y-100294952D01*
%TO.C,D7*%
X104588095Y-95279380D02*
X104588095Y-94279380D01*
X104350000Y-94279380D01*
X104207142Y-94327000D01*
X104111904Y-94422238D01*
X104064285Y-94517476D01*
X104016666Y-94707952D01*
X104016666Y-94850809D01*
X104064285Y-95041285D01*
X104111904Y-95136523D01*
X104207142Y-95231761D01*
X104350000Y-95279380D01*
X104588095Y-95279380D01*
X103683333Y-94279380D02*
X103016666Y-94279380D01*
X103445238Y-95279380D01*
%TO.C,Q6*%
X103981238Y-104012619D02*
X104076476Y-103965000D01*
X104171714Y-103869761D01*
X104314571Y-103726904D01*
X104409809Y-103679285D01*
X104505047Y-103679285D01*
X104457428Y-103917380D02*
X104552666Y-103869761D01*
X104647904Y-103774523D01*
X104695523Y-103584047D01*
X104695523Y-103250714D01*
X104647904Y-103060238D01*
X104552666Y-102965000D01*
X104457428Y-102917380D01*
X104266952Y-102917380D01*
X104171714Y-102965000D01*
X104076476Y-103060238D01*
X104028857Y-103250714D01*
X104028857Y-103584047D01*
X104076476Y-103774523D01*
X104171714Y-103869761D01*
X104266952Y-103917380D01*
X104457428Y-103917380D01*
X103171714Y-102917380D02*
X103362190Y-102917380D01*
X103457428Y-102965000D01*
X103505047Y-103012619D01*
X103600285Y-103155476D01*
X103647904Y-103345952D01*
X103647904Y-103726904D01*
X103600285Y-103822142D01*
X103552666Y-103869761D01*
X103457428Y-103917380D01*
X103266952Y-103917380D01*
X103171714Y-103869761D01*
X103124095Y-103822142D01*
X103076476Y-103726904D01*
X103076476Y-103488809D01*
X103124095Y-103393571D01*
X103171714Y-103345952D01*
X103266952Y-103298333D01*
X103457428Y-103298333D01*
X103552666Y-103345952D01*
X103600285Y-103393571D01*
X103647904Y-103488809D01*
%TO.C,R38*%
X100994380Y-108296142D02*
X100518190Y-107962809D01*
X100994380Y-107724714D02*
X99994380Y-107724714D01*
X99994380Y-108105666D01*
X100042000Y-108200904D01*
X100089619Y-108248523D01*
X100184857Y-108296142D01*
X100327714Y-108296142D01*
X100422952Y-108248523D01*
X100470571Y-108200904D01*
X100518190Y-108105666D01*
X100518190Y-107724714D01*
X99994380Y-108629476D02*
X99994380Y-109248523D01*
X100375333Y-108915190D01*
X100375333Y-109058047D01*
X100422952Y-109153285D01*
X100470571Y-109200904D01*
X100565809Y-109248523D01*
X100803904Y-109248523D01*
X100899142Y-109200904D01*
X100946761Y-109153285D01*
X100994380Y-109058047D01*
X100994380Y-108772333D01*
X100946761Y-108677095D01*
X100899142Y-108629476D01*
X100422952Y-109819952D02*
X100375333Y-109724714D01*
X100327714Y-109677095D01*
X100232476Y-109629476D01*
X100184857Y-109629476D01*
X100089619Y-109677095D01*
X100042000Y-109724714D01*
X99994380Y-109819952D01*
X99994380Y-110010428D01*
X100042000Y-110105666D01*
X100089619Y-110153285D01*
X100184857Y-110200904D01*
X100232476Y-110200904D01*
X100327714Y-110153285D01*
X100375333Y-110105666D01*
X100422952Y-110010428D01*
X100422952Y-109819952D01*
X100470571Y-109724714D01*
X100518190Y-109677095D01*
X100613428Y-109629476D01*
X100803904Y-109629476D01*
X100899142Y-109677095D01*
X100946761Y-109724714D01*
X100994380Y-109819952D01*
X100994380Y-110010428D01*
X100946761Y-110105666D01*
X100899142Y-110153285D01*
X100803904Y-110200904D01*
X100613428Y-110200904D01*
X100518190Y-110153285D01*
X100470571Y-110105666D01*
X100422952Y-110010428D01*
%TO.C,R39*%
X108190380Y-108350142D02*
X107714190Y-108016809D01*
X108190380Y-107778714D02*
X107190380Y-107778714D01*
X107190380Y-108159666D01*
X107238000Y-108254904D01*
X107285619Y-108302523D01*
X107380857Y-108350142D01*
X107523714Y-108350142D01*
X107618952Y-108302523D01*
X107666571Y-108254904D01*
X107714190Y-108159666D01*
X107714190Y-107778714D01*
X107190380Y-108683476D02*
X107190380Y-109302523D01*
X107571333Y-108969190D01*
X107571333Y-109112047D01*
X107618952Y-109207285D01*
X107666571Y-109254904D01*
X107761809Y-109302523D01*
X107999904Y-109302523D01*
X108095142Y-109254904D01*
X108142761Y-109207285D01*
X108190380Y-109112047D01*
X108190380Y-108826333D01*
X108142761Y-108731095D01*
X108095142Y-108683476D01*
X108190380Y-109778714D02*
X108190380Y-109969190D01*
X108142761Y-110064428D01*
X108095142Y-110112047D01*
X107952285Y-110207285D01*
X107761809Y-110254904D01*
X107380857Y-110254904D01*
X107285619Y-110207285D01*
X107238000Y-110159666D01*
X107190380Y-110064428D01*
X107190380Y-109873952D01*
X107238000Y-109778714D01*
X107285619Y-109731095D01*
X107380857Y-109683476D01*
X107618952Y-109683476D01*
X107714190Y-109731095D01*
X107761809Y-109778714D01*
X107809428Y-109873952D01*
X107809428Y-110064428D01*
X107761809Y-110159666D01*
X107714190Y-110207285D01*
X107618952Y-110254904D01*
%TO.C,R40*%
X107344380Y-98834642D02*
X106868190Y-98501309D01*
X107344380Y-98263214D02*
X106344380Y-98263214D01*
X106344380Y-98644166D01*
X106392000Y-98739404D01*
X106439619Y-98787023D01*
X106534857Y-98834642D01*
X106677714Y-98834642D01*
X106772952Y-98787023D01*
X106820571Y-98739404D01*
X106868190Y-98644166D01*
X106868190Y-98263214D01*
X106677714Y-99691785D02*
X107344380Y-99691785D01*
X106296761Y-99453690D02*
X107011047Y-99215595D01*
X107011047Y-99834642D01*
X106344380Y-100406071D02*
X106344380Y-100501309D01*
X106392000Y-100596547D01*
X106439619Y-100644166D01*
X106534857Y-100691785D01*
X106725333Y-100739404D01*
X106963428Y-100739404D01*
X107153904Y-100691785D01*
X107249142Y-100644166D01*
X107296761Y-100596547D01*
X107344380Y-100501309D01*
X107344380Y-100406071D01*
X107296761Y-100310833D01*
X107249142Y-100263214D01*
X107153904Y-100215595D01*
X106963428Y-100167976D01*
X106725333Y-100167976D01*
X106534857Y-100215595D01*
X106439619Y-100263214D01*
X106392000Y-100310833D01*
X106344380Y-100406071D01*
%TO.C,R41*%
X97184380Y-98761642D02*
X96708190Y-98428309D01*
X97184380Y-98190214D02*
X96184380Y-98190214D01*
X96184380Y-98571166D01*
X96232000Y-98666404D01*
X96279619Y-98714023D01*
X96374857Y-98761642D01*
X96517714Y-98761642D01*
X96612952Y-98714023D01*
X96660571Y-98666404D01*
X96708190Y-98571166D01*
X96708190Y-98190214D01*
X96517714Y-99618785D02*
X97184380Y-99618785D01*
X96136761Y-99380690D02*
X96851047Y-99142595D01*
X96851047Y-99761642D01*
X97184380Y-100666404D02*
X97184380Y-100094976D01*
X97184380Y-100380690D02*
X96184380Y-100380690D01*
X96327238Y-100285452D01*
X96422476Y-100190214D01*
X96470095Y-100094976D01*
%TO.C,R43*%
X86204357Y-76356380D02*
X86537690Y-75880190D01*
X86775785Y-76356380D02*
X86775785Y-75356380D01*
X86394833Y-75356380D01*
X86299595Y-75404000D01*
X86251976Y-75451619D01*
X86204357Y-75546857D01*
X86204357Y-75689714D01*
X86251976Y-75784952D01*
X86299595Y-75832571D01*
X86394833Y-75880190D01*
X86775785Y-75880190D01*
X85347214Y-75689714D02*
X85347214Y-76356380D01*
X85585309Y-75308761D02*
X85823404Y-76023047D01*
X85204357Y-76023047D01*
X84918642Y-75356380D02*
X84299595Y-75356380D01*
X84632928Y-75737333D01*
X84490071Y-75737333D01*
X84394833Y-75784952D01*
X84347214Y-75832571D01*
X84299595Y-75927809D01*
X84299595Y-76165904D01*
X84347214Y-76261142D01*
X84394833Y-76308761D01*
X84490071Y-76356380D01*
X84775785Y-76356380D01*
X84871023Y-76308761D01*
X84918642Y-76261142D01*
%TO.C,R46*%
X86277357Y-85076380D02*
X86610690Y-84600190D01*
X86848785Y-85076380D02*
X86848785Y-84076380D01*
X86467833Y-84076380D01*
X86372595Y-84124000D01*
X86324976Y-84171619D01*
X86277357Y-84266857D01*
X86277357Y-84409714D01*
X86324976Y-84504952D01*
X86372595Y-84552571D01*
X86467833Y-84600190D01*
X86848785Y-84600190D01*
X85420214Y-84409714D02*
X85420214Y-85076380D01*
X85658309Y-84028761D02*
X85896404Y-84743047D01*
X85277357Y-84743047D01*
X84467833Y-84076380D02*
X84658309Y-84076380D01*
X84753547Y-84124000D01*
X84801166Y-84171619D01*
X84896404Y-84314476D01*
X84944023Y-84504952D01*
X84944023Y-84885904D01*
X84896404Y-84981142D01*
X84848785Y-85028761D01*
X84753547Y-85076380D01*
X84563071Y-85076380D01*
X84467833Y-85028761D01*
X84420214Y-84981142D01*
X84372595Y-84885904D01*
X84372595Y-84647809D01*
X84420214Y-84552571D01*
X84467833Y-84504952D01*
X84563071Y-84457333D01*
X84753547Y-84457333D01*
X84848785Y-84504952D01*
X84896404Y-84552571D01*
X84944023Y-84647809D01*
%TO.C,R47*%
X85696357Y-93712380D02*
X86029690Y-93236190D01*
X86267785Y-93712380D02*
X86267785Y-92712380D01*
X85886833Y-92712380D01*
X85791595Y-92760000D01*
X85743976Y-92807619D01*
X85696357Y-92902857D01*
X85696357Y-93045714D01*
X85743976Y-93140952D01*
X85791595Y-93188571D01*
X85886833Y-93236190D01*
X86267785Y-93236190D01*
X84839214Y-93045714D02*
X84839214Y-93712380D01*
X85077309Y-92664761D02*
X85315404Y-93379047D01*
X84696357Y-93379047D01*
X84410642Y-92712380D02*
X83743976Y-92712380D01*
X84172547Y-93712380D01*
%TO.C,R50*%
X92908380Y-74033142D02*
X92432190Y-73699809D01*
X92908380Y-73461714D02*
X91908380Y-73461714D01*
X91908380Y-73842666D01*
X91956000Y-73937904D01*
X92003619Y-73985523D01*
X92098857Y-74033142D01*
X92241714Y-74033142D01*
X92336952Y-73985523D01*
X92384571Y-73937904D01*
X92432190Y-73842666D01*
X92432190Y-73461714D01*
X91908380Y-74937904D02*
X91908380Y-74461714D01*
X92384571Y-74414095D01*
X92336952Y-74461714D01*
X92289333Y-74556952D01*
X92289333Y-74795047D01*
X92336952Y-74890285D01*
X92384571Y-74937904D01*
X92479809Y-74985523D01*
X92717904Y-74985523D01*
X92813142Y-74937904D01*
X92860761Y-74890285D01*
X92908380Y-74795047D01*
X92908380Y-74556952D01*
X92860761Y-74461714D01*
X92813142Y-74414095D01*
X91908380Y-75604571D02*
X91908380Y-75699809D01*
X91956000Y-75795047D01*
X92003619Y-75842666D01*
X92098857Y-75890285D01*
X92289333Y-75937904D01*
X92527428Y-75937904D01*
X92717904Y-75890285D01*
X92813142Y-75842666D01*
X92860761Y-75795047D01*
X92908380Y-75699809D01*
X92908380Y-75604571D01*
X92860761Y-75509333D01*
X92813142Y-75461714D01*
X92717904Y-75414095D01*
X92527428Y-75366476D01*
X92289333Y-75366476D01*
X92098857Y-75414095D01*
X92003619Y-75461714D01*
X91956000Y-75509333D01*
X91908380Y-75604571D01*
%TO.C,R52*%
X94728380Y-79584642D02*
X94252190Y-79251309D01*
X94728380Y-79013214D02*
X93728380Y-79013214D01*
X93728380Y-79394166D01*
X93776000Y-79489404D01*
X93823619Y-79537023D01*
X93918857Y-79584642D01*
X94061714Y-79584642D01*
X94156952Y-79537023D01*
X94204571Y-79489404D01*
X94252190Y-79394166D01*
X94252190Y-79013214D01*
X93728380Y-80489404D02*
X93728380Y-80013214D01*
X94204571Y-79965595D01*
X94156952Y-80013214D01*
X94109333Y-80108452D01*
X94109333Y-80346547D01*
X94156952Y-80441785D01*
X94204571Y-80489404D01*
X94299809Y-80537023D01*
X94537904Y-80537023D01*
X94633142Y-80489404D01*
X94680761Y-80441785D01*
X94728380Y-80346547D01*
X94728380Y-80108452D01*
X94680761Y-80013214D01*
X94633142Y-79965595D01*
X93823619Y-80917976D02*
X93776000Y-80965595D01*
X93728380Y-81060833D01*
X93728380Y-81298928D01*
X93776000Y-81394166D01*
X93823619Y-81441785D01*
X93918857Y-81489404D01*
X94014095Y-81489404D01*
X94156952Y-81441785D01*
X94728380Y-80870357D01*
X94728380Y-81489404D01*
%TO.C,R53*%
X93389357Y-113270380D02*
X93722690Y-112794190D01*
X93960785Y-113270380D02*
X93960785Y-112270380D01*
X93579833Y-112270380D01*
X93484595Y-112318000D01*
X93436976Y-112365619D01*
X93389357Y-112460857D01*
X93389357Y-112603714D01*
X93436976Y-112698952D01*
X93484595Y-112746571D01*
X93579833Y-112794190D01*
X93960785Y-112794190D01*
X92484595Y-112270380D02*
X92960785Y-112270380D01*
X93008404Y-112746571D01*
X92960785Y-112698952D01*
X92865547Y-112651333D01*
X92627452Y-112651333D01*
X92532214Y-112698952D01*
X92484595Y-112746571D01*
X92436976Y-112841809D01*
X92436976Y-113079904D01*
X92484595Y-113175142D01*
X92532214Y-113222761D01*
X92627452Y-113270380D01*
X92865547Y-113270380D01*
X92960785Y-113222761D01*
X93008404Y-113175142D01*
X92103642Y-112270380D02*
X91484595Y-112270380D01*
X91817928Y-112651333D01*
X91675071Y-112651333D01*
X91579833Y-112698952D01*
X91532214Y-112746571D01*
X91484595Y-112841809D01*
X91484595Y-113079904D01*
X91532214Y-113175142D01*
X91579833Y-113222761D01*
X91675071Y-113270380D01*
X91960785Y-113270380D01*
X92056023Y-113222761D01*
X92103642Y-113175142D01*
%TD*%
M02*
