%FSLAX45Y45*%
G04 Gerber Fmt 4.5, Leading zero omitted, Abs format (unit mm)*
G04 Created by KiCad (PCBNEW (5.1.4-0-10_14)) date 2019-11-24 22:14:01*
%MOMM*%
%LPD*%
G04 APERTURE LIST*
%ADD10C,0.050000*%
%ADD11C,0.200000*%
%ADD12C,0.300000*%
G04 APERTURE END LIST*
D10*
X10160000Y-5842000D02*
X9956800Y-5842000D01*
X10160000Y-6553200D02*
X10160000Y-5842000D01*
X9956800Y-6553200D02*
X10160000Y-6553200D01*
X9956800Y-5842000D02*
X9956800Y-6553200D01*
X9601200Y-10058400D02*
X9601200Y-6604000D01*
X9448800Y-10058400D02*
X9601200Y-10058400D01*
X9448800Y-6604000D02*
X9448800Y-10058400D01*
X9601200Y-6604000D02*
X9448800Y-6604000D01*
X12090400Y-11379200D02*
X12242800Y-11379200D01*
X12090400Y-12192000D02*
X12090400Y-11379200D01*
X12242800Y-12192000D02*
X12090400Y-12192000D01*
X12242800Y-11379200D02*
X12242800Y-12192000D01*
X8915400Y-10058400D02*
X8915400Y-6604000D01*
X9067800Y-10058400D02*
X8915400Y-10058400D01*
X9067800Y-6604000D02*
X9067800Y-10058400D01*
X8915400Y-6604000D02*
X9067800Y-6604000D01*
X8082300Y-6050100D02*
G75*
G02X8336300Y-5796100I254000J0D01*
G01*
X20672300Y-5796100D02*
G75*
G02X20926300Y-6050100I0J-254000D01*
G01*
X20926300Y-11975720D02*
G75*
G02X20672300Y-12229720I-254000J0D01*
G01*
X8336300Y-12229720D02*
G75*
G02X8082300Y-11975720I0J254000D01*
G01*
X20672300Y-5796100D02*
X8336300Y-5796100D01*
X20926300Y-11975720D02*
X20926300Y-6050100D01*
X8336300Y-12229720D02*
X20672300Y-12229720D01*
X8082300Y-6050100D02*
X8082300Y-11975720D01*
D11*
D12*
X8366228Y-12697934D02*
X8366228Y-12397934D01*
X8437657Y-12397934D01*
X8480514Y-12412220D01*
X8509086Y-12440791D01*
X8523371Y-12469363D01*
X8537657Y-12526506D01*
X8537657Y-12569363D01*
X8523371Y-12626506D01*
X8509086Y-12655077D01*
X8480514Y-12683649D01*
X8437657Y-12697934D01*
X8366228Y-12697934D01*
X8666228Y-12697934D02*
X8666228Y-12497934D01*
X8666228Y-12555077D02*
X8680514Y-12526506D01*
X8694800Y-12512220D01*
X8723371Y-12497934D01*
X8751943Y-12497934D01*
X8851943Y-12697934D02*
X8851943Y-12497934D01*
X8851943Y-12397934D02*
X8837657Y-12412220D01*
X8851943Y-12426506D01*
X8866228Y-12412220D01*
X8851943Y-12397934D01*
X8851943Y-12426506D01*
X9037657Y-12697934D02*
X9009086Y-12683649D01*
X8994800Y-12655077D01*
X8994800Y-12397934D01*
X9194800Y-12697934D02*
X9166228Y-12683649D01*
X9151943Y-12655077D01*
X9151943Y-12397934D01*
X9537657Y-12697934D02*
X9537657Y-12397934D01*
X9637657Y-12612220D01*
X9737657Y-12397934D01*
X9737657Y-12697934D01*
X10009086Y-12697934D02*
X10009086Y-12540791D01*
X9994800Y-12512220D01*
X9966228Y-12497934D01*
X9909086Y-12497934D01*
X9880514Y-12512220D01*
X10009086Y-12683649D02*
X9980514Y-12697934D01*
X9909086Y-12697934D01*
X9880514Y-12683649D01*
X9866228Y-12655077D01*
X9866228Y-12626506D01*
X9880514Y-12597934D01*
X9909086Y-12583649D01*
X9980514Y-12583649D01*
X10009086Y-12569363D01*
X10151943Y-12497934D02*
X10151943Y-12797934D01*
X10151943Y-12512220D02*
X10180514Y-12497934D01*
X10237657Y-12497934D01*
X10266228Y-12512220D01*
X10280514Y-12526506D01*
X10294800Y-12555077D01*
X10294800Y-12640791D01*
X10280514Y-12669363D01*
X10266228Y-12683649D01*
X10237657Y-12697934D01*
X10180514Y-12697934D01*
X10151943Y-12683649D01*
X10423371Y-12669363D02*
X10437657Y-12683649D01*
X10423371Y-12697934D01*
X10409086Y-12683649D01*
X10423371Y-12669363D01*
X10423371Y-12697934D01*
X10423371Y-12512220D02*
X10437657Y-12526506D01*
X10423371Y-12540791D01*
X10409086Y-12526506D01*
X10423371Y-12512220D01*
X10423371Y-12540791D01*
M02*
